# MagicaVoxel @ Ephtracy

# group
o 

# material
mtllib chinese-3.mtl
usemtl palette

# normals
vn -1 0 0
vn 1 0 0
vn 0 0 1
vn 0 0 -1
vn 0 -1 0
vn 0 1 0

# texcoords
vt 0.955078 0.5
vt 0.970703 0.5
vt 0.986328 0.5

# verts
v 0.3 1.4 7.45058e-09
v 0.3 1.4 -0.2
v 0.3 1.5 7.45058e-09
v 0.3 1.5 -0.2
v 0.3 2.2 7.45058e-09
v 0.3 2.2 -0.2
v 0.3 2.3 7.45058e-09
v 0.3 2.3 -0.2
v 0.4 1.3 7.45058e-09
v 0.4 1.3 -0.2
v 0.4 1.4 7.45058e-09
v 0.4 1.4 -0.2
v 0.5 1.3 7.45058e-09
v 0.5 1.3 -0.2
v 0.5 1.5 7.45058e-09
v 0.5 1.5 -0.2
v 0.5 2.3 7.45058e-09
v 0.5 2.3 -0.2
v 0.3 1.4 7.45058e-09
v 0.3 1.5 7.45058e-09
v 0.3 2.2 7.45058e-09
v 0.3 2.3 7.45058e-09
v 0.4 1.3 7.45058e-09
v 0.4 1.4 7.45058e-09
v 0.4 1.5 7.45058e-09
v 0.4 2.2 7.45058e-09
v 0.5 1.3 7.45058e-09
v 0.5 1.5 7.45058e-09
v 0.5 2.3 7.45058e-09
v 0.3 1.4 -0.2
v 0.3 1.5 -0.2
v 0.3 2.2 -0.2
v 0.3 2.3 -0.2
v 0.4 1.3 -0.2
v 0.4 1.4 -0.2
v 0.4 1.5 -0.2
v 0.4 2.2 -0.2
v 0.5 1.3 -0.2
v 0.5 1.5 -0.2
v 0.5 2.3 -0.2
v 0.4 1.3 7.45058e-09
v 0.5 1.3 7.45058e-09
v 0.4 1.3 -0.2
v 0.5 1.3 -0.2
v 0.3 1.4 7.45058e-09
v 0.4 1.4 7.45058e-09
v 0.3 1.4 -0.2
v 0.4 1.4 -0.2
v 0.3 2.3 7.45058e-09
v 0.5 2.3 7.45058e-09
v 0.3 2.3 -0.2
v 0.5 2.3 -0.2

# faces
f 3/2/1 2/2/1 1/2/1
f 4/2/1 2/2/1 3/2/1
f 5/3/1 4/3/1 3/3/1
f 6/3/1 4/3/1 5/3/1
f 7/1/1 6/1/1 5/1/1
f 8/1/1 6/1/1 7/1/1
f 11/2/1 10/2/1 9/2/1
f 12/2/1 10/2/1 11/2/1
f 13/2/2 14/2/2 15/2/2
f 15/2/2 14/2/2 16/2/2
f 15/1/2 16/1/2 17/1/2
f 17/1/2 16/1/2 18/1/2
f 24/2/3 20/2/3 19/2/3
f 25/3/3 21/3/3 20/3/3
f 25/2/3 20/2/3 24/2/3
f 26/1/3 22/1/3 21/1/3
f 26/3/3 21/3/3 25/3/3
f 27/2/3 25/2/3 24/2/3
f 27/2/3 24/2/3 23/2/3
f 28/1/3 26/1/3 25/1/3
f 28/2/3 25/2/3 27/2/3
f 29/1/3 22/1/3 26/1/3
f 29/1/3 26/1/3 28/1/3
f 30/2/4 31/2/4 35/2/4
f 31/3/4 32/3/4 36/3/4
f 35/2/4 31/2/4 36/2/4
f 32/1/4 33/1/4 37/1/4
f 36/3/4 32/3/4 37/3/4
f 35/2/4 36/2/4 38/2/4
f 34/2/4 35/2/4 38/2/4
f 36/1/4 37/1/4 39/1/4
f 38/2/4 36/2/4 39/2/4
f 37/1/4 33/1/4 40/1/4
f 39/1/4 37/1/4 40/1/4
f 43/2/5 42/2/5 41/2/5
f 44/2/5 42/2/5 43/2/5
f 47/2/5 46/2/5 45/2/5
f 48/2/5 46/2/5 47/2/5
f 49/1/6 50/1/6 51/1/6
f 51/1/6 50/1/6 52/1/6
