# MagicaVoxel @ Ephtracy

# group
o 

# material
mtllib fin-4.mtl
usemtl palette

# normals
vn 1 0 0
vn -1 0 0
vn 0 0 -1
vn 0 0 1
vn 0 -1 0
vn 0 1 0

# texcoords
vt 0.939453 0.5
vt 0.943359 0.5
vt 0.970703 0.5
vt 0.974609 0.5
vt 0.978516 0.5
vt 0.982422 0.5
vt 0.986328 0.5

# verts
v 0.3 0.7 -0.5
v 0.3 0.7 -0.4
v 0.3 1 -0.6
v 0.3 1 -0.5
v 0.3 1 -0.4
v 0.3 1 -0.3
v 0.3 1.4 -0.4
v 0.3 1.4 -0.3
v 0.3 1.6 -0.7
v 0.3 1.6 -0.6
v 0.3 1.6 -0.4
v 0.3 1.6 -0.3
v 0.3 1.6 -0.2
v 0.3 1.7 -0.8
v 0.3 1.7 -0.7
v 0.3 1.7 -0.2
v 0.3 1.7 -0.1
v 0.3 2.1 -0.8
v 0.3 2.1 -0.7
v 0.3 2.1 -0.2
v 0.3 2.1 -0.1
v 0.3 2.2 -0.7
v 0.3 2.2 -0.6
v 0.3 2.2 -0.3
v 0.3 2.2 -0.2
v 0.3 2.3 -0.6
v 0.3 2.3 -0.3
v 0.2 0.7 -0.6
v 0.2 0.7 -0.5
v 0.2 0.7 -0.4
v 0.2 0.7 -0.3
v 0.2 1 -0.7
v 0.2 1 -0.6
v 0.2 1 -0.5
v 0.2 1 -0.4
v 0.2 1 -0.3
v 0.2 1 -0.2
v 0.2 1.2 -0.3
v 0.2 1.2 -0.2
v 0.2 1.4 -0.3
v 0.2 1.5 -0.3
v 0.2 1.5 -0.2
v 0.2 1.6 -0.8
v 0.2 1.6 -0.7
v 0.2 1.6 -0.6
v 0.2 1.6 -0.3
v 0.2 1.6 -0.2
v 0.2 1.6 -0.1
v 0.2 1.7 -0.8
v 0.2 1.7 -0.7
v 0.2 1.7 -0.2
v 0.2 1.7 -0.1
v 0.2 2.1 -0.8
v 0.2 2.1 -0.7
v 0.2 2.1 -0.2
v 0.2 2.1 -0.1
v 0.2 2.2 -0.8
v 0.2 2.2 -0.7
v 0.2 2.2 -0.2
v 0.2 2.2 -0.1
v -0.3 1.7 -0.8
v -0.3 1.7 -0.7
v -0.3 1.8 -0.7
v -0.3 1.9 -0.7
v -0.3 2.1 -0.8
v -0.3 2.1 -0.7
v -0.3 2.2 -0.6
v -0.3 2.2 -0.3
v -0.3 2.3 -0.6
v -0.3 2.3 -0.3
v 0.2 1.7 -0.8
v 0.2 1.7 -0.7
v 0.2 1.8 -0.7
v 0.2 1.9 -0.7
v 0.2 2.1 -0.8
v 0.2 2.1 -0.7
v 0.2 2.2 -0.6
v 0.2 2.2 -0.3
v 0.2 2.3 -0.6
v 0.2 2.3 -0.3
v -0.3 0.7 -0.6
v -0.3 0.7 -0.5
v -0.3 0.7 -0.4
v -0.3 0.7 -0.3
v -0.3 1 -0.7
v -0.3 1 -0.6
v -0.3 1 -0.5
v -0.3 1 -0.4
v -0.3 1 -0.3
v -0.3 1 -0.2
v -0.3 1.2 -0.3
v -0.3 1.2 -0.2
v -0.3 1.4 -0.3
v -0.3 1.5 -0.3
v -0.3 1.5 -0.2
v -0.3 1.6 -0.8
v -0.3 1.6 -0.7
v -0.3 1.6 -0.6
v -0.3 1.6 -0.3
v -0.3 1.6 -0.2
v -0.3 1.6 -0.1
v -0.3 1.7 -0.8
v -0.3 1.7 -0.7
v -0.3 1.7 -0.2
v -0.3 1.7 -0.1
v -0.3 2.1 -0.8
v -0.3 2.1 -0.7
v -0.3 2.1 -0.2
v -0.3 2.1 -0.1
v -0.3 2.2 -0.8
v -0.3 2.2 -0.7
v -0.3 2.2 -0.2
v -0.3 2.2 -0.1
v -0.4 0.7 -0.5
v -0.4 0.7 -0.4
v -0.4 1 -0.6
v -0.4 1 -0.5
v -0.4 1 -0.4
v -0.4 1 -0.3
v -0.4 1.4 -0.4
v -0.4 1.4 -0.3
v -0.4 1.6 -0.7
v -0.4 1.6 -0.6
v -0.4 1.6 -0.4
v -0.4 1.6 -0.3
v -0.4 1.6 -0.2
v -0.4 1.7 -0.8
v -0.4 1.7 -0.7
v -0.4 1.7 -0.2
v -0.4 1.7 -0.1
v -0.4 2.1 -0.8
v -0.4 2.1 -0.7
v -0.4 2.1 -0.2
v -0.4 2.1 -0.1
v -0.4 2.2 -0.7
v -0.4 2.2 -0.6
v -0.4 2.2 -0.3
v -0.4 2.2 -0.2
v -0.4 2.3 -0.6
v -0.4 2.3 -0.3
v 0.3 1.7 -0.8
v 0.3 2.1 -0.8
v 0.2 1.6 -0.8
v 0.2 1.7 -0.8
v 0.2 2.1 -0.8
v 0.2 2.2 -0.8
v -0.3 1.6 -0.8
v -0.3 1.7 -0.8
v -0.3 2.1 -0.8
v -0.3 2.2 -0.8
v -0.4 1.7 -0.8
v -0.4 2.1 -0.8
v 0.3 1.6 -0.7
v 0.3 1.7 -0.7
v 0.3 2.1 -0.7
v 0.3 2.2 -0.7
v 0.2 1 -0.7
v 0.2 1.6 -0.7
v 0.2 1.7 -0.7
v 0.2 1.8 -0.7
v 0.2 1.9 -0.7
v 0.2 2.1 -0.7
v 0.2 2.2 -0.7
v 0.1 1.8 -0.7
v 0.1 1.9 -0.7
v -0.2 1.8 -0.7
v -0.2 1.9 -0.7
v -0.3 1 -0.7
v -0.3 1.6 -0.7
v -0.3 1.7 -0.7
v -0.3 1.8 -0.7
v -0.3 1.9 -0.7
v -0.3 2.1 -0.7
v -0.3 2.2 -0.7
v -0.4 1.6 -0.7
v -0.4 1.7 -0.7
v -0.4 2.1 -0.7
v -0.4 2.2 -0.7
v 0.3 1 -0.6
v 0.3 1.6 -0.6
v 0.3 2.2 -0.6
v 0.3 2.3 -0.6
v 0.2 0.7 -0.6
v 0.2 1 -0.6
v 0.2 1.6 -0.6
v 0.2 2.2 -0.6
v 0.2 2.3 -0.6
v -0.3 0.7 -0.6
v -0.3 1 -0.6
v -0.3 1.6 -0.6
v -0.3 2.2 -0.6
v -0.3 2.3 -0.6
v -0.4 1 -0.6
v -0.4 1.6 -0.6
v -0.4 2.2 -0.6
v -0.4 2.3 -0.6
v 0.3 0.7 -0.5
v 0.3 1 -0.5
v 0.2 0.7 -0.5
v 0.2 1 -0.5
v -0.3 0.7 -0.5
v -0.3 1 -0.5
v -0.4 0.7 -0.5
v -0.4 1 -0.5
v 0.3 0.7 -0.4
v 0.3 1 -0.4
v 0.2 0.7 -0.4
v 0.2 1 -0.4
v -0.3 0.7 -0.4
v -0.3 1 -0.4
v -0.4 0.7 -0.4
v -0.4 1 -0.4
v 0.3 1 -0.3
v 0.3 1.4 -0.3
v 0.3 1.6 -0.3
v 0.3 2.2 -0.3
v 0.3 2.3 -0.3
v 0.2 0.7 -0.3
v 0.2 1 -0.3
v 0.2 1.2 -0.3
v 0.2 1.4 -0.3
v 0.2 1.5 -0.3
v 0.2 1.6 -0.3
v 0.2 2.2 -0.3
v 0.2 2.3 -0.3
v -0.3 0.7 -0.3
v -0.3 1 -0.3
v -0.3 1.2 -0.3
v -0.3 1.4 -0.3
v -0.3 1.5 -0.3
v -0.3 1.6 -0.3
v -0.3 2.2 -0.3
v -0.3 2.3 -0.3
v -0.4 1 -0.3
v -0.4 1.4 -0.3
v -0.4 1.6 -0.3
v -0.4 2.2 -0.3
v -0.4 2.3 -0.3
v 0.3 1.6 -0.2
v 0.3 1.7 -0.2
v 0.3 2.1 -0.2
v 0.3 2.2 -0.2
v 0.2 1 -0.2
v 0.2 1.2 -0.2
v 0.2 1.5 -0.2
v 0.2 1.6 -0.2
v 0.2 1.7 -0.2
v 0.2 2.1 -0.2
v 0.2 2.2 -0.2
v 0.1 1.1 -0.2
v 0.1 1.2 -0.2
v 0.1 1.4 -0.2
v 0.1 1.5 -0.2
v -0.2 1.1 -0.2
v -0.2 1.2 -0.2
v -0.2 1.4 -0.2
v -0.2 1.5 -0.2
v -0.3 1 -0.2
v -0.3 1.2 -0.2
v -0.3 1.5 -0.2
v -0.3 1.6 -0.2
v -0.3 1.7 -0.2
v -0.3 2.1 -0.2
v -0.3 2.2 -0.2
v -0.4 1.6 -0.2
v -0.4 1.7 -0.2
v -0.4 2.1 -0.2
v -0.4 2.2 -0.2
v 0.3 1.7 -0.1
v 0.3 2.1 -0.1
v 0.2 1.6 -0.1
v 0.2 1.7 -0.1
v 0.2 2.1 -0.1
v 0.2 2.2 -0.1
v -0.3 1.6 -0.1
v -0.3 1.7 -0.1
v -0.3 2.1 -0.1
v -0.3 2.2 -0.1
v -0.4 1.7 -0.1
v -0.4 2.1 -0.1
v 0.2 0.7 -0.6
v -0.3 0.7 -0.6
v 0.3 0.7 -0.5
v 0.2 0.7 -0.5
v -0.3 0.7 -0.5
v -0.4 0.7 -0.5
v 0.3 0.7 -0.4
v 0.2 0.7 -0.4
v -0.3 0.7 -0.4
v -0.4 0.7 -0.4
v 0.2 0.7 -0.3
v -0.3 0.7 -0.3
v 0.2 1 -0.7
v -0.3 1 -0.7
v 0.3 1 -0.6
v 0.2 1 -0.6
v -0.3 1 -0.6
v -0.4 1 -0.6
v 0.3 1 -0.5
v 0.2 1 -0.5
v -0.3 1 -0.5
v -0.4 1 -0.5
v 0.3 1 -0.4
v 0.2 1 -0.4
v -0.3 1 -0.4
v -0.4 1 -0.4
v 0.3 1 -0.3
v 0.2 1 -0.3
v -0.3 1 -0.3
v -0.4 1 -0.3
v 0.2 1 -0.2
v -0.3 1 -0.2
v 0.2 1.6 -0.8
v -0.3 1.6 -0.8
v 0.3 1.6 -0.7
v 0.2 1.6 -0.7
v -0.3 1.6 -0.7
v -0.4 1.6 -0.7
v 0.3 1.6 -0.6
v 0.2 1.6 -0.6
v -0.3 1.6 -0.6
v -0.4 1.6 -0.6
v 0.3 1.6 -0.3
v 0.2 1.6 -0.3
v -0.3 1.6 -0.3
v -0.4 1.6 -0.3
v 0.3 1.6 -0.2
v 0.2 1.6 -0.2
v -0.3 1.6 -0.2
v -0.4 1.6 -0.2
v 0.2 1.6 -0.1
v -0.3 1.6 -0.1
v 0.3 1.7 -0.8
v 0.2 1.7 -0.8
v -0.3 1.7 -0.8
v -0.4 1.7 -0.8
v 0.3 1.7 -0.7
v 0.2 1.7 -0.7
v -0.3 1.7 -0.7
v -0.4 1.7 -0.7
v 0.3 1.7 -0.2
v 0.2 1.7 -0.2
v -0.3 1.7 -0.2
v -0.4 1.7 -0.2
v 0.3 1.7 -0.1
v 0.2 1.7 -0.1
v -0.3 1.7 -0.1
v -0.4 1.7 -0.1
v 0.2 2.1 -0.8
v -0.3 2.1 -0.8
v 0.2 2.1 -0.7
v -0.3 2.1 -0.7
v 0.2 1.7 -0.8
v -0.3 1.7 -0.8
v 0.2 1.7 -0.7
v -0.3 1.7 -0.7
v 0.3 2.1 -0.8
v 0.2 2.1 -0.8
v -0.3 2.1 -0.8
v -0.4 2.1 -0.8
v 0.3 2.1 -0.7
v 0.2 2.1 -0.7
v -0.3 2.1 -0.7
v -0.4 2.1 -0.7
v 0.3 2.1 -0.2
v 0.2 2.1 -0.2
v -0.3 2.1 -0.2
v -0.4 2.1 -0.2
v 0.3 2.1 -0.1
v 0.2 2.1 -0.1
v -0.3 2.1 -0.1
v -0.4 2.1 -0.1
v 0.2 2.2 -0.8
v -0.3 2.2 -0.8
v 0.3 2.2 -0.7
v 0.2 2.2 -0.7
v -0.3 2.2 -0.7
v -0.4 2.2 -0.7
v 0.3 2.2 -0.6
v 0.2 2.2 -0.6
v -0.3 2.2 -0.6
v -0.4 2.2 -0.6
v 0.3 2.2 -0.3
v 0.2 2.2 -0.3
v -0.3 2.2 -0.3
v -0.4 2.2 -0.3
v 0.3 2.2 -0.2
v 0.2 2.2 -0.2
v -0.3 2.2 -0.2
v -0.4 2.2 -0.2
v 0.2 2.2 -0.1
v -0.3 2.2 -0.1
v 0.3 2.3 -0.6
v 0.2 2.3 -0.6
v -0.3 2.3 -0.6
v -0.4 2.3 -0.6
v 0.3 2.3 -0.3
v 0.2 2.3 -0.3
v -0.3 2.3 -0.3
v -0.4 2.3 -0.3

# faces
f 4/6/1 2/6/1 1/6/1
f 5/6/1 2/6/1 4/6/1
f 7/7/1 4/7/1 3/7/1
f 7/7/1 6/7/1 5/7/1
f 7/7/1 5/7/1 4/7/1
f 8/7/1 6/7/1 7/7/1
f 10/7/1 7/7/1 3/7/1
f 11/1/1 8/1/1 7/1/1
f 11/7/1 7/7/1 10/7/1
f 12/1/1 8/1/1 11/1/1
f 15/4/1 12/4/1 11/4/1
f 15/4/1 13/4/1 12/4/1
f 15/4/1 11/4/1 10/4/1
f 15/4/1 10/4/1 9/4/1
f 16/4/1 13/4/1 15/4/1
f 18/4/1 15/4/1 14/4/1
f 18/4/1 17/4/1 16/4/1
f 18/4/1 16/4/1 15/4/1
f 19/4/1 17/4/1 18/4/1
f 20/4/1 17/4/1 19/4/1
f 21/4/1 17/4/1 20/4/1
f 22/4/1 20/4/1 19/4/1
f 23/4/1 20/4/1 22/4/1
f 24/4/1 20/4/1 23/4/1
f 25/4/1 20/4/1 24/4/1
f 26/4/1 24/4/1 23/4/1
f 27/4/1 24/4/1 26/4/1
f 33/6/1 29/6/1 28/6/1
f 34/6/1 29/6/1 33/6/1
f 35/6/1 31/6/1 30/6/1
f 36/6/1 31/6/1 35/6/1
f 38/7/1 37/7/1 36/7/1
f 39/7/1 37/7/1 38/7/1
f 40/2/1 39/2/1 38/2/1
f 41/2/1 39/2/1 40/2/1
f 42/2/1 39/2/1 41/2/1
f 44/7/1 33/7/1 32/7/1
f 45/7/1 33/7/1 44/7/1
f 46/1/1 42/1/1 41/1/1
f 47/1/1 42/1/1 46/1/1
f 49/4/1 44/4/1 43/4/1
f 50/4/1 44/4/1 49/4/1
f 51/4/1 48/4/1 47/4/1
f 52/4/1 48/4/1 51/4/1
f 57/4/1 54/4/1 53/4/1
f 58/4/1 54/4/1 57/4/1
f 59/4/1 56/4/1 55/4/1
f 60/4/1 56/4/1 59/4/1
f 63/4/1 62/4/1 61/4/1
f 64/4/1 63/4/1 61/4/1
f 65/4/1 64/4/1 61/4/1
f 66/4/1 64/4/1 65/4/1
f 69/4/1 68/4/1 67/4/1
f 70/4/1 68/4/1 69/4/1
f 71/4/2 72/4/2 73/4/2
f 71/4/2 73/4/2 74/4/2
f 71/4/2 74/4/2 75/4/2
f 75/4/2 74/4/2 76/4/2
f 77/4/2 78/4/2 79/4/2
f 79/4/2 78/4/2 80/4/2
f 81/6/2 82/6/2 86/6/2
f 86/6/2 82/6/2 87/6/2
f 83/6/2 84/6/2 88/6/2
f 88/6/2 84/6/2 89/6/2
f 89/7/2 90/7/2 91/7/2
f 91/7/2 90/7/2 92/7/2
f 91/2/2 92/2/2 93/2/2
f 93/2/2 92/2/2 94/2/2
f 94/2/2 92/2/2 95/2/2
f 85/7/2 86/7/2 97/7/2
f 97/7/2 86/7/2 98/7/2
f 94/1/2 95/1/2 99/1/2
f 99/1/2 95/1/2 100/1/2
f 96/4/2 97/4/2 102/4/2
f 102/4/2 97/4/2 103/4/2
f 100/4/2 101/4/2 104/4/2
f 104/4/2 101/4/2 105/4/2
f 106/4/2 107/4/2 110/4/2
f 110/4/2 107/4/2 111/4/2
f 108/4/2 109/4/2 112/4/2
f 112/4/2 109/4/2 113/4/2
f 114/6/2 115/6/2 117/6/2
f 117/6/2 115/6/2 118/6/2
f 116/7/2 117/7/2 120/7/2
f 118/7/2 119/7/2 120/7/2
f 117/7/2 118/7/2 120/7/2
f 120/7/2 119/7/2 121/7/2
f 116/7/2 120/7/2 123/7/2
f 120/1/2 121/1/2 124/1/2
f 123/7/2 120/7/2 124/7/2
f 124/1/2 121/1/2 125/1/2
f 124/4/2 125/4/2 128/4/2
f 125/4/2 126/4/2 128/4/2
f 123/4/2 124/4/2 128/4/2
f 122/4/2 123/4/2 128/4/2
f 128/4/2 126/4/2 129/4/2
f 127/4/2 128/4/2 131/4/2
f 129/4/2 130/4/2 131/4/2
f 128/4/2 129/4/2 131/4/2
f 131/4/2 130/4/2 132/4/2
f 132/4/2 130/4/2 133/4/2
f 133/4/2 130/4/2 134/4/2
f 132/4/2 133/4/2 135/4/2
f 135/4/2 133/4/2 136/4/2
f 136/4/2 133/4/2 137/4/2
f 137/4/2 133/4/2 138/4/2
f 136/4/2 137/4/2 139/4/2
f 139/4/2 137/4/2 140/4/2
f 144/4/3 142/4/3 141/4/3
f 145/4/3 142/4/3 144/4/3
f 147/4/3 144/4/3 143/4/3
f 148/4/3 144/4/3 147/4/3
f 149/4/3 146/4/3 145/4/3
f 150/4/3 146/4/3 149/4/3
f 151/4/3 149/4/3 148/4/3
f 152/4/3 149/4/3 151/4/3
f 158/4/3 154/4/3 153/4/3
f 159/4/3 154/4/3 158/4/3
f 162/4/3 156/4/3 155/4/3
f 163/4/3 156/4/3 162/4/3
f 164/3/3 161/3/3 160/3/3
f 164/5/3 160/5/3 159/5/3
f 165/5/3 162/5/3 161/5/3
f 165/3/3 161/3/3 164/3/3
f 166/5/3 164/5/3 159/5/3
f 166/5/3 165/5/3 164/5/3
f 167/5/3 162/5/3 165/5/3
f 167/5/3 165/5/3 166/5/3
f 168/7/3 158/7/3 157/7/3
f 169/7/3 158/7/3 168/7/3
f 170/5/3 166/5/3 159/5/3
f 171/3/3 167/3/3 166/3/3
f 171/5/3 166/5/3 170/5/3
f 172/5/3 162/5/3 167/5/3
f 172/3/3 167/3/3 171/3/3
f 173/5/3 162/5/3 172/5/3
f 175/4/3 170/4/3 169/4/3
f 176/4/3 170/4/3 175/4/3
f 177/4/3 174/4/3 173/4/3
f 178/4/3 174/4/3 177/4/3
f 184/7/3 180/7/3 179/7/3
f 185/7/3 180/7/3 184/7/3
f 186/4/3 182/4/3 181/4/3
f 187/4/3 182/4/3 186/4/3
f 188/6/3 184/6/3 183/6/3
f 189/6/3 184/6/3 188/6/3
f 193/7/3 190/7/3 189/7/3
f 194/7/3 190/7/3 193/7/3
f 195/4/3 192/4/3 191/4/3
f 196/4/3 192/4/3 195/4/3
f 199/6/3 198/6/3 197/6/3
f 200/6/3 198/6/3 199/6/3
f 203/6/3 202/6/3 201/6/3
f 204/6/3 202/6/3 203/6/3
f 205/6/4 206/6/4 207/6/4
f 207/6/4 206/6/4 208/6/4
f 209/6/4 210/6/4 211/6/4
f 211/6/4 210/6/4 212/6/4
f 213/7/4 214/7/4 219/7/4
f 219/7/4 214/7/4 220/7/4
f 214/1/4 215/1/4 221/1/4
f 220/7/4 214/7/4 221/7/4
f 221/1/4 215/1/4 222/1/4
f 222/1/4 215/1/4 223/1/4
f 216/4/4 217/4/4 224/4/4
f 224/4/4 217/4/4 225/4/4
f 218/6/4 219/6/4 226/6/4
f 226/6/4 219/6/4 227/6/4
f 227/7/4 228/7/4 234/7/4
f 228/7/4 229/7/4 234/7/4
f 230/1/4 231/1/4 235/1/4
f 234/7/4 229/7/4 235/7/4
f 229/1/4 230/1/4 235/1/4
f 235/1/4 231/1/4 236/1/4
f 232/4/4 233/4/4 237/4/4
f 237/4/4 233/4/4 238/4/4
f 239/4/4 240/4/4 246/4/4
f 246/4/4 240/4/4 247/4/4
f 241/4/4 242/4/4 248/4/4
f 248/4/4 242/4/4 249/4/4
f 243/7/4 244/7/4 250/7/4
f 244/2/4 245/2/4 251/2/4
f 250/7/4 244/7/4 251/7/4
f 251/2/4 245/2/4 252/2/4
f 245/1/4 246/1/4 253/1/4
f 252/2/4 245/2/4 253/2/4
f 243/7/4 250/7/4 254/7/4
f 251/2/4 252/2/4 254/2/4
f 250/2/4 251/2/4 254/2/4
f 254/2/4 252/2/4 255/2/4
f 252/1/4 253/1/4 256/1/4
f 255/2/4 252/2/4 256/2/4
f 253/1/4 246/1/4 257/1/4
f 256/1/4 253/1/4 257/1/4
f 254/7/4 255/7/4 258/7/4
f 243/7/4 254/7/4 258/7/4
f 255/2/4 256/2/4 259/2/4
f 258/7/4 255/7/4 259/7/4
f 256/2/4 257/2/4 259/2/4
f 257/1/4 246/1/4 260/1/4
f 259/2/4 257/2/4 260/2/4
f 260/1/4 246/1/4 261/1/4
f 261/4/4 262/4/4 265/4/4
f 265/4/4 262/4/4 266/4/4
f 263/4/4 264/4/4 267/4/4
f 267/4/4 264/4/4 268/4/4
f 269/4/4 270/4/4 272/4/4
f 272/4/4 270/4/4 273/4/4
f 271/4/4 272/4/4 275/4/4
f 273/4/4 274/4/4 275/4/4
f 272/4/4 273/4/4 275/4/4
f 275/4/4 274/4/4 276/4/4
f 276/4/4 274/4/4 277/4/4
f 277/4/4 274/4/4 278/4/4
f 276/4/4 277/4/4 279/4/4
f 279/4/4 277/4/4 280/4/4
f 284/6/5 282/6/5 281/6/5
f 285/6/5 282/6/5 284/6/5
f 287/6/5 284/6/5 283/6/5
f 287/6/5 286/6/5 285/6/5
f 287/6/5 285/6/5 284/6/5
f 288/6/5 286/6/5 287/6/5
f 289/6/5 286/6/5 288/6/5
f 290/6/5 286/6/5 289/6/5
f 291/6/5 289/6/5 288/6/5
f 292/6/5 289/6/5 291/6/5
f 296/7/5 294/7/5 293/7/5
f 297/7/5 294/7/5 296/7/5
f 299/7/5 296/7/5 295/7/5
f 300/7/5 296/7/5 299/7/5
f 301/7/5 298/7/5 297/7/5
f 302/7/5 298/7/5 301/7/5
f 307/7/5 304/7/5 303/7/5
f 308/7/5 304/7/5 307/7/5
f 309/7/5 306/7/5 305/7/5
f 310/7/5 306/7/5 309/7/5
f 311/7/5 309/7/5 308/7/5
f 312/7/5 309/7/5 311/7/5
f 316/4/5 314/4/5 313/4/5
f 317/4/5 314/4/5 316/4/5
f 319/4/5 316/4/5 315/4/5
f 320/4/5 316/4/5 319/4/5
f 321/4/5 318/4/5 317/4/5
f 322/4/5 318/4/5 321/4/5
f 327/4/5 324/4/5 323/4/5
f 328/4/5 324/4/5 327/4/5
f 329/4/5 326/4/5 325/4/5
f 330/4/5 326/4/5 329/4/5
f 331/4/5 329/4/5 328/4/5
f 332/4/5 329/4/5 331/4/5
f 337/4/5 334/4/5 333/4/5
f 338/4/5 334/4/5 337/4/5
f 339/4/5 336/4/5 335/4/5
f 340/4/5 336/4/5 339/4/5
f 345/4/5 342/4/5 341/4/5
f 346/4/5 342/4/5 345/4/5
f 347/4/5 344/4/5 343/4/5
f 348/4/5 344/4/5 347/4/5
f 351/4/5 350/4/5 349/4/5
f 352/4/5 350/4/5 351/4/5
f 353/4/6 354/4/6 355/4/6
f 355/4/6 354/4/6 356/4/6
f 357/4/6 358/4/6 361/4/6
f 361/4/6 358/4/6 362/4/6
f 359/4/6 360/4/6 363/4/6
f 363/4/6 360/4/6 364/4/6
f 365/4/6 366/4/6 369/4/6
f 369/4/6 366/4/6 370/4/6
f 367/4/6 368/4/6 371/4/6
f 371/4/6 368/4/6 372/4/6
f 373/4/6 374/4/6 376/4/6
f 376/4/6 374/4/6 377/4/6
f 375/4/6 376/4/6 379/4/6
f 377/4/6 378/4/6 379/4/6
f 376/4/6 377/4/6 379/4/6
f 379/4/6 378/4/6 380/4/6
f 380/4/6 378/4/6 381/4/6
f 381/4/6 378/4/6 382/4/6
f 380/4/6 381/4/6 384/4/6
f 384/4/6 381/4/6 385/4/6
f 383/4/6 384/4/6 387/4/6
f 385/4/6 386/4/6 387/4/6
f 384/4/6 385/4/6 387/4/6
f 387/4/6 386/4/6 388/4/6
f 388/4/6 386/4/6 389/4/6
f 389/4/6 386/4/6 390/4/6
f 388/4/6 389/4/6 391/4/6
f 391/4/6 389/4/6 392/4/6
f 393/4/6 394/4/6 397/4/6
f 397/4/6 394/4/6 398/4/6
f 395/4/6 396/4/6 399/4/6
f 399/4/6 396/4/6 400/4/6
