# MagicaVoxel @ Ephtracy

# group
o 

# material
mtllib hunter-2.mtl
usemtl palette

# normals
vn -1 0 0
vn 1 0 0
vn 0 0 1
vn 0 0 -1
vn 0 -1 0
vn 0 1 0

# texcoords
vt 0.951172 0.5
vt 0.955078 0.5
vt 0.970703 0.5
vt 0.982422 0.5
vt 0.986328 0.5

# verts
v -0.5 1.3 0
v -0.5 1.3 -0.2
v -0.5 1.5 0
v -0.5 1.5 -0.2
v -0.5 1.6 0
v -0.5 1.6 -0.2
v -0.5 2.3 0
v -0.5 2.3 -0.2
v -0.4 1.3 0
v -0.4 1.3 -0.2
v -0.4 1.4 0
v -0.4 1.4 -0.2
v -0.3 1.4 0
v -0.3 1.4 -0.2
v -0.3 1.5 0
v -0.3 1.5 -0.2
v -0.3 1.7 0
v -0.3 1.7 -0.2
v -0.3 1.9 0
v -0.3 1.9 -0.1
v -0.3 1.9 -0.2
v -0.3 2 0
v -0.3 2 -0.1
v -0.3 2 -0.2
v -0.3 2.1 0
v -0.3 2.1 -0.1
v -0.3 2.2 0
v -0.3 2.2 -0.1
v -0.3 2.3 0
v -0.3 2.3 -0.1
v -0.3 2.3 -0.2
v -0.5 1.3 0
v -0.5 1.5 0
v -0.5 1.6 0
v -0.5 2.3 0
v -0.4 1.3 0
v -0.4 1.4 0
v -0.4 1.6 0
v -0.4 1.7 0
v -0.4 1.9 0
v -0.4 2 0
v -0.4 2.1 0
v -0.4 2.2 0
v -0.4 2.3 0
v -0.3 1.4 0
v -0.3 1.5 0
v -0.3 1.7 0
v -0.3 1.9 0
v -0.3 2 0
v -0.3 2.1 0
v -0.3 2.2 0
v -0.3 2.3 0
v -0.5 1.3 -0.2
v -0.5 1.5 -0.2
v -0.5 1.6 -0.2
v -0.5 2.3 -0.2
v -0.4 1.3 -0.2
v -0.4 1.4 -0.2
v -0.4 1.6 -0.2
v -0.4 1.7 -0.2
v -0.4 1.9 -0.2
v -0.4 2 -0.2
v -0.4 2.3 -0.2
v -0.3 1.4 -0.2
v -0.3 1.5 -0.2
v -0.3 1.7 -0.2
v -0.3 1.9 -0.2
v -0.3 2 -0.2
v -0.3 2.3 -0.2
v -0.5 1.3 0
v -0.4 1.3 0
v -0.5 1.3 -0.2
v -0.4 1.3 -0.2
v -0.4 1.4 0
v -0.3 1.4 0
v -0.4 1.4 -0.2
v -0.3 1.4 -0.2
v -0.5 2.3 0
v -0.4 2.3 0
v -0.3 2.3 0
v -0.4 2.3 -0.1
v -0.3 2.3 -0.1
v -0.5 2.3 -0.2
v -0.4 2.3 -0.2
v -0.3 2.3 -0.2

# faces
f 3/3/1 2/3/1 1/3/1
f 4/3/1 2/3/1 3/3/1
f 5/1/1 4/1/1 3/1/1
f 6/1/1 4/1/1 5/1/1
f 7/4/1 6/4/1 5/4/1
f 8/4/1 6/4/1 7/4/1
f 9/3/2 10/3/2 11/3/2
f 11/3/2 10/3/2 12/3/2
f 13/3/2 14/3/2 15/3/2
f 15/3/2 14/3/2 16/3/2
f 15/1/2 16/1/2 17/1/2
f 17/1/2 16/1/2 18/1/2
f 17/4/2 18/4/2 19/4/2
f 19/4/2 18/4/2 20/4/2
f 20/4/2 18/4/2 21/4/2
f 19/5/2 20/5/2 22/5/2
f 20/2/2 21/2/2 23/2/2
f 22/5/2 20/5/2 23/5/2
f 23/2/2 21/2/2 24/2/2
f 22/2/2 23/2/2 25/2/2
f 23/5/2 24/5/2 26/5/2
f 25/2/2 23/2/2 26/2/2
f 25/5/2 26/5/2 27/5/2
f 26/5/2 24/5/2 28/5/2
f 27/5/2 26/5/2 28/5/2
f 27/2/2 28/2/2 29/2/2
f 28/5/2 24/5/2 30/5/2
f 29/2/2 28/2/2 30/2/2
f 30/5/2 24/5/2 31/5/2
f 36/3/3 33/3/3 32/3/3
f 37/3/3 33/3/3 36/3/3
f 38/4/3 35/4/3 34/4/3
f 38/1/3 34/1/3 33/1/3
f 39/4/3 35/4/3 38/4/3
f 40/4/3 35/4/3 39/4/3
f 41/4/3 35/4/3 40/4/3
f 42/4/3 35/4/3 41/4/3
f 43/4/3 35/4/3 42/4/3
f 44/4/3 35/4/3 43/4/3
f 45/3/3 33/3/3 37/3/3
f 46/1/3 38/1/3 33/1/3
f 46/3/3 33/3/3 45/3/3
f 46/1/3 39/1/3 38/1/3
f 47/4/3 40/4/3 39/4/3
f 47/1/3 39/1/3 46/1/3
f 48/5/3 41/5/3 40/5/3
f 48/4/3 40/4/3 47/4/3
f 49/2/3 42/2/3 41/2/3
f 49/5/3 41/5/3 48/5/3
f 50/5/3 43/5/3 42/5/3
f 50/2/3 42/2/3 49/2/3
f 51/2/3 44/2/3 43/2/3
f 51/5/3 43/5/3 50/5/3
f 52/2/3 44/2/3 51/2/3
f 53/3/4 54/3/4 57/3/4
f 57/3/4 54/3/4 58/3/4
f 55/4/4 56/4/4 59/4/4
f 54/1/4 55/1/4 59/1/4
f 59/4/4 56/4/4 60/4/4
f 60/4/4 56/4/4 61/4/4
f 61/4/4 56/4/4 62/4/4
f 62/4/4 56/4/4 63/4/4
f 58/3/4 54/3/4 64/3/4
f 54/1/4 59/1/4 65/1/4
f 64/3/4 54/3/4 65/3/4
f 59/1/4 60/1/4 65/1/4
f 60/4/4 61/4/4 66/4/4
f 65/1/4 60/1/4 66/1/4
f 61/2/4 62/2/4 67/2/4
f 66/4/4 61/4/4 67/4/4
f 62/5/4 63/5/4 68/5/4
f 67/2/4 62/2/4 68/2/4
f 68/5/4 63/5/4 69/5/4
f 72/3/5 71/3/5 70/3/5
f 73/3/5 71/3/5 72/3/5
f 76/3/5 75/3/5 74/3/5
f 77/3/5 75/3/5 76/3/5
f 78/4/6 79/4/6 81/4/6
f 79/2/6 80/2/6 81/2/6
f 81/2/6 80/2/6 82/2/6
f 78/4/6 81/4/6 83/4/6
f 81/5/6 82/5/6 84/5/6
f 83/4/6 81/4/6 84/4/6
f 84/5/6 82/5/6 85/5/6
