# MagicaVoxel @ Ephtracy

# group
o 

# material
mtllib hunter-3.mtl
usemtl palette

# normals
vn -1 0 0
vn 1 0 0
vn 0 0 1
vn 0 0 -1
vn 0 -1 0
vn 0 1 0

# texcoords
vt 0.900391 0.5
vt 0.951172 0.5
vt 0.955078 0.5
vt 0.970703 0.5
vt 0.982422 0.5
vt 0.986328 0.5

# verts
v 0.3 1.4 0
v 0.3 1.4 -0.2
v 0.3 1.5 0
v 0.3 1.5 -0.2
v 0.3 1.7 0
v 0.3 1.7 -0.2
v 0.3 1.9 0
v 0.3 1.9 -0.2
v 0.3 2 0
v 0.3 2 -0.2
v 0.3 2.1 0
v 0.3 2.1 -0.1
v 0.3 2.2 0
v 0.3 2.2 -0.1
v 0.3 2.2 -0.2
v 0.3 2.3 0
v 0.3 2.3 -0.2
v 0.4 1.3 0
v 0.4 1.3 -0.2
v 0.4 1.4 0
v 0.4 1.4 -0.2
v 0.5 1.3 0
v 0.5 1.3 -0.2
v 0.5 1.5 0
v 0.5 1.5 -0.2
v 0.5 1.6 0
v 0.5 1.6 -0.2
v 0.5 2.3 0
v 0.5 2.3 -0.2
v 0.3 1.4 0
v 0.3 1.5 0
v 0.3 1.7 0
v 0.3 1.9 0
v 0.3 2 0
v 0.3 2.1 0
v 0.3 2.2 0
v 0.3 2.3 0
v 0.4 1.3 0
v 0.4 1.4 0
v 0.4 1.6 0
v 0.4 1.7 0
v 0.4 1.9 0
v 0.4 2 0
v 0.4 2.1 0
v 0.4 2.2 0
v 0.4 2.3 0
v 0.5 1.3 0
v 0.5 1.5 0
v 0.5 1.6 0
v 0.5 2.3 0
v 0.3 1.4 -0.2
v 0.3 1.5 -0.2
v 0.3 1.7 -0.2
v 0.3 1.9 -0.2
v 0.3 2 -0.2
v 0.3 2.2 -0.2
v 0.3 2.3 -0.2
v 0.4 1.3 -0.2
v 0.4 1.4 -0.2
v 0.4 1.6 -0.2
v 0.4 1.7 -0.2
v 0.4 1.9 -0.2
v 0.4 2 -0.2
v 0.4 2.2 -0.2
v 0.4 2.3 -0.2
v 0.5 1.3 -0.2
v 0.5 1.5 -0.2
v 0.5 1.6 -0.2
v 0.5 2.3 -0.2
v 0.4 1.3 0
v 0.5 1.3 0
v 0.4 1.3 -0.2
v 0.5 1.3 -0.2
v 0.3 1.4 0
v 0.4 1.4 0
v 0.3 1.4 -0.2
v 0.4 1.4 -0.2
v 0.3 2.3 0
v 0.4 2.3 0
v 0.5 2.3 0
v 0.3 2.3 -0.2
v 0.4 2.3 -0.2
v 0.5 2.3 -0.2

# faces
f 3/4/1 2/4/1 1/4/1
f 4/4/1 2/4/1 3/4/1
f 5/2/1 4/2/1 3/2/1
f 6/2/1 4/2/1 5/2/1
f 7/5/1 6/5/1 5/5/1
f 8/5/1 6/5/1 7/5/1
f 9/3/1 8/3/1 7/3/1
f 10/3/1 8/3/1 9/3/1
f 11/6/1 10/6/1 9/6/1
f 12/6/1 10/6/1 11/6/1
f 13/3/1 12/3/1 11/3/1
f 14/6/1 10/6/1 12/6/1
f 14/3/1 12/3/1 13/3/1
f 15/6/1 10/6/1 14/6/1
f 16/1/1 14/1/1 13/1/1
f 16/1/1 15/1/1 14/1/1
f 17/1/1 15/1/1 16/1/1
f 20/4/1 19/4/1 18/4/1
f 21/4/1 19/4/1 20/4/1
f 22/4/2 23/4/2 24/4/2
f 24/4/2 23/4/2 25/4/2
f 24/2/2 25/2/2 26/2/2
f 26/2/2 25/2/2 27/2/2
f 26/5/2 27/5/2 28/5/2
f 28/5/2 27/5/2 29/5/2
f 39/4/3 31/4/3 30/4/3
f 40/2/3 32/2/3 31/2/3
f 41/5/3 33/5/3 32/5/3
f 41/2/3 32/2/3 40/2/3
f 42/3/3 34/3/3 33/3/3
f 42/5/3 33/5/3 41/5/3
f 43/6/3 35/6/3 34/6/3
f 43/3/3 34/3/3 42/3/3
f 44/3/3 36/3/3 35/3/3
f 44/6/3 35/6/3 43/6/3
f 45/1/3 37/1/3 36/1/3
f 45/3/3 36/3/3 44/3/3
f 46/1/3 37/1/3 45/1/3
f 47/4/3 39/4/3 38/4/3
f 48/2/3 40/2/3 31/2/3
f 48/4/3 39/4/3 47/4/3
f 48/4/3 31/4/3 39/4/3
f 49/5/3 44/5/3 43/5/3
f 49/2/3 40/2/3 48/2/3
f 49/5/3 41/5/3 40/5/3
f 49/5/3 45/5/3 44/5/3
f 49/5/3 46/5/3 45/5/3
f 49/5/3 42/5/3 41/5/3
f 49/5/3 43/5/3 42/5/3
f 50/5/3 46/5/3 49/5/3
f 51/4/4 52/4/4 59/4/4
f 52/2/4 53/2/4 60/2/4
f 53/5/4 54/5/4 61/5/4
f 60/2/4 53/2/4 61/2/4
f 54/3/4 55/3/4 62/3/4
f 61/5/4 54/5/4 62/5/4
f 55/6/4 56/6/4 63/6/4
f 62/3/4 55/3/4 63/3/4
f 56/1/4 57/1/4 64/1/4
f 63/6/4 56/6/4 64/6/4
f 64/1/4 57/1/4 65/1/4
f 58/4/4 59/4/4 66/4/4
f 52/2/4 60/2/4 67/2/4
f 66/4/4 59/4/4 67/4/4
f 59/4/4 52/4/4 67/4/4
f 62/5/4 63/5/4 68/5/4
f 67/2/4 60/2/4 68/2/4
f 60/5/4 61/5/4 68/5/4
f 63/5/4 64/5/4 68/5/4
f 64/5/4 65/5/4 68/5/4
f 61/5/4 62/5/4 68/5/4
f 68/5/4 65/5/4 69/5/4
f 72/4/5 71/4/5 70/4/5
f 73/4/5 71/4/5 72/4/5
f 76/4/5 75/4/5 74/4/5
f 77/4/5 75/4/5 76/4/5
f 78/1/6 79/1/6 81/1/6
f 79/5/6 80/5/6 82/5/6
f 81/1/6 79/1/6 82/1/6
f 82/5/6 80/5/6 83/5/6
