# MagicaVoxel @ Ephtracy

# group
o 

# material
mtllib sega.mtl
usemtl palette

# normals
vn -1 0 0
vn 1 0 0
vn 0 0 1
vn 0 0 -1
vn 0 -1 0
vn 0 1 0

# texcoords
vt 0.939453 0.5
vt 0.943359 0.5
vt 0.947266 0.5
vt 0.951172 0.5
vt 0.958984 0.5
vt 0.970703 0.5
vt 0.974609 0.5
vt 0.978516 0.5
vt 0.982422 0.5
vt 0.986328 0.5

# verts
v -0.7 0 1.1
v -0.7 0 0.9
v -0.7 0.1 1.1
v -0.7 0.1 0.9
v -0.6 0 0.9
v -0.6 0 0.8
v -0.6 0.1 0.9
v -0.6 0.1 0.8
v -0.4 0 0.8
v -0.4 0 0.6
v -0.4 0.1 0.8
v -0.4 0.1 0.6
v -0.3 0 1.1
v -0.3 0 1
v -0.3 0 0.6
v -0.3 0 0.5
v -0.3 0 0.3
v -0.3 0 -0.5
v -0.3 0.1 1.1
v -0.3 0.1 1
v -0.3 0.1 0.6
v -0.3 0.1 0.5
v -0.3 0.2 0.3
v -0.3 0.2 -0.5
v -0.2 0 0.5
v -0.2 0 0.4
v -0.2 0.1 0.5
v -0.2 0.1 0.4
v -0.1 0 -0.5
v -0.1 0 -0.8
v -0.1 0.1 -0.5
v -0.1 0.1 -0.8
v 0 0 0.4
v 0 0 0.3
v 0 0 -0.8
v 0 0 -0.9
v 0 0.1 0.4
v 0 0.1 0.3
v 0 0.1 -0.8
v 0 0.1 -0.9
v 0.1 0 1.1
v 0.1 0 0.9
v 0.1 0 -0.9
v 0.1 0 -1.2
v 0.1 0.1 1.1
v 0.1 0.1 0.9
v 0.1 0.1 -0.9
v 0.1 0.1 -1.2
v 0.2 0 0.9
v 0.2 0 0.8
v 0.2 0 0.5
v 0.2 0 0.3
v 0.2 0.1 0.9
v 0.2 0.1 0.8
v 0.2 0.1 0.5
v 0.2 0.1 0.3
v 0.3 0 0.6
v 0.3 0 0.5
v 0.3 0.1 0.6
v 0.3 0.1 0.5
v 0.4 0 0.8
v 0.4 0 0.6
v 0.4 0.1 0.8
v 0.4 0.1 0.6
v 0.4 0.1 -0.1
v 0.4 0.1 -0.2
v 0.4 0.2 -0.1
v 0.4 0.2 -0.2
v 0.5 0 1.1
v 0.5 0 1
v 0.5 0.1 1.1
v 0.5 0.1 1
v -0.4 0 1.1
v -0.4 0 1
v -0.4 0.1 1.1
v -0.4 0.1 1
v -0.3 0 0.8
v -0.3 0 0.6
v -0.3 0.1 0.8
v -0.3 0.1 0.6
v -0.2 0 0.6
v -0.2 0 0.5
v -0.2 0.1 0.6
v -0.2 0.1 0.5
v -0.1 0 0.9
v -0.1 0 0.8
v -0.1 0.1 0.9
v -0.1 0.1 0.8
v -0.1 0.1 -0.1
v -0.1 0.1 -0.2
v -0.1 0.2 -0.1
v -0.1 0.2 -0.2
v 0 0 1.1
v 0 0 1
v 0 0 0.9
v 0 0 0.5
v 0 0 0.4
v 0 0 -0.5
v 0 0 -0.7
v 0 0.1 1.1
v 0 0.1 1
v 0 0.1 0.9
v 0 0.1 0.5
v 0 0.1 0.4
v 0 0.1 -0.5
v 0 0.1 -0.7
v 0.1 0 0.4
v 0.1 0 0.3
v 0.1 0 -0.7
v 0.1 0 -0.8
v 0.1 0.1 0.4
v 0.1 0.1 0.3
v 0.1 0.1 -0.7
v 0.1 0.1 -0.8
v 0.2 0 -0.8
v 0.2 0 -1.2
v 0.2 0.1 -0.8
v 0.2 0.1 -1.2
v 0.3 0 0.5
v 0.3 0 0.3
v 0.3 0.1 0.5
v 0.3 0.1 0.3
v 0.4 0 1.1
v 0.4 0 1
v 0.4 0 0.6
v 0.4 0 0.5
v 0.4 0.1 1.1
v 0.4 0.1 1
v 0.4 0.1 0.6
v 0.4 0.1 0.5
v 0.5 0 0.8
v 0.5 0 0.6
v 0.5 0.1 0.8
v 0.5 0.1 0.6
v 0.6 0 0.3
v 0.6 0 -0.5
v 0.6 0.2 0.3
v 0.6 0.2 -0.5
v 0.7 0 0.9
v 0.7 0 0.8
v 0.7 0.1 0.9
v 0.7 0.1 0.8
v 0.8 0 1.1
v 0.8 0 1
v 0.8 0 0.9
v 0.8 0.1 1.1
v 0.8 0.1 1
v 0.8 0.1 0.9
v -0.7 0 1.1
v -0.7 0.1 1.1
v -0.4 0 1.1
v -0.4 0.1 1.1
v -0.3 0 1.1
v -0.3 0.1 1.1
v 0 0 1.1
v 0 0.1 1.1
v 0.1 0 1.1
v 0.1 0.1 1.1
v 0.4 0 1.1
v 0.4 0.1 1.1
v 0.5 0 1.1
v 0.5 0.1 1.1
v 0.8 0 1.1
v 0.8 0.1 1.1
v -0.4 0 1
v -0.4 0.1 1
v -0.3 0 1
v -0.3 0.1 1
v 0.4 0 1
v 0.4 0.1 1
v 0.5 0 1
v 0.5 0.1 1
v -0.3 0 0.6
v -0.3 0.1 0.6
v -0.2 0 0.6
v -0.2 0.1 0.6
v 0.3 0 0.6
v 0.3 0.1 0.6
v 0.4 0 0.6
v 0.4 0.1 0.6
v -0.2 0 0.5
v -0.2 0.1 0.5
v 0 0 0.5
v 0 0.1 0.5
v 0.2 0 0.5
v 0.2 0.1 0.5
v 0.3 0 0.5
v 0.3 0.1 0.5
v 0 0 0.4
v 0 0.1 0.4
v 0.1 0 0.4
v 0.1 0.1 0.4
v -0.3 0 0.3
v -0.3 0.2 0.3
v 0 0 0.3
v 0 0.1 0.3
v 0.1 0 0.3
v 0.1 0.1 0.3
v 0.2 0 0.3
v 0.2 0.1 0.3
v 0.3 0 0.3
v 0.3 0.1 0.3
v 0.6 0 0.3
v 0.6 0.2 0.3
v -0.1 0.1 -0.2
v -0.1 0.2 -0.2
v 0.4 0.1 -0.2
v 0.4 0.2 -0.2
v 0 0 -0.7
v 0 0.1 -0.7
v 0.1 0 -0.7
v 0.1 0.1 -0.7
v 0.1 0 -0.8
v 0.1 0.1 -0.8
v 0.2 0 -0.8
v 0.2 0.1 -0.8
v -0.7 0 0.9
v -0.7 0.1 0.9
v -0.6 0 0.9
v -0.6 0.1 0.9
v -0.1 0 0.9
v -0.1 0.1 0.9
v 0 0 0.9
v 0 0.1 0.9
v 0.1 0 0.9
v 0.1 0.1 0.9
v 0.2 0 0.9
v 0.2 0.1 0.9
v 0.7 0 0.9
v 0.7 0.1 0.9
v 0.8 0 0.9
v 0.8 0.1 0.9
v -0.6 0 0.8
v -0.6 0.1 0.8
v -0.4 0 0.8
v -0.4 0.1 0.8
v -0.3 0 0.8
v -0.3 0.1 0.8
v -0.1 0 0.8
v -0.1 0.1 0.8
v 0.2 0 0.8
v 0.2 0.1 0.8
v 0.4 0 0.8
v 0.4 0.1 0.8
v 0.5 0 0.8
v 0.5 0.1 0.8
v 0.7 0 0.8
v 0.7 0.1 0.8
v -0.4 0 0.6
v -0.4 0.1 0.6
v -0.3 0 0.6
v -0.3 0.1 0.6
v 0.4 0 0.6
v 0.4 0.1 0.6
v 0.5 0 0.6
v 0.5 0.1 0.6
v -0.3 0 0.5
v -0.3 0.1 0.5
v -0.2 0 0.5
v -0.2 0.1 0.5
v 0.3 0 0.5
v 0.3 0.1 0.5
v 0.4 0 0.5
v 0.4 0.1 0.5
v -0.2 0 0.4
v -0.2 0.1 0.4
v 0 0 0.4
v 0 0.1 0.4
v -0.1 0.1 -0.1
v -0.1 0.2 -0.1
v 0.4 0.1 -0.1
v 0.4 0.2 -0.1
v -0.3 0 -0.5
v -0.3 0.2 -0.5
v -0.1 0 -0.5
v -0.1 0.1 -0.5
v -0.1 0.2 -0.5
v 0 0 -0.5
v 0 0.1 -0.5
v 0.4 0.1 -0.5
v 0.4 0.2 -0.5
v 0.6 0 -0.5
v 0.6 0.2 -0.5
v -0.1 0 -0.8
v -0.1 0.1 -0.8
v 0 0 -0.8
v 0 0.1 -0.8
v 0 0 -0.9
v 0 0.1 -0.9
v 0.1 0 -0.9
v 0.1 0.1 -0.9
v 0.1 0 -1.2
v 0.1 0.1 -1.2
v 0.2 0 -1.2
v 0.2 0.1 -1.2
v -0.7 0 1.1
v -0.4 0 1.1
v -0.3 0 1.1
v 0 0 1.1
v 0.1 0 1.1
v 0.4 0 1.1
v 0.5 0 1.1
v 0.8 0 1.1
v -0.6 0 1
v -0.5 0 1
v -0.4 0 1
v -0.3 0 1
v -0.2 0 1
v -0.1 0 1
v 0 0 1
v 0.2 0 1
v 0.3 0 1
v 0.4 0 1
v 0.5 0 1
v 0.6 0 1
v 0.7 0 1
v 0.8 0 1
v -0.7 0 0.9
v -0.6 0 0.9
v -0.5 0 0.9
v -0.3 0 0.9
v -0.2 0 0.9
v -0.1 0 0.9
v 0 0 0.9
v 0.1 0 0.9
v 0.2 0 0.9
v 0.3 0 0.9
v 0.5 0 0.9
v 0.6 0 0.9
v 0.7 0 0.9
v 0.8 0 0.9
v -0.6 0 0.8
v -0.4 0 0.8
v -0.3 0 0.8
v -0.1 0 0.8
v 0.2 0 0.8
v 0.4 0 0.8
v 0.5 0 0.8
v 0.7 0 0.8
v -0.4 0 0.6
v -0.3 0 0.6
v -0.2 0 0.6
v 0.3 0 0.6
v 0.4 0 0.6
v 0.5 0 0.6
v -0.3 0 0.5
v -0.2 0 0.5
v 0 0 0.5
v 0.2 0 0.5
v 0.3 0 0.5
v 0.4 0 0.5
v -0.2 0 0.4
v 0 0 0.4
v 0.1 0 0.4
v -0.3 0 0.3
v 0 0 0.3
v 0.1 0 0.3
v 0.2 0 0.3
v 0.3 0 0.3
v 0.6 0 0.3
v -0.1 0 -0.1
v 0.4 0 -0.1
v -0.1 0 -0.2
v 0.4 0 -0.2
v -0.3 0 -0.5
v -0.1 0 -0.5
v 0 0 -0.5
v 0.6 0 -0.5
v 0 0 -0.7
v 0.1 0 -0.7
v -0.1 0 -0.8
v 0 0 -0.8
v 0.1 0 -0.8
v 0.2 0 -0.8
v 0 0 -0.9
v 0.1 0 -0.9
v 0.1 0 -1.2
v 0.2 0 -1.2
v -0.7 0.1 1.1
v -0.4 0.1 1.1
v -0.3 0.1 1.1
v 0 0.1 1.1
v 0.1 0.1 1.1
v 0.4 0.1 1.1
v 0.5 0.1 1.1
v 0.8 0.1 1.1
v -0.6 0.1 1
v -0.5 0.1 1
v -0.4 0.1 1
v -0.3 0.1 1
v -0.2 0.1 1
v -0.1 0.1 1
v 0 0.1 1
v 0.2 0.1 1
v 0.3 0.1 1
v 0.4 0.1 1
v 0.5 0.1 1
v 0.6 0.1 1
v 0.7 0.1 1
v 0.8 0.1 1
v -0.7 0.1 0.9
v -0.6 0.1 0.9
v -0.5 0.1 0.9
v -0.3 0.1 0.9
v -0.2 0.1 0.9
v -0.1 0.1 0.9
v 0 0.1 0.9
v 0.1 0.1 0.9
v 0.2 0.1 0.9
v 0.3 0.1 0.9
v 0.5 0.1 0.9
v 0.6 0.1 0.9
v 0.7 0.1 0.9
v 0.8 0.1 0.9
v -0.6 0.1 0.8
v -0.4 0.1 0.8
v -0.3 0.1 0.8
v -0.1 0.1 0.8
v 0.2 0.1 0.8
v 0.4 0.1 0.8
v 0.5 0.1 0.8
v 0.7 0.1 0.8
v -0.4 0.1 0.6
v -0.3 0.1 0.6
v -0.2 0.1 0.6
v 0.3 0.1 0.6
v 0.4 0.1 0.6
v 0.5 0.1 0.6
v -0.3 0.1 0.5
v -0.2 0.1 0.5
v 0 0.1 0.5
v 0.2 0.1 0.5
v 0.3 0.1 0.5
v 0.4 0.1 0.5
v -0.2 0.1 0.4
v 0 0.1 0.4
v 0.1 0.1 0.4
v 0 0.1 0.3
v 0.1 0.1 0.3
v 0.2 0.1 0.3
v 0.3 0.1 0.3
v -0.1 0.1 -0.1
v 0.4 0.1 -0.1
v -0.1 0.1 -0.2
v 0.4 0.1 -0.2
v -0.1 0.1 -0.5
v 0 0.1 -0.5
v 0 0.1 -0.7
v 0.1 0.1 -0.7
v -0.1 0.1 -0.8
v 0 0.1 -0.8
v 0.1 0.1 -0.8
v 0.2 0.1 -0.8
v 0 0.1 -0.9
v 0.1 0.1 -0.9
v 0.1 0.1 -1.2
v 0.2 0.1 -1.2
v -0.3 0.2 0.3
v 0.6 0.2 0.3
v -0.1 0.2 0.2
v 0 0.2 0.2
v 0.2 0.2 0.2
v 0.4 0.2 0.2
v 0.5 0.2 0.2
v -0.1 0.2 0.1
v 0 0.2 0.1
v 0.2 0.2 0.1
v 0.4 0.2 0.1
v -0.1 0.2 0
v 0.4 0.2 0
v -0.2 0.2 -0.1
v -0.1 0.2 -0.1
v 0.4 0.2 -0.1
v 0.5 0.2 -0.1
v -0.2 0.2 -0.2
v -0.1 0.2 -0.2
v 0.4 0.2 -0.2
v 0.5 0.2 -0.2
v -0.1 0.2 -0.3
v 0.4 0.2 -0.3
v 0.5 0.2 -0.3
v -0.1 0.2 -0.4
v 0.4 0.2 -0.4
v -0.3 0.2 -0.5
v -0.1 0.2 -0.5
v 0.4 0.2 -0.5
v 0.6 0.2 -0.5

# faces
f 3/6/1 2/6/1 1/6/1
f 4/6/1 2/6/1 3/6/1
f 7/6/1 6/6/1 5/6/1
f 8/6/1 6/6/1 7/6/1
f 11/6/1 10/6/1 9/6/1
f 12/6/1 10/6/1 11/6/1
f 19/6/1 14/6/1 13/6/1
f 20/6/1 14/6/1 19/6/1
f 21/6/1 16/6/1 15/6/1
f 22/6/1 16/6/1 21/6/1
f 23/5/1 18/5/1 17/5/1
f 24/5/1 18/5/1 23/5/1
f 27/6/1 26/6/1 25/6/1
f 28/6/1 26/6/1 27/6/1
f 31/6/1 30/6/1 29/6/1
f 32/6/1 30/6/1 31/6/1
f 37/6/1 34/6/1 33/6/1
f 38/6/1 34/6/1 37/6/1
f 39/6/1 36/6/1 35/6/1
f 40/6/1 36/6/1 39/6/1
f 45/6/1 42/6/1 41/6/1
f 46/6/1 42/6/1 45/6/1
f 47/6/1 44/6/1 43/6/1
f 48/6/1 44/6/1 47/6/1
f 53/6/1 50/6/1 49/6/1
f 54/6/1 50/6/1 53/6/1
f 55/6/1 52/6/1 51/6/1
f 56/6/1 52/6/1 55/6/1
f 59/6/1 58/6/1 57/6/1
f 60/6/1 58/6/1 59/6/1
f 63/6/1 62/6/1 61/6/1
f 64/6/1 62/6/1 63/6/1
f 67/7/1 66/7/1 65/7/1
f 68/7/1 66/7/1 67/7/1
f 71/6/1 70/6/1 69/6/1
f 72/6/1 70/6/1 71/6/1
f 73/6/2 74/6/2 75/6/2
f 75/6/2 74/6/2 76/6/2
f 77/6/2 78/6/2 79/6/2
f 79/6/2 78/6/2 80/6/2
f 81/6/2 82/6/2 83/6/2
f 83/6/2 82/6/2 84/6/2
f 85/6/2 86/6/2 87/6/2
f 87/6/2 86/6/2 88/6/2
f 89/7/2 90/7/2 91/7/2
f 91/7/2 90/7/2 92/7/2
f 93/6/2 94/6/2 100/6/2
f 94/4/2 95/4/2 101/4/2
f 100/6/2 94/6/2 101/6/2
f 101/4/2 95/4/2 102/4/2
f 96/6/2 97/6/2 103/6/2
f 103/6/2 97/6/2 104/6/2
f 98/6/2 99/6/2 105/6/2
f 105/6/2 99/6/2 106/6/2
f 107/6/2 108/6/2 111/6/2
f 111/6/2 108/6/2 112/6/2
f 109/6/2 110/6/2 113/6/2
f 113/6/2 110/6/2 114/6/2
f 115/6/2 116/6/2 117/6/2
f 117/6/2 116/6/2 118/6/2
f 119/6/2 120/6/2 121/6/2
f 121/6/2 120/6/2 122/6/2
f 123/6/2 124/6/2 127/6/2
f 127/6/2 124/6/2 128/6/2
f 125/6/2 126/6/2 129/6/2
f 129/6/2 126/6/2 130/6/2
f 131/6/2 132/6/2 133/6/2
f 133/6/2 132/6/2 134/6/2
f 135/5/2 136/5/2 137/5/2
f 137/5/2 136/5/2 138/5/2
f 139/6/2 140/6/2 141/6/2
f 141/6/2 140/6/2 142/6/2
f 143/6/2 144/6/2 146/6/2
f 144/4/2 145/4/2 147/4/2
f 146/6/2 144/6/2 147/6/2
f 147/4/2 145/4/2 148/4/2
f 151/6/3 150/6/3 149/6/3
f 152/6/3 150/6/3 151/6/3
f 155/6/3 154/6/3 153/6/3
f 156/6/3 154/6/3 155/6/3
f 159/6/3 158/6/3 157/6/3
f 160/6/3 158/6/3 159/6/3
f 163/6/3 162/6/3 161/6/3
f 164/6/3 162/6/3 163/6/3
f 167/6/3 166/6/3 165/6/3
f 168/6/3 166/6/3 167/6/3
f 171/6/3 170/6/3 169/6/3
f 172/6/3 170/6/3 171/6/3
f 175/6/3 174/6/3 173/6/3
f 176/6/3 174/6/3 175/6/3
f 179/6/3 178/6/3 177/6/3
f 180/6/3 178/6/3 179/6/3
f 183/6/3 182/6/3 181/6/3
f 184/6/3 182/6/3 183/6/3
f 187/6/3 186/6/3 185/6/3
f 188/6/3 186/6/3 187/6/3
f 191/6/3 190/6/3 189/6/3
f 192/6/3 190/6/3 191/6/3
f 195/5/3 194/5/3 193/5/3
f 196/5/3 194/5/3 195/5/3
f 198/5/3 194/5/3 196/5/3
f 199/5/3 198/5/3 197/5/3
f 200/5/3 194/5/3 198/5/3
f 200/5/3 198/5/3 199/5/3
f 202/5/3 194/5/3 200/5/3
f 203/5/3 202/5/3 201/5/3
f 204/5/3 194/5/3 202/5/3
f 204/5/3 202/5/3 203/5/3
f 207/7/3 206/7/3 205/7/3
f 208/7/3 206/7/3 207/7/3
f 211/6/3 210/6/3 209/6/3
f 212/6/3 210/6/3 211/6/3
f 215/6/3 214/6/3 213/6/3
f 216/6/3 214/6/3 215/6/3
f 217/6/4 218/6/4 219/6/4
f 219/6/4 218/6/4 220/6/4
f 221/4/4 222/4/4 223/4/4
f 223/4/4 222/4/4 224/4/4
f 225/6/4 226/6/4 227/6/4
f 227/6/4 226/6/4 228/6/4
f 229/4/4 230/4/4 231/4/4
f 231/4/4 230/4/4 232/4/4
f 233/6/4 234/6/4 235/6/4
f 235/6/4 234/6/4 236/6/4
f 237/6/4 238/6/4 239/6/4
f 239/6/4 238/6/4 240/6/4
f 241/6/4 242/6/4 243/6/4
f 243/6/4 242/6/4 244/6/4
f 245/6/4 246/6/4 247/6/4
f 247/6/4 246/6/4 248/6/4
f 249/6/4 250/6/4 251/6/4
f 251/6/4 250/6/4 252/6/4
f 253/6/4 254/6/4 255/6/4
f 255/6/4 254/6/4 256/6/4
f 257/6/4 258/6/4 259/6/4
f 259/6/4 258/6/4 260/6/4
f 261/6/4 262/6/4 263/6/4
f 263/6/4 262/6/4 264/6/4
f 265/6/4 266/6/4 267/6/4
f 267/6/4 266/6/4 268/6/4
f 269/7/4 270/7/4 271/7/4
f 271/7/4 270/7/4 272/7/4
f 273/5/4 274/5/4 275/5/4
f 275/5/4 274/5/4 276/5/4
f 276/5/4 274/5/4 277/5/4
f 276/7/4 277/7/4 279/7/4
f 279/7/4 277/7/4 280/7/4
f 278/5/4 279/5/4 280/5/4
f 280/7/4 277/7/4 281/7/4
f 278/5/4 280/5/4 282/5/4
f 280/5/4 281/5/4 282/5/4
f 282/5/4 281/5/4 283/5/4
f 284/6/4 285/6/4 286/6/4
f 286/6/4 285/6/4 287/6/4
f 288/6/4 289/6/4 290/6/4
f 290/6/4 289/6/4 291/6/4
f 292/6/4 293/6/4 294/6/4
f 294/6/4 293/6/4 295/6/4
f 304/6/5 297/6/5 296/6/5
f 305/6/5 297/6/5 304/6/5
f 306/6/5 297/6/5 305/6/5
f 307/6/5 299/6/5 298/6/5
f 308/6/5 299/6/5 307/6/5
f 309/6/5 299/6/5 308/6/5
f 310/6/5 299/6/5 309/6/5
f 311/6/5 301/6/5 300/6/5
f 312/6/5 301/6/5 311/6/5
f 313/6/5 301/6/5 312/6/5
f 314/6/5 303/6/5 302/6/5
f 315/6/5 303/6/5 314/6/5
f 316/6/5 303/6/5 315/6/5
f 317/6/5 303/6/5 316/6/5
f 318/6/5 304/6/5 296/6/5
f 319/1/5 305/1/5 304/1/5
f 319/6/5 304/6/5 318/6/5
f 320/6/5 306/6/5 305/6/5
f 320/1/5 305/1/5 319/1/5
f 320/6/5 307/6/5 306/6/5
f 321/3/5 308/3/5 307/3/5
f 321/6/5 307/6/5 320/6/5
f 322/2/5 309/2/5 308/2/5
f 322/3/5 308/3/5 321/3/5
f 323/4/5 310/4/5 309/4/5
f 323/2/5 309/2/5 322/2/5
f 324/4/5 310/4/5 323/4/5
f 325/6/5 311/6/5 300/6/5
f 326/1/5 312/1/5 311/1/5
f 326/6/5 311/6/5 325/6/5
f 327/6/5 313/6/5 312/6/5
f 327/1/5 312/1/5 326/1/5
f 327/6/5 314/6/5 313/6/5
f 328/3/5 315/3/5 314/3/5
f 328/6/5 314/6/5 327/6/5
f 329/2/5 316/2/5 315/2/5
f 329/3/5 315/3/5 328/3/5
f 330/4/5 317/4/5 316/4/5
f 330/2/5 316/2/5 329/2/5
f 331/4/5 317/4/5 330/4/5
f 332/6/5 322/6/5 321/6/5
f 332/6/5 320/6/5 319/6/5
f 332/6/5 321/6/5 320/6/5
f 332/6/5 323/6/5 322/6/5
f 333/6/5 323/6/5 332/6/5
f 334/6/5 323/6/5 333/6/5
f 335/6/5 323/6/5 334/6/5
f 336/6/5 330/6/5 329/6/5
f 336/6/5 328/6/5 327/6/5
f 336/6/5 329/6/5 328/6/5
f 336/6/5 327/6/5 326/6/5
f 337/6/5 330/6/5 336/6/5
f 338/6/5 330/6/5 337/6/5
f 339/6/5 330/6/5 338/6/5
f 340/6/5 334/6/5 333/6/5
f 341/6/5 334/6/5 340/6/5
f 344/6/5 338/6/5 337/6/5
f 345/6/5 338/6/5 344/6/5
f 346/6/5 342/6/5 341/6/5
f 347/6/5 342/6/5 346/6/5
f 350/6/5 344/6/5 343/6/5
f 351/6/5 344/6/5 350/6/5
f 352/6/5 348/6/5 347/6/5
f 353/6/5 348/6/5 352/6/5
f 356/6/5 354/6/5 353/6/5
f 357/6/5 354/6/5 356/6/5
f 358/6/5 350/6/5 349/6/5
f 359/6/5 350/6/5 358/6/5
f 361/5/5 359/5/5 358/5/5
f 361/5/5 360/5/5 359/5/5
f 361/5/5 358/5/5 357/5/5
f 361/5/5 356/5/5 355/5/5
f 361/5/5 357/5/5 356/5/5
f 362/5/5 360/5/5 361/5/5
f 363/5/5 361/5/5 355/5/5
f 363/10/5 362/10/5 361/10/5
f 364/5/5 360/5/5 362/5/5
f 364/10/5 362/10/5 363/10/5
f 365/5/5 363/5/5 355/5/5
f 365/5/5 364/5/5 363/5/5
f 366/5/5 364/5/5 365/5/5
f 367/5/5 364/5/5 366/5/5
f 368/5/5 360/5/5 364/5/5
f 368/5/5 364/5/5 367/5/5
f 369/6/5 367/6/5 366/6/5
f 371/6/5 369/6/5 366/6/5
f 371/6/5 370/6/5 369/6/5
f 372/6/5 370/6/5 371/6/5
f 373/6/5 370/6/5 372/6/5
f 375/6/5 374/6/5 373/6/5
f 375/6/5 373/6/5 372/6/5
f 376/6/5 374/6/5 375/6/5
f 377/6/5 374/6/5 376/6/5
f 378/6/5 374/6/5 377/6/5
f 379/6/6 380/6/6 387/6/6
f 387/6/6 380/6/6 388/6/6
f 388/6/6 380/6/6 389/6/6
f 381/6/6 382/6/6 390/6/6
f 390/6/6 382/6/6 391/6/6
f 391/6/6 382/6/6 392/6/6
f 392/6/6 382/6/6 393/6/6
f 383/6/6 384/6/6 394/6/6
f 394/6/6 384/6/6 395/6/6
f 395/6/6 384/6/6 396/6/6
f 385/6/6 386/6/6 397/6/6
f 397/6/6 386/6/6 398/6/6
f 398/6/6 386/6/6 399/6/6
f 399/6/6 386/6/6 400/6/6
f 379/6/6 387/6/6 401/6/6
f 387/1/6 388/1/6 402/1/6
f 401/6/6 387/6/6 402/6/6
f 388/6/6 389/6/6 403/6/6
f 402/1/6 388/1/6 403/1/6
f 389/6/6 390/6/6 403/6/6
f 390/3/6 391/3/6 404/3/6
f 403/6/6 390/6/6 404/6/6
f 391/2/6 392/2/6 405/2/6
f 404/3/6 391/3/6 405/3/6
f 392/4/6 393/4/6 406/4/6
f 405/2/6 392/2/6 406/2/6
f 406/4/6 393/4/6 407/4/6
f 383/6/6 394/6/6 408/6/6
f 394/1/6 395/1/6 409/1/6
f 408/6/6 394/6/6 409/6/6
f 395/6/6 396/6/6 410/6/6
f 409/1/6 395/1/6 410/1/6
f 396/6/6 397/6/6 410/6/6
f 397/3/6 398/3/6 411/3/6
f 410/6/6 397/6/6 411/6/6
f 398/2/6 399/2/6 412/2/6
f 411/3/6 398/3/6 412/3/6
f 399/4/6 400/4/6 413/4/6
f 412/2/6 399/2/6 413/2/6
f 413/4/6 400/4/6 414/4/6
f 404/6/6 405/6/6 415/6/6
f 402/6/6 403/6/6 415/6/6
f 403/6/6 404/6/6 415/6/6
f 405/6/6 406/6/6 415/6/6
f 415/6/6 406/6/6 416/6/6
f 416/6/6 406/6/6 417/6/6
f 417/6/6 406/6/6 418/6/6
f 412/6/6 413/6/6 419/6/6
f 410/6/6 411/6/6 419/6/6
f 411/6/6 412/6/6 419/6/6
f 409/6/6 410/6/6 419/6/6
f 419/6/6 413/6/6 420/6/6
f 420/6/6 413/6/6 421/6/6
f 421/6/6 413/6/6 422/6/6
f 416/6/6 417/6/6 423/6/6
f 423/6/6 417/6/6 424/6/6
f 420/6/6 421/6/6 427/6/6
f 427/6/6 421/6/6 428/6/6
f 424/6/6 425/6/6 429/6/6
f 429/6/6 425/6/6 430/6/6
f 426/6/6 427/6/6 433/6/6
f 433/6/6 427/6/6 434/6/6
f 430/6/6 431/6/6 435/6/6
f 435/6/6 431/6/6 436/6/6
f 436/6/6 437/6/6 438/6/6
f 438/6/6 437/6/6 439/6/6
f 432/6/6 433/6/6 440/6/6
f 440/6/6 433/6/6 441/6/6
f 442/10/6 443/10/6 444/10/6
f 444/10/6 443/10/6 445/10/6
f 446/6/6 447/6/6 448/6/6
f 446/6/6 448/6/6 450/6/6
f 448/6/6 449/6/6 450/6/6
f 450/6/6 449/6/6 451/6/6
f 451/6/6 449/6/6 452/6/6
f 452/6/6 453/6/6 454/6/6
f 451/6/6 452/6/6 454/6/6
f 454/6/6 453/6/6 455/6/6
f 455/6/6 453/6/6 456/6/6
f 456/6/6 453/6/6 457/6/6
f 458/5/6 459/5/6 460/5/6
f 460/5/6 459/5/6 461/5/6
f 461/5/6 459/5/6 462/5/6
f 462/5/6 459/5/6 463/5/6
f 463/5/6 459/5/6 464/5/6
f 458/5/6 460/5/6 465/5/6
f 460/7/6 461/7/6 465/7/6
f 461/9/6 462/9/6 466/9/6
f 465/7/6 461/7/6 466/7/6
f 462/8/6 463/8/6 467/8/6
f 466/9/6 462/9/6 467/9/6
f 463/9/6 464/9/6 468/9/6
f 467/8/6 463/8/6 468/8/6
f 466/9/6 467/9/6 469/9/6
f 458/5/6 465/5/6 469/5/6
f 467/9/6 468/9/6 469/9/6
f 465/9/6 466/9/6 469/9/6
f 468/9/6 464/9/6 470/9/6
f 469/9/6 468/9/6 470/9/6
f 458/5/6 469/5/6 471/5/6
f 469/7/6 470/7/6 472/7/6
f 471/5/6 469/5/6 472/5/6
f 470/9/6 464/9/6 473/9/6
f 472/7/6 470/7/6 473/7/6
f 464/5/6 459/5/6 474/5/6
f 473/9/6 464/9/6 474/9/6
f 471/7/6 472/7/6 475/7/6
f 458/5/6 471/5/6 475/5/6
f 475/7/6 472/7/6 476/7/6
f 473/7/6 474/7/6 477/7/6
f 474/5/6 459/5/6 478/5/6
f 477/7/6 474/7/6 478/7/6
f 476/7/6 477/7/6 479/7/6
f 475/5/6 476/5/6 479/5/6
f 477/9/6 478/9/6 480/9/6
f 479/7/6 477/7/6 480/7/6
f 478/5/6 459/5/6 481/5/6
f 480/9/6 478/9/6 481/9/6
f 479/5/6 480/5/6 482/5/6
f 475/5/6 479/5/6 482/5/6
f 480/5/6 481/5/6 482/5/6
f 482/5/6 481/5/6 483/5/6
f 458/5/6 475/5/6 484/5/6
f 475/5/6 482/5/6 484/5/6
f 482/7/6 483/7/6 485/7/6
f 484/5/6 482/5/6 485/5/6
f 483/5/6 481/5/6 486/5/6
f 485/7/6 483/7/6 486/7/6
f 481/5/6 459/5/6 487/5/6
f 486/5/6 481/5/6 487/5/6
