# MagicaVoxel @ Ephtracy

# group
o 

# material
mtllib fisher-0.mtl
usemtl palette

# normals
vn -1 0 0
vn 1 0 0
vn 0 0 1
vn 0 0 -1
vn 0 -1 0
vn 0 1 0

# texcoords
vt 0.638672 0.5
vt 0.943359 0.5
vt 0.951172 0.5
vt 0.974609 0.5

# verts
v 7.45058e-09 0.7 0.1
v 7.45058e-09 0.7 -0.3
v 7.45058e-09 1.2 0.1
v 7.45058e-09 1.2 -0.3
v 0.1 0 0
v 0.1 0 -0.4
v 0.1 0.1 -0.2
v 0.1 0.1 -0.4
v 0.1 0.2 -0.2
v 0.1 0.2 -0.4
v 0.1 0.5 0
v 0.1 0.5 -0.2
v 0.1 0.7 0
v 0.1 0.7 -0.2
v 0.3 0 0
v 0.3 0 -0.4
v 0.3 0.1 -0.2
v 0.3 0.1 -0.4
v 0.3 0.2 -0.2
v 0.3 0.2 -0.4
v 0.3 0.5 0
v 0.3 0.5 -0.2
v 0.3 0.7 0.1
v 0.3 0.7 0
v 0.3 0.7 -0.2
v 0.3 0.7 -0.3
v 0.3 1.2 0.1
v 0.3 1.2 -0.3
v 7.45058e-09 0.7 0.1
v 7.45058e-09 1.2 0.1
v 0.3 0.7 0.1
v 0.3 1.2 0.1
v 0.1 0 0
v 0.1 0.5 0
v 0.1 0.7 0
v 0.3 0 0
v 0.3 0.5 0
v 0.3 0.7 0
v 0.1 0.2 -0.2
v 0.1 0.5 -0.2
v 0.1 0.7 -0.2
v 0.3 0.2 -0.2
v 0.3 0.5 -0.2
v 0.3 0.7 -0.2
v 7.45058e-09 0.7 -0.3
v 7.45058e-09 1.2 -0.3
v 0.3 0.7 -0.3
v 0.3 1.2 -0.3
v 0.1 0 -0.4
v 0.1 0.1 -0.4
v 0.1 0.2 -0.4
v 0.3 0 -0.4
v 0.3 0.1 -0.4
v 0.3 0.2 -0.4
v 0.1 0 0
v 0.3 0 0
v 0.1 0 -0.4
v 0.3 0 -0.4
v 7.45058e-09 0.7 0.1
v 0.3 0.7 0.1
v 0.1 0.7 0
v 0.3 0.7 0
v 0.1 0.7 -0.2
v 0.3 0.7 -0.2
v 7.45058e-09 0.7 -0.3
v 0.3 0.7 -0.3
v 0.1 0.2 -0.2
v 0.3 0.2 -0.2
v 0.1 0.2 -0.4
v 0.3 0.2 -0.4
v 7.45058e-09 1.2 0.1
v 0.3 1.2 0.1
v 7.45058e-09 1.2 -0.3
v 0.3 1.2 -0.3

# faces
f 3/3/1 2/3/1 1/3/1
f 4/3/1 2/3/1 3/3/1
f 7/2/1 6/2/1 5/2/1
f 8/2/1 6/2/1 7/2/1
f 9/2/1 7/2/1 5/2/1
f 9/4/1 8/4/1 7/4/1
f 10/4/1 8/4/1 9/4/1
f 11/2/1 9/2/1 5/2/1
f 12/2/1 9/2/1 11/2/1
f 13/1/1 12/1/1 11/1/1
f 14/1/1 12/1/1 13/1/1
f 15/2/2 16/2/2 17/2/2
f 17/2/2 16/2/2 18/2/2
f 15/2/2 17/2/2 19/2/2
f 17/4/2 18/4/2 19/4/2
f 19/4/2 18/4/2 20/4/2
f 15/2/2 19/2/2 21/2/2
f 21/2/2 19/2/2 22/2/2
f 21/1/2 22/1/2 24/1/2
f 24/1/2 22/1/2 25/1/2
f 24/3/2 25/3/2 27/3/2
f 25/3/2 26/3/2 27/3/2
f 23/3/2 24/3/2 27/3/2
f 27/3/2 26/3/2 28/3/2
f 31/3/3 30/3/3 29/3/3
f 32/3/3 30/3/3 31/3/3
f 36/2/3 34/2/3 33/2/3
f 37/1/3 35/1/3 34/1/3
f 37/2/3 34/2/3 36/2/3
f 38/1/3 35/1/3 37/1/3
f 39/2/4 40/2/4 42/2/4
f 40/1/4 41/1/4 43/1/4
f 42/2/4 40/2/4 43/2/4
f 43/1/4 41/1/4 44/1/4
f 45/3/4 46/3/4 47/3/4
f 47/3/4 46/3/4 48/3/4
f 49/2/4 50/2/4 52/2/4
f 50/4/4 51/4/4 53/4/4
f 52/2/4 50/2/4 53/2/4
f 53/4/4 51/4/4 54/4/4
f 57/2/5 56/2/5 55/2/5
f 58/2/5 56/2/5 57/2/5
f 61/3/5 60/3/5 59/3/5
f 62/3/5 60/3/5 61/3/5
f 63/3/5 61/3/5 59/3/5
f 65/3/5 63/3/5 59/3/5
f 65/3/5 64/3/5 63/3/5
f 66/3/5 64/3/5 65/3/5
f 67/4/6 68/4/6 69/4/6
f 69/4/6 68/4/6 70/4/6
f 71/3/6 72/3/6 73/3/6
f 73/3/6 72/3/6 74/3/6
