# MagicaVoxel @ Ephtracy

# group
o 

# material
mtllib afra-0.mtl
usemtl palette

# normals
vn -1 0 0
vn 1 0 0
vn 0 0 1
vn 0 0 -1
vn 0 -1 0
vn 0 1 0

# texcoords
vt 0.884766 0.5
vt 0.916016 0.5
vt 0.947266 0.5
vt 0.970703 0.5
vt 0.978516 0.5

# verts
v 0.1 0 7.45058e-09
v 0.1 0 -0.4
v 0.1 0.1 -0.2
v 0.1 0.1 -0.4
v 0.1 0.5 7.45058e-09
v 0.1 0.5 -0.2
v 0.1 0.6 7.45058e-09
v 0.1 0.6 -0.1
v 0.1 0.6 -0.2
v 0.1 0.7 7.45058e-09
v 0.1 0.7 -0.1
v 0.1 0.7 -0.2
v 0.1 0.8 7.45058e-09
v 0.1 0.8 -0.1
v 0.1 0.9 -0.1
v 0.1 0.9 -0.2
v 0.1 1 -0.1
v 0.1 1 -0.2
v 0.1 1.1 -0.1
v 0.1 1.1 -0.2
v 0.1 1.2 7.45058e-09
v 0.1 1.2 -0.2
v 0.3 0 7.45058e-09
v 0.3 0 -0.4
v 0.3 0.1 -0.2
v 0.3 0.1 -0.4
v 0.3 0.5 7.45058e-09
v 0.3 0.5 -0.2
v 0.3 0.6 7.45058e-09
v 0.3 0.6 -0.2
v 0.3 0.8 7.45058e-09
v 0.3 0.8 -0.1
v 0.3 0.8 -0.2
v 0.3 0.9 7.45058e-09
v 0.3 0.9 -0.1
v 0.3 0.9 -0.2
v 0.3 1 7.45058e-09
v 0.3 1 -0.1
v 0.3 1.1 7.45058e-09
v 0.3 1.1 -0.1
v 0.3 1.1 -0.2
v 0.3 1.2 7.45058e-09
v 0.3 1.2 -0.1
v 0.3 1.2 -0.2
v 0.1 0 7.45058e-09
v 0.1 0.5 7.45058e-09
v 0.1 0.6 7.45058e-09
v 0.1 0.7 7.45058e-09
v 0.1 0.8 7.45058e-09
v 0.1 1.2 7.45058e-09
v 0.2 0.7 7.45058e-09
v 0.2 0.8 7.45058e-09
v 0.2 0.9 7.45058e-09
v 0.2 1 7.45058e-09
v 0.2 1.1 7.45058e-09
v 0.2 1.2 7.45058e-09
v 0.3 0 7.45058e-09
v 0.3 0.5 7.45058e-09
v 0.3 0.6 7.45058e-09
v 0.3 0.8 7.45058e-09
v 0.3 0.9 7.45058e-09
v 0.3 1 7.45058e-09
v 0.3 1.1 7.45058e-09
v 0.3 1.2 7.45058e-09
v 0.1 0.1 -0.2
v 0.1 0.5 -0.2
v 0.1 0.6 -0.2
v 0.1 0.7 -0.2
v 0.1 0.9 -0.2
v 0.1 1 -0.2
v 0.1 1.1 -0.2
v 0.1 1.2 -0.2
v 0.2 0.6 -0.2
v 0.2 0.7 -0.2
v 0.2 0.8 -0.2
v 0.2 0.9 -0.2
v 0.2 1 -0.2
v 0.2 1.1 -0.2
v 0.2 1.2 -0.2
v 0.3 0.1 -0.2
v 0.3 0.5 -0.2
v 0.3 0.6 -0.2
v 0.3 0.8 -0.2
v 0.3 0.9 -0.2
v 0.3 1.1 -0.2
v 0.3 1.2 -0.2
v 0.1 0 -0.4
v 0.1 0.1 -0.4
v 0.3 0 -0.4
v 0.3 0.1 -0.4
v 0.1 0 7.45058e-09
v 0.3 0 7.45058e-09
v 0.1 0 -0.4
v 0.3 0 -0.4
v 0.1 0.1 -0.2
v 0.3 0.1 -0.2
v 0.1 0.1 -0.4
v 0.3 0.1 -0.4
v 0.1 1.2 7.45058e-09
v 0.2 1.2 7.45058e-09
v 0.3 1.2 7.45058e-09
v 0.2 1.2 -0.1
v 0.3 1.2 -0.1
v 0.1 1.2 -0.2
v 0.2 1.2 -0.2
v 0.3 1.2 -0.2

# faces
f 3/4/1 2/4/1 1/4/1
f 4/4/1 2/4/1 3/4/1
f 5/4/1 3/4/1 1/4/1
f 6/4/1 3/4/1 5/4/1
f 7/1/1 6/1/1 5/1/1
f 8/1/1 6/1/1 7/1/1
f 9/1/1 6/1/1 8/1/1
f 10/2/1 8/2/1 7/2/1
f 11/5/1 9/5/1 8/5/1
f 11/2/1 8/2/1 10/2/1
f 12/5/1 9/5/1 11/5/1
f 13/3/1 11/3/1 10/3/1
f 14/2/1 12/2/1 11/2/1
f 14/3/1 11/3/1 13/3/1
f 15/2/1 14/2/1 13/2/1
f 15/2/1 12/2/1 14/2/1
f 16/2/1 12/2/1 15/2/1
f 17/2/1 15/2/1 13/2/1
f 17/3/1 16/3/1 15/3/1
f 18/3/1 16/3/1 17/3/1
f 19/2/1 17/2/1 13/2/1
f 19/5/1 18/5/1 17/5/1
f 20/5/1 18/5/1 19/5/1
f 21/2/1 19/2/1 13/2/1
f 21/2/1 20/2/1 19/2/1
f 22/2/1 20/2/1 21/2/1
f 23/4/2 24/4/2 25/4/2
f 25/4/2 24/4/2 26/4/2
f 23/4/2 25/4/2 27/4/2
f 27/4/2 25/4/2 28/4/2
f 27/1/2 28/1/2 29/1/2
f 29/1/2 28/1/2 30/1/2
f 29/2/2 30/2/2 31/2/2
f 31/2/2 30/2/2 32/2/2
f 32/2/2 30/2/2 33/2/2
f 31/5/2 32/5/2 34/5/2
f 32/3/2 33/3/2 35/3/2
f 34/5/2 32/5/2 35/5/2
f 35/3/2 33/3/2 36/3/2
f 34/3/2 35/3/2 37/3/2
f 35/2/2 36/2/2 38/2/2
f 37/3/2 35/3/2 38/3/2
f 37/2/2 38/2/2 39/2/2
f 38/2/2 36/2/2 40/2/2
f 39/2/2 38/2/2 40/2/2
f 40/2/2 36/2/2 41/2/2
f 39/5/2 40/5/2 42/5/2
f 40/3/2 41/3/2 43/3/2
f 42/5/2 40/5/2 43/5/2
f 43/3/2 41/3/2 44/3/2
f 51/2/3 48/2/3 47/2/3
f 51/3/3 49/3/3 48/3/3
f 52/2/3 50/2/3 49/2/3
f 52/3/3 49/3/3 51/3/3
f 53/2/3 50/2/3 52/2/3
f 54/2/3 50/2/3 53/2/3
f 55/2/3 50/2/3 54/2/3
f 56/2/3 50/2/3 55/2/3
f 57/4/3 46/4/3 45/4/3
f 58/1/3 47/1/3 46/1/3
f 58/4/3 46/4/3 57/4/3
f 59/2/3 51/2/3 47/2/3
f 59/1/3 47/1/3 58/1/3
f 59/2/3 52/2/3 51/2/3
f 60/5/3 53/5/3 52/5/3
f 60/2/3 52/2/3 59/2/3
f 61/3/3 54/3/3 53/3/3
f 61/5/3 53/5/3 60/5/3
f 62/2/3 55/2/3 54/2/3
f 62/3/3 54/3/3 61/3/3
f 63/5/3 56/5/3 55/5/3
f 63/2/3 55/2/3 62/2/3
f 64/5/3 56/5/3 63/5/3
f 66/1/4 67/1/4 73/1/4
f 67/5/4 68/5/4 73/5/4
f 68/2/4 69/2/4 74/2/4
f 73/5/4 68/5/4 74/5/4
f 74/2/4 69/2/4 75/2/4
f 69/3/4 70/3/4 76/3/4
f 75/2/4 69/2/4 76/2/4
f 70/5/4 71/5/4 77/5/4
f 76/3/4 70/3/4 77/3/4
f 71/2/4 72/2/4 78/2/4
f 77/5/4 71/5/4 78/5/4
f 78/2/4 72/2/4 79/2/4
f 65/4/4 66/4/4 80/4/4
f 66/1/4 73/1/4 81/1/4
f 80/4/4 66/4/4 81/4/4
f 74/2/4 75/2/4 82/2/4
f 81/1/4 73/1/4 82/1/4
f 73/2/4 74/2/4 82/2/4
f 75/3/4 76/3/4 83/3/4
f 82/2/4 75/2/4 83/2/4
f 76/2/4 77/2/4 84/2/4
f 83/3/4 76/3/4 84/3/4
f 77/2/4 78/2/4 84/2/4
f 78/3/4 79/3/4 85/3/4
f 84/2/4 78/2/4 85/2/4
f 85/3/4 79/3/4 86/3/4
f 87/4/4 88/4/4 89/4/4
f 89/4/4 88/4/4 90/4/4
f 93/4/5 92/4/5 91/4/5
f 94/4/5 92/4/5 93/4/5
f 95/4/6 96/4/6 97/4/6
f 97/4/6 96/4/6 98/4/6
f 99/2/6 100/2/6 102/2/6
f 100/5/6 101/5/6 102/5/6
f 102/5/6 101/5/6 103/5/6
f 99/2/6 102/2/6 104/2/6
f 102/3/6 103/3/6 105/3/6
f 104/2/6 102/2/6 105/2/6
f 105/3/6 103/3/6 106/3/6
