# MagicaVoxel @ Ephtracy

# group
o 

# material
mtllib chinese-2.mtl
usemtl palette

# normals
vn -1 0 0
vn 1 0 0
vn 0 0 1
vn 0 0 -1
vn 0 -1 0
vn 0 1 0

# texcoords
vt 0.955078 0.5
vt 0.970703 0.5
vt 0.986328 0.5

# verts
v -0.5 1.3 7.45058e-09
v -0.5 1.3 -0.2
v -0.5 1.5 7.45058e-09
v -0.5 1.5 -0.2
v -0.5 2.3 7.45058e-09
v -0.5 2.3 -0.2
v -0.4 1.3 7.45058e-09
v -0.4 1.3 -0.2
v -0.4 1.4 7.45058e-09
v -0.4 1.4 -0.2
v -0.3 1.4 7.45058e-09
v -0.3 1.4 -0.2
v -0.3 1.5 7.45058e-09
v -0.3 1.5 -0.2
v -0.3 2.2 7.45058e-09
v -0.3 2.2 -0.2
v -0.3 2.3 7.45058e-09
v -0.3 2.3 -0.2
v -0.5 1.3 7.45058e-09
v -0.5 1.5 7.45058e-09
v -0.5 2.3 7.45058e-09
v -0.4 1.3 7.45058e-09
v -0.4 1.4 7.45058e-09
v -0.4 1.5 7.45058e-09
v -0.4 2.2 7.45058e-09
v -0.3 1.4 7.45058e-09
v -0.3 1.5 7.45058e-09
v -0.3 2.2 7.45058e-09
v -0.3 2.3 7.45058e-09
v -0.5 1.3 -0.2
v -0.5 1.5 -0.2
v -0.5 2.3 -0.2
v -0.4 1.3 -0.2
v -0.4 1.4 -0.2
v -0.4 1.5 -0.2
v -0.4 2.2 -0.2
v -0.3 1.4 -0.2
v -0.3 1.5 -0.2
v -0.3 2.2 -0.2
v -0.3 2.3 -0.2
v -0.5 1.3 7.45058e-09
v -0.4 1.3 7.45058e-09
v -0.5 1.3 -0.2
v -0.4 1.3 -0.2
v -0.4 1.4 7.45058e-09
v -0.3 1.4 7.45058e-09
v -0.4 1.4 -0.2
v -0.3 1.4 -0.2
v -0.5 2.3 7.45058e-09
v -0.3 2.3 7.45058e-09
v -0.5 2.3 -0.2
v -0.3 2.3 -0.2

# faces
f 3/2/1 2/2/1 1/2/1
f 4/2/1 2/2/1 3/2/1
f 5/1/1 4/1/1 3/1/1
f 6/1/1 4/1/1 5/1/1
f 7/2/2 8/2/2 9/2/2
f 9/2/2 8/2/2 10/2/2
f 11/2/2 12/2/2 13/2/2
f 13/2/2 12/2/2 14/2/2
f 13/3/2 14/3/2 15/3/2
f 15/3/2 14/3/2 16/3/2
f 15/1/2 16/1/2 17/1/2
f 17/1/2 16/1/2 18/1/2
f 22/2/3 20/2/3 19/2/3
f 23/2/3 20/2/3 22/2/3
f 24/1/3 21/1/3 20/1/3
f 24/2/3 20/2/3 23/2/3
f 25/1/3 21/1/3 24/1/3
f 26/2/3 24/2/3 23/2/3
f 27/3/3 25/3/3 24/3/3
f 27/2/3 24/2/3 26/2/3
f 28/1/3 21/1/3 25/1/3
f 28/3/3 25/3/3 27/3/3
f 29/1/3 21/1/3 28/1/3
f 30/2/4 31/2/4 33/2/4
f 33/2/4 31/2/4 34/2/4
f 31/1/4 32/1/4 35/1/4
f 34/2/4 31/2/4 35/2/4
f 35/1/4 32/1/4 36/1/4
f 34/2/4 35/2/4 37/2/4
f 35/3/4 36/3/4 38/3/4
f 37/2/4 35/2/4 38/2/4
f 36/1/4 32/1/4 39/1/4
f 38/3/4 36/3/4 39/3/4
f 39/1/4 32/1/4 40/1/4
f 43/2/5 42/2/5 41/2/5
f 44/2/5 42/2/5 43/2/5
f 47/2/5 46/2/5 45/2/5
f 48/2/5 46/2/5 47/2/5
f 49/1/6 50/1/6 51/1/6
f 51/1/6 50/1/6 52/1/6
