# MagicaVoxel @ Ephtracy

# group
o 

# material
mtllib sheikh-2.mtl
usemtl palette

# normals
vn -1 0 0
vn 1 0 0
vn 0 0 1
vn 0 0 -1
vn 0 -1 0
vn 0 1 0

# texcoords
vt 0.970703 0.5
vt 0.974609 0.5

# verts
v 0.3 1.4 0
v 0.3 1.4 -0.2
v 0.3 1.5 0
v 0.3 1.5 -0.2
v 0.3 2.3 0
v 0.3 2.3 -0.2
v 0.4 1.3 0
v 0.4 1.3 -0.2
v 0.4 1.4 0
v 0.4 1.4 -0.2
v 0.5 1.3 0
v 0.5 1.3 -0.2
v 0.5 1.5 0
v 0.5 1.5 -0.2
v 0.5 2.3 0
v 0.5 2.3 -0.2
v 0.3 1.4 0
v 0.3 1.5 0
v 0.3 2.3 0
v 0.4 1.3 0
v 0.4 1.4 0
v 0.5 1.3 0
v 0.5 1.5 0
v 0.5 2.3 0
v 0.3 1.4 -0.2
v 0.3 1.5 -0.2
v 0.3 2.3 -0.2
v 0.4 1.3 -0.2
v 0.4 1.4 -0.2
v 0.5 1.3 -0.2
v 0.5 1.5 -0.2
v 0.5 2.3 -0.2
v 0.4 1.3 0
v 0.5 1.3 0
v 0.4 1.3 -0.2
v 0.5 1.3 -0.2
v 0.3 1.4 0
v 0.4 1.4 0
v 0.3 1.4 -0.2
v 0.4 1.4 -0.2
v 0.3 2.3 0
v 0.5 2.3 0
v 0.3 2.3 -0.2
v 0.5 2.3 -0.2

# faces
f 3/1/1 2/1/1 1/1/1
f 4/1/1 2/1/1 3/1/1
f 5/2/1 4/2/1 3/2/1
f 6/2/1 4/2/1 5/2/1
f 9/1/1 8/1/1 7/1/1
f 10/1/1 8/1/1 9/1/1
f 11/1/2 12/1/2 13/1/2
f 13/1/2 12/1/2 14/1/2
f 13/2/2 14/2/2 15/2/2
f 15/2/2 14/2/2 16/2/2
f 21/1/3 18/1/3 17/1/3
f 22/1/3 21/1/3 20/1/3
f 23/2/3 19/2/3 18/2/3
f 23/1/3 21/1/3 22/1/3
f 23/1/3 18/1/3 21/1/3
f 24/2/3 19/2/3 23/2/3
f 25/1/4 26/1/4 29/1/4
f 28/1/4 29/1/4 30/1/4
f 26/2/4 27/2/4 31/2/4
f 30/1/4 29/1/4 31/1/4
f 29/1/4 26/1/4 31/1/4
f 31/2/4 27/2/4 32/2/4
f 35/1/5 34/1/5 33/1/5
f 36/1/5 34/1/5 35/1/5
f 39/1/5 38/1/5 37/1/5
f 40/1/5 38/1/5 39/1/5
f 41/2/6 42/2/6 43/2/6
f 43/2/6 42/2/6 44/2/6
