# MagicaVoxel @ Ephtracy

# group
o 

# material
mtllib shepherd-3.mtl
usemtl palette

# normals
vn -1 0 0
vn 1 0 0
vn 0 0 1
vn 0 0 -1
vn 0 -1 0
vn 0 1 0

# texcoords
vt 0.943359 0.5
vt 0.978516 0.5
vt 0.982422 0.5
vt 0.986328 0.5

# verts
v -0.4 1.8 0.1
v -0.4 1.8 1.49012e-08
v -0.4 1.8 -0.2
v -0.4 2.4 0.1
v -0.4 2.4 1.49012e-08
v -0.4 2.4 -0.2
v -0.3 1.2 1.49012e-08
v -0.3 1.2 -0.4
v -0.3 1.4 -0.1
v -0.3 1.4 -0.2
v -0.3 1.4 -0.4
v -0.3 1.5 1.49012e-08
v -0.3 1.5 -0.1
v -0.3 1.5 -0.2
v -0.3 1.6 1.49012e-08
v -0.3 1.6 -0.1
v -0.3 1.6 -0.2
v -0.3 1.7 1.49012e-08
v -0.3 1.7 -0.1
v -0.3 1.7 -0.2
v -0.3 1.8 1.49012e-08
v -0.3 1.8 -0.1
v -0.3 1.8 -0.2
v -0.3 1.8 -0.3
v -0.3 2.4 -0.2
v -0.3 2.4 -0.3
v -0.1 1.2 1.49012e-08
v -0.1 1.2 -0.4
v -0.1 1.4 1.49012e-08
v -0.1 1.4 -0.1
v -0.1 1.4 -0.2
v -0.1 1.4 -0.4
v -0.1 1.5 1.49012e-08
v -0.1 1.5 -0.1
v -0.1 1.5 -0.2
v -0.1 1.6 1.49012e-08
v -0.1 1.6 -0.1
v -0.1 1.6 -0.2
v -0.1 1.7 1.49012e-08
v -0.1 1.7 -0.1
v -0.1 1.7 -0.2
v -0.1 1.8 0.1
v -0.1 1.8 1.49012e-08
v -0.1 1.8 -0.1
v -0.1 1.8 -0.2
v -0.1 1.8 -0.3
v -0.1 2.4 0.1
v -0.1 2.4 1.49012e-08
v -0.1 2.4 -0.2
v -0.1 2.4 -0.3
v 0 1.8 1.49012e-08
v 0 1.8 -0.2
v 0 2.4 1.49012e-08
v 0 2.4 -0.2
v -0.4 1.8 0.1
v -0.4 2.4 0.1
v -0.1 1.8 0.1
v -0.1 2.4 0.1
v -0.3 1.2 1.49012e-08
v -0.3 1.5 1.49012e-08
v -0.3 1.6 1.49012e-08
v -0.3 1.7 1.49012e-08
v -0.3 1.8 1.49012e-08
v -0.2 1.4 1.49012e-08
v -0.2 1.5 1.49012e-08
v -0.2 1.6 1.49012e-08
v -0.2 1.7 1.49012e-08
v -0.2 1.8 1.49012e-08
v -0.1 1.2 1.49012e-08
v -0.1 1.4 1.49012e-08
v -0.1 1.5 1.49012e-08
v -0.1 1.6 1.49012e-08
v -0.1 1.7 1.49012e-08
v -0.1 1.8 1.49012e-08
v -0.1 2.4 1.49012e-08
v 0 1.8 1.49012e-08
v 0 2.4 1.49012e-08
v -0.4 1.8 -0.2
v -0.4 2.4 -0.2
v -0.3 1.4 -0.2
v -0.3 1.5 -0.2
v -0.3 1.6 -0.2
v -0.3 1.7 -0.2
v -0.3 1.8 -0.2
v -0.3 2.4 -0.2
v -0.2 1.4 -0.2
v -0.2 1.5 -0.2
v -0.2 1.6 -0.2
v -0.2 1.7 -0.2
v -0.2 1.8 -0.2
v -0.1 1.4 -0.2
v -0.1 1.5 -0.2
v -0.1 1.6 -0.2
v -0.1 1.7 -0.2
v -0.1 1.8 -0.2
v -0.1 2.4 -0.2
v 0 1.8 -0.2
v 0 2.4 -0.2
v -0.3 1.8 -0.3
v -0.3 2.4 -0.3
v -0.1 1.8 -0.3
v -0.1 2.4 -0.3
v -0.3 1.2 -0.4
v -0.3 1.4 -0.4
v -0.1 1.2 -0.4
v -0.1 1.4 -0.4
v -0.3 1.2 1.49012e-08
v -0.1 1.2 1.49012e-08
v -0.3 1.2 -0.4
v -0.1 1.2 -0.4
v -0.4 1.8 0.1
v -0.1 1.8 0.1
v -0.4 1.8 1.49012e-08
v -0.3 1.8 1.49012e-08
v -0.2 1.8 1.49012e-08
v -0.1 1.8 1.49012e-08
v 0 1.8 1.49012e-08
v -0.3 1.8 -0.1
v -0.1 1.8 -0.1
v -0.4 1.8 -0.2
v -0.3 1.8 -0.2
v -0.2 1.8 -0.2
v -0.1 1.8 -0.2
v 0 1.8 -0.2
v -0.3 1.8 -0.3
v -0.1 1.8 -0.3
v -0.3 1.4 -0.2
v -0.2 1.4 -0.2
v -0.1 1.4 -0.2
v -0.3 1.4 -0.4
v -0.1 1.4 -0.4
v -0.4 2.4 0.1
v -0.1 2.4 0.1
v -0.4 2.4 1.49012e-08
v -0.1 2.4 1.49012e-08
v 0 2.4 1.49012e-08
v -0.4 2.4 -0.2
v -0.3 2.4 -0.2
v -0.1 2.4 -0.2
v 0 2.4 -0.2
v -0.3 2.4 -0.3
v -0.1 2.4 -0.3

# faces
f 4/4/1 2/4/1 1/4/1
f 5/1/1 3/1/1 2/1/1
f 5/4/1 2/4/1 4/4/1
f 6/1/1 3/1/1 5/1/1
f 9/2/1 8/2/1 7/2/1
f 10/2/1 8/2/1 9/2/1
f 11/2/1 8/2/1 10/2/1
f 12/2/1 9/2/1 7/2/1
f 13/3/1 10/3/1 9/3/1
f 13/2/1 9/2/1 12/2/1
f 14/3/1 10/3/1 13/3/1
f 15/3/1 13/3/1 12/3/1
f 16/2/1 14/2/1 13/2/1
f 16/3/1 13/3/1 15/3/1
f 17/2/1 14/2/1 16/2/1
f 18/2/1 16/2/1 15/2/1
f 19/3/1 17/3/1 16/3/1
f 19/2/1 16/2/1 18/2/1
f 20/3/1 17/3/1 19/3/1
f 21/3/1 19/3/1 18/3/1
f 22/2/1 20/2/1 19/2/1
f 22/3/1 19/3/1 21/3/1
f 23/2/1 20/2/1 22/2/1
f 25/1/1 24/1/1 23/1/1
f 26/1/1 24/1/1 25/1/1
f 27/2/2 28/2/2 29/2/2
f 29/2/2 28/2/2 30/2/2
f 30/2/2 28/2/2 31/2/2
f 31/2/2 28/2/2 32/2/2
f 29/3/2 30/3/2 33/3/2
f 30/2/2 31/2/2 34/2/2
f 33/3/2 30/3/2 34/3/2
f 34/2/2 31/2/2 35/2/2
f 33/2/2 34/2/2 36/2/2
f 34/3/2 35/3/2 37/3/2
f 36/2/2 34/2/2 37/2/2
f 37/3/2 35/3/2 38/3/2
f 36/3/2 37/3/2 39/3/2
f 37/2/2 38/2/2 40/2/2
f 39/3/2 37/3/2 40/3/2
f 40/2/2 38/2/2 41/2/2
f 39/2/2 40/2/2 43/2/2
f 40/3/2 41/3/2 44/3/2
f 43/2/2 40/2/2 44/2/2
f 44/3/2 41/3/2 45/3/2
f 42/4/2 43/4/2 47/4/2
f 47/4/2 43/4/2 48/4/2
f 45/1/2 46/1/2 49/1/2
f 49/1/2 46/1/2 50/1/2
f 51/1/2 52/1/2 53/1/2
f 53/1/2 52/1/2 54/1/2
f 57/4/3 56/4/3 55/4/3
f 58/4/3 56/4/3 57/4/3
f 64/2/3 60/2/3 59/2/3
f 65/3/3 61/3/3 60/3/3
f 65/2/3 60/2/3 64/2/3
f 66/2/3 62/2/3 61/2/3
f 66/3/3 61/3/3 65/3/3
f 67/3/3 63/3/3 62/3/3
f 67/2/3 62/2/3 66/2/3
f 68/3/3 63/3/3 67/3/3
f 69/2/3 64/2/3 59/2/3
f 70/3/3 65/3/3 64/3/3
f 70/2/3 64/2/3 69/2/3
f 71/2/3 66/2/3 65/2/3
f 71/3/3 65/3/3 70/3/3
f 72/3/3 67/3/3 66/3/3
f 72/2/3 66/2/3 71/2/3
f 73/2/3 68/2/3 67/2/3
f 73/3/3 67/3/3 72/3/3
f 74/2/3 68/2/3 73/2/3
f 76/1/3 75/1/3 74/1/3
f 77/1/3 75/1/3 76/1/3
f 78/1/4 79/1/4 84/1/4
f 84/1/4 79/1/4 85/1/4
f 80/3/4 81/3/4 86/3/4
f 81/2/4 82/2/4 87/2/4
f 86/3/4 81/3/4 87/3/4
f 82/3/4 83/3/4 88/3/4
f 87/2/4 82/2/4 88/2/4
f 83/2/4 84/2/4 89/2/4
f 88/3/4 83/3/4 89/3/4
f 89/2/4 84/2/4 90/2/4
f 86/2/4 87/2/4 91/2/4
f 87/3/4 88/3/4 92/3/4
f 91/2/4 87/2/4 92/2/4
f 88/2/4 89/2/4 93/2/4
f 92/3/4 88/3/4 93/3/4
f 89/3/4 90/3/4 94/3/4
f 93/2/4 89/2/4 94/2/4
f 94/3/4 90/3/4 95/3/4
f 95/1/4 96/1/4 97/1/4
f 97/1/4 96/1/4 98/1/4
f 99/1/4 100/1/4 101/1/4
f 101/1/4 100/1/4 102/1/4
f 103/2/4 104/2/4 105/2/4
f 105/2/4 104/2/4 106/2/4
f 109/2/5 108/2/5 107/2/5
f 110/2/5 108/2/5 109/2/5
f 113/4/5 112/4/5 111/4/5
f 114/4/5 112/4/5 113/4/5
f 115/4/5 112/4/5 114/4/5
f 116/4/5 112/4/5 115/4/5
f 118/1/5 114/1/5 113/1/5
f 119/1/5 117/1/5 116/1/5
f 120/1/5 118/1/5 113/1/5
f 121/1/5 118/1/5 120/1/5
f 123/1/5 117/1/5 119/1/5
f 124/1/5 117/1/5 123/1/5
f 125/1/5 122/1/5 121/1/5
f 125/1/5 123/1/5 122/1/5
f 126/1/5 123/1/5 125/1/5
f 127/2/6 128/2/6 130/2/6
f 128/2/6 129/2/6 130/2/6
f 130/2/6 129/2/6 131/2/6
f 132/4/6 133/4/6 134/4/6
f 134/4/6 133/4/6 135/4/6
f 134/1/6 135/1/6 137/1/6
f 135/1/6 136/1/6 137/1/6
f 137/1/6 136/1/6 138/1/6
f 138/1/6 136/1/6 139/1/6
f 139/1/6 136/1/6 140/1/6
f 138/1/6 139/1/6 141/1/6
f 141/1/6 139/1/6 142/1/6
