# MagicaVoxel @ Ephtracy

# group
o 

# material
mtllib bmo-0.mtl
usemtl palette

# normals
vn -1 0 0
vn 1 0 0
vn 0 0 1
vn 0 0 -1
vn 0 -1 0
vn 0 1 0

# texcoords
vt 0.958984 0.5
vt 0.974609 0.5
vt 0.990234 0.5

# verts
v -0.8 3.6 -0.8
v -0.8 3.6 -0.9
v -0.8 4.6 -0.8
v -0.8 4.6 -0.9
v 0.9 3.6 -0.8
v 0.9 3.6 -0.9
v 0.9 4.6 -0.8
v 0.9 4.6 -0.9
v -0.8 3.6 -0.8
v -0.8 4.6 -0.8
v -0.5 3.9 -0.8
v -0.5 4 -0.8
v -0.5 4.2 -0.8
v -0.5 4.3 -0.8
v -0.4 4.2 -0.8
v -0.4 4.3 -0.8
v -0.3 3.7 -0.8
v -0.3 3.9 -0.8
v 5.96046e-08 3.7 -0.8
v 5.96046e-08 3.9 -0.8
v 0.5 4.2 -0.8
v 0.5 4.3 -0.8
v 0.6 3.9 -0.8
v 0.6 4 -0.8
v 0.6 4.2 -0.8
v 0.6 4.3 -0.8
v 0.9 3.6 -0.8
v 0.9 4.6 -0.8
v -0.8 3.6 -0.9
v -0.8 4.6 -0.9
v -0.5 3.9 -0.9
v -0.5 4 -0.9
v -0.5 4.2 -0.9
v -0.5 4.3 -0.9
v -0.4 4.2 -0.9
v -0.4 4.3 -0.9
v -0.3 3.7 -0.9
v -0.3 3.9 -0.9
v 5.96046e-08 3.7 -0.9
v 5.96046e-08 3.9 -0.9
v 0.5 4.2 -0.9
v 0.5 4.3 -0.9
v 0.6 3.9 -0.9
v 0.6 4 -0.9
v 0.6 4.2 -0.9
v 0.6 4.3 -0.9
v 0.9 3.6 -0.9
v 0.9 4.6 -0.9
v -0.8 3.6 -0.8
v 0.9 3.6 -0.8
v -0.8 3.6 -0.9
v 0.9 3.6 -0.9
v -0.8 4.6 -0.8
v 0.9 4.6 -0.8
v -0.8 4.6 -0.9
v 0.9 4.6 -0.9

# faces
f 3/2/1 2/2/1 1/2/1
f 4/2/1 2/2/1 3/2/1
f 5/2/2 6/2/2 7/2/2
f 7/2/2 6/2/2 8/2/2
f 11/2/3 10/2/3 9/2/3
f 12/2/3 10/2/3 11/2/3
f 13/2/3 10/2/3 12/2/3
f 14/2/3 10/2/3 13/2/3
f 15/2/3 13/2/3 12/2/3
f 15/3/3 14/3/3 13/3/3
f 16/2/3 10/2/3 14/2/3
f 16/3/3 14/3/3 15/3/3
f 17/2/3 11/2/3 9/2/3
f 18/3/3 12/3/3 11/3/3
f 18/2/3 11/2/3 17/2/3
f 19/2/3 17/2/3 9/2/3
f 19/1/3 18/1/3 17/1/3
f 20/3/3 12/3/3 18/3/3
f 20/1/3 18/1/3 19/1/3
f 21/2/3 15/2/3 12/2/3
f 21/2/3 16/2/3 15/2/3
f 22/2/3 10/2/3 16/2/3
f 22/2/3 16/2/3 21/2/3
f 23/3/3 12/3/3 20/3/3
f 23/2/3 20/2/3 19/2/3
f 24/2/3 21/2/3 12/2/3
f 24/3/3 12/3/3 23/3/3
f 25/3/3 22/3/3 21/3/3
f 25/2/3 21/2/3 24/2/3
f 26/2/3 10/2/3 22/2/3
f 26/3/3 22/3/3 25/3/3
f 27/2/3 23/2/3 19/2/3
f 27/2/3 19/2/3 9/2/3
f 27/2/3 26/2/3 25/2/3
f 27/2/3 24/2/3 23/2/3
f 27/2/3 25/2/3 24/2/3
f 28/2/3 10/2/3 26/2/3
f 28/2/3 26/2/3 27/2/3
f 29/2/4 30/2/4 31/2/4
f 31/2/4 30/2/4 32/2/4
f 32/2/4 30/2/4 33/2/4
f 33/2/4 30/2/4 34/2/4
f 32/2/4 33/2/4 35/2/4
f 33/3/4 34/3/4 35/3/4
f 34/2/4 30/2/4 36/2/4
f 35/3/4 34/3/4 36/3/4
f 29/2/4 31/2/4 37/2/4
f 31/3/4 32/3/4 38/3/4
f 37/2/4 31/2/4 38/2/4
f 29/2/4 37/2/4 39/2/4
f 37/1/4 38/1/4 39/1/4
f 38/3/4 32/3/4 40/3/4
f 39/1/4 38/1/4 40/1/4
f 32/2/4 35/2/4 41/2/4
f 35/2/4 36/2/4 41/2/4
f 36/2/4 30/2/4 42/2/4
f 41/2/4 36/2/4 42/2/4
f 40/3/4 32/3/4 43/3/4
f 39/2/4 40/2/4 43/2/4
f 32/2/4 41/2/4 44/2/4
f 43/3/4 32/3/4 44/3/4
f 41/3/4 42/3/4 45/3/4
f 44/2/4 41/2/4 45/2/4
f 42/2/4 30/2/4 46/2/4
f 45/3/4 42/3/4 46/3/4
f 39/2/4 43/2/4 47/2/4
f 29/2/4 39/2/4 47/2/4
f 45/2/4 46/2/4 47/2/4
f 43/2/4 44/2/4 47/2/4
f 44/2/4 45/2/4 47/2/4
f 46/2/4 30/2/4 48/2/4
f 47/2/4 46/2/4 48/2/4
f 51/2/5 50/2/5 49/2/5
f 52/2/5 50/2/5 51/2/5
f 53/2/6 54/2/6 55/2/6
f 55/2/6 54/2/6 56/2/6
