# MagicaVoxel @ Ephtracy

# group
o 

# material
mtllib bmo-5.mtl
usemtl palette

# normals
vn -1 0 0
vn 1 0 0
vn 0 0 1
vn 0 0 -1
vn 0 -1 0
vn 0 1 0

# texcoords
vt 0.958984 0.5
vt 0.974609 0.5
vt 0.990234 0.5

# verts
v -0.8 3.6 -0.8
v -0.8 3.6 -0.9
v -0.8 4.6 -0.8
v -0.8 4.6 -0.9
v 0.9 3.6 -0.8
v 0.9 3.6 -0.9
v 0.9 4.6 -0.8
v 0.9 4.6 -0.9
v -0.8 3.6 -0.8
v -0.8 4.6 -0.8
v -0.6 4.1 -0.8
v -0.6 4.2 -0.8
v -0.6 4.3 -0.8
v -0.6 4.4 -0.8
v -0.5 4.1 -0.8
v -0.5 4.2 -0.8
v -0.5 4.3 -0.8
v -0.5 4.4 -0.8
v -0.4 3.9 -0.8
v -0.4 4 -0.8
v -0.4 4.1 -0.8
v -0.4 4.2 -0.8
v -0.4 4.3 -0.8
v -0.4 4.4 -0.8
v -0.3 4.1 -0.8
v -0.3 4.2 -0.8
v -0.3 4.3 -0.8
v -0.3 4.4 -0.8
v -0.2 3.8 -0.8
v -0.2 3.9 -0.8
v -0.1 3.7 -0.8
v -0.1 3.8 -0.8
v 0.2 3.7 -0.8
v 0.2 3.8 -0.8
v 0.3 3.8 -0.8
v 0.3 3.9 -0.8
v 0.4 4.1 -0.8
v 0.4 4.2 -0.8
v 0.4 4.3 -0.8
v 0.4 4.4 -0.8
v 0.5 3.9 -0.8
v 0.5 4 -0.8
v 0.5 4.1 -0.8
v 0.5 4.2 -0.8
v 0.5 4.3 -0.8
v 0.5 4.4 -0.8
v 0.6 4.1 -0.8
v 0.6 4.2 -0.8
v 0.6 4.3 -0.8
v 0.6 4.4 -0.8
v 0.7 4.1 -0.8
v 0.7 4.2 -0.8
v 0.7 4.3 -0.8
v 0.7 4.4 -0.8
v 0.9 3.6 -0.8
v 0.9 4.6 -0.8
v -0.8 3.6 -0.9
v -0.8 4.6 -0.9
v -0.6 4.1 -0.9
v -0.6 4.2 -0.9
v -0.6 4.3 -0.9
v -0.6 4.4 -0.9
v -0.5 4.1 -0.9
v -0.5 4.2 -0.9
v -0.5 4.3 -0.9
v -0.5 4.4 -0.9
v -0.4 3.9 -0.9
v -0.4 4 -0.9
v -0.4 4.1 -0.9
v -0.4 4.2 -0.9
v -0.4 4.3 -0.9
v -0.4 4.4 -0.9
v -0.3 4.1 -0.9
v -0.3 4.2 -0.9
v -0.3 4.3 -0.9
v -0.3 4.4 -0.9
v -0.2 3.8 -0.9
v -0.2 3.9 -0.9
v -0.1 3.7 -0.9
v -0.1 3.8 -0.9
v 0.2 3.7 -0.9
v 0.2 3.8 -0.9
v 0.3 3.8 -0.9
v 0.3 3.9 -0.9
v 0.4 4.1 -0.9
v 0.4 4.2 -0.9
v 0.4 4.3 -0.9
v 0.4 4.4 -0.9
v 0.5 3.9 -0.9
v 0.5 4 -0.9
v 0.5 4.1 -0.9
v 0.5 4.2 -0.9
v 0.5 4.3 -0.9
v 0.5 4.4 -0.9
v 0.6 4.1 -0.9
v 0.6 4.2 -0.9
v 0.6 4.3 -0.9
v 0.6 4.4 -0.9
v 0.7 4.1 -0.9
v 0.7 4.2 -0.9
v 0.7 4.3 -0.9
v 0.7 4.4 -0.9
v 0.9 3.6 -0.9
v 0.9 4.6 -0.9
v -0.8 3.6 -0.8
v 0.9 3.6 -0.8
v -0.8 3.6 -0.9
v 0.9 3.6 -0.9
v -0.8 4.6 -0.8
v 0.9 4.6 -0.8
v -0.8 4.6 -0.9
v 0.9 4.6 -0.9

# faces
f 3/2/1 2/2/1 1/2/1
f 4/2/1 2/2/1 3/2/1
f 5/2/2 6/2/2 7/2/2
f 7/2/2 6/2/2 8/2/2
f 11/2/3 10/2/3 9/2/3
f 12/2/3 10/2/3 11/2/3
f 13/2/3 10/2/3 12/2/3
f 14/2/3 10/2/3 13/2/3
f 15/2/3 11/2/3 9/2/3
f 15/3/3 12/3/3 11/3/3
f 16/2/3 13/2/3 12/2/3
f 16/3/3 12/3/3 15/3/3
f 17/3/3 14/3/3 13/3/3
f 17/2/3 13/2/3 16/2/3
f 18/2/3 10/2/3 14/2/3
f 18/3/3 14/3/3 17/3/3
f 19/2/3 16/2/3 15/2/3
f 19/2/3 15/2/3 9/2/3
f 20/2/3 16/2/3 19/2/3
f 21/2/3 16/2/3 20/2/3
f 22/3/3 17/3/3 16/3/3
f 22/2/3 16/2/3 21/2/3
f 23/2/3 18/2/3 17/2/3
f 23/3/3 17/3/3 22/3/3
f 24/2/3 10/2/3 18/2/3
f 24/2/3 18/2/3 23/2/3
f 25/2/3 21/2/3 20/2/3
f 25/3/3 22/3/3 21/3/3
f 26/2/3 23/2/3 22/2/3
f 26/3/3 22/3/3 25/3/3
f 27/3/3 24/3/3 23/3/3
f 27/2/3 23/2/3 26/2/3
f 28/2/3 10/2/3 24/2/3
f 28/3/3 24/3/3 27/3/3
f 29/2/3 19/2/3 9/2/3
f 30/3/3 20/3/3 19/3/3
f 30/2/3 19/2/3 29/2/3
f 31/2/3 29/2/3 9/2/3
f 32/1/3 30/1/3 29/1/3
f 32/2/3 29/2/3 31/2/3
f 33/2/3 31/2/3 9/2/3
f 33/1/3 32/1/3 31/1/3
f 34/1/3 30/1/3 32/1/3
f 34/1/3 32/1/3 33/1/3
f 35/2/3 34/2/3 33/2/3
f 35/1/3 30/1/3 34/1/3
f 36/3/3 20/3/3 30/3/3
f 36/1/3 30/1/3 35/1/3
f 37/2/3 27/2/3 26/2/3
f 37/2/3 25/2/3 20/2/3
f 37/2/3 26/2/3 25/2/3
f 37/2/3 28/2/3 27/2/3
f 38/2/3 28/2/3 37/2/3
f 39/2/3 28/2/3 38/2/3
f 40/2/3 10/2/3 28/2/3
f 40/2/3 28/2/3 39/2/3
f 41/3/3 20/3/3 36/3/3
f 41/2/3 36/2/3 35/2/3
f 42/2/3 37/2/3 20/2/3
f 42/3/3 20/3/3 41/3/3
f 43/3/3 38/3/3 37/3/3
f 43/2/3 37/2/3 42/2/3
f 44/2/3 39/2/3 38/2/3
f 44/3/3 38/3/3 43/3/3
f 45/3/3 40/3/3 39/3/3
f 45/2/3 39/2/3 44/2/3
f 46/2/3 10/2/3 40/2/3
f 46/3/3 40/3/3 45/3/3
f 47/2/3 44/2/3 43/2/3
f 47/2/3 43/2/3 42/2/3
f 47/2/3 42/2/3 41/2/3
f 48/3/3 45/3/3 44/3/3
f 48/2/3 44/2/3 47/2/3
f 49/2/3 46/2/3 45/2/3
f 49/3/3 45/3/3 48/3/3
f 50/2/3 10/2/3 46/2/3
f 50/2/3 46/2/3 49/2/3
f 51/2/3 47/2/3 41/2/3
f 51/3/3 48/3/3 47/3/3
f 52/2/3 49/2/3 48/2/3
f 52/3/3 48/3/3 51/3/3
f 53/3/3 50/3/3 49/3/3
f 53/2/3 49/2/3 52/2/3
f 54/2/3 10/2/3 50/2/3
f 54/3/3 50/3/3 53/3/3
f 55/2/3 53/2/3 52/2/3
f 55/2/3 51/2/3 41/2/3
f 55/2/3 54/2/3 53/2/3
f 55/2/3 41/2/3 35/2/3
f 55/2/3 35/2/3 33/2/3
f 55/2/3 52/2/3 51/2/3
f 55/2/3 33/2/3 9/2/3
f 56/2/3 10/2/3 54/2/3
f 56/2/3 54/2/3 55/2/3
f 57/2/4 58/2/4 59/2/4
f 59/2/4 58/2/4 60/2/4
f 60/2/4 58/2/4 61/2/4
f 61/2/4 58/2/4 62/2/4
f 57/2/4 59/2/4 63/2/4
f 59/3/4 60/3/4 63/3/4
f 60/2/4 61/2/4 64/2/4
f 63/3/4 60/3/4 64/3/4
f 61/3/4 62/3/4 65/3/4
f 64/2/4 61/2/4 65/2/4
f 62/2/4 58/2/4 66/2/4
f 65/3/4 62/3/4 66/3/4
f 63/2/4 64/2/4 67/2/4
f 57/2/4 63/2/4 67/2/4
f 67/2/4 64/2/4 68/2/4
f 68/2/4 64/2/4 69/2/4
f 64/3/4 65/3/4 70/3/4
f 69/2/4 64/2/4 70/2/4
f 65/2/4 66/2/4 71/2/4
f 70/3/4 65/3/4 71/3/4
f 66/2/4 58/2/4 72/2/4
f 71/2/4 66/2/4 72/2/4
f 68/2/4 69/2/4 73/2/4
f 69/3/4 70/3/4 73/3/4
f 70/2/4 71/2/4 74/2/4
f 73/3/4 70/3/4 74/3/4
f 71/3/4 72/3/4 75/3/4
f 74/2/4 71/2/4 75/2/4
f 72/2/4 58/2/4 76/2/4
f 75/3/4 72/3/4 76/3/4
f 57/2/4 67/2/4 77/2/4
f 67/3/4 68/3/4 78/3/4
f 77/2/4 67/2/4 78/2/4
f 57/2/4 77/2/4 79/2/4
f 77/1/4 78/1/4 80/1/4
f 79/2/4 77/2/4 80/2/4
f 57/2/4 79/2/4 81/2/4
f 79/1/4 80/1/4 81/1/4
f 80/1/4 78/1/4 82/1/4
f 81/1/4 80/1/4 82/1/4
f 81/2/4 82/2/4 83/2/4
f 82/1/4 78/1/4 83/1/4
f 78/3/4 68/3/4 84/3/4
f 83/1/4 78/1/4 84/1/4
f 74/2/4 75/2/4 85/2/4
f 68/2/4 73/2/4 85/2/4
f 73/2/4 74/2/4 85/2/4
f 75/2/4 76/2/4 85/2/4
f 85/2/4 76/2/4 86/2/4
f 86/2/4 76/2/4 87/2/4
f 76/2/4 58/2/4 88/2/4
f 87/2/4 76/2/4 88/2/4
f 84/3/4 68/3/4 89/3/4
f 83/2/4 84/2/4 89/2/4
f 68/2/4 85/2/4 90/2/4
f 89/3/4 68/3/4 90/3/4
f 85/3/4 86/3/4 91/3/4
f 90/2/4 85/2/4 91/2/4
f 86/2/4 87/2/4 92/2/4
f 91/3/4 86/3/4 92/3/4
f 87/3/4 88/3/4 93/3/4
f 92/2/4 87/2/4 93/2/4
f 88/2/4 58/2/4 94/2/4
f 93/3/4 88/3/4 94/3/4
f 91/2/4 92/2/4 95/2/4
f 90/2/4 91/2/4 95/2/4
f 89/2/4 90/2/4 95/2/4
f 92/3/4 93/3/4 96/3/4
f 95/2/4 92/2/4 96/2/4
f 93/2/4 94/2/4 97/2/4
f 96/3/4 93/3/4 97/3/4
f 94/2/4 58/2/4 98/2/4
f 97/2/4 94/2/4 98/2/4
f 89/2/4 95/2/4 99/2/4
f 95/3/4 96/3/4 99/3/4
f 96/2/4 97/2/4 100/2/4
f 99/3/4 96/3/4 100/3/4
f 97/3/4 98/3/4 101/3/4
f 100/2/4 97/2/4 101/2/4
f 98/2/4 58/2/4 102/2/4
f 101/3/4 98/3/4 102/3/4
f 100/2/4 101/2/4 103/2/4
f 89/2/4 99/2/4 103/2/4
f 101/2/4 102/2/4 103/2/4
f 83/2/4 89/2/4 103/2/4
f 81/2/4 83/2/4 103/2/4
f 99/2/4 100/2/4 103/2/4
f 57/2/4 81/2/4 103/2/4
f 102/2/4 58/2/4 104/2/4
f 103/2/4 102/2/4 104/2/4
f 107/2/5 106/2/5 105/2/5
f 108/2/5 106/2/5 107/2/5
f 109/2/6 110/2/6 111/2/6
f 111/2/6 110/2/6 112/2/6
