# MagicaVoxel @ Ephtracy

# group
o 

# material
mtllib fin-2.mtl
usemtl palette

# normals
vn 1 0 0
vn -1 0 0
vn 0 0 -1
vn 0 0 1
vn 0 -1 0
vn 0 1 0

# texcoords
vt 0.939453 0.5
vt 0.978516 0.5
vt 0.986328 0.5

# verts
v 0.4 0.9 -0.5
v 0.4 0.9 -0.4
v 0.4 1.5 -0.5
v 0.4 1.5 -0.4
v 0.4 1.5 -0.3
v 0.4 1.6 -0.5
v 0.4 1.6 -0.4
v 0.4 1.6 -0.3
v 0.4 1.7 -0.5
v 0.4 1.7 -0.4
v 0.3 0.9 -0.5
v 0.3 0.9 -0.4
v 0.3 1.5 -0.5
v 0.3 1.5 -0.4
v 0.3 1.5 -0.3
v 0.3 1.6 -0.5
v 0.3 1.6 -0.4
v 0.3 1.6 -0.3
v 0.3 1.7 -0.5
v 0.3 1.7 -0.4
v 0.4 0.9 -0.5
v 0.4 1.5 -0.5
v 0.4 1.6 -0.5
v 0.4 1.7 -0.5
v 0.3 0.9 -0.5
v 0.3 1.5 -0.5
v 0.3 1.6 -0.5
v 0.3 1.7 -0.5
v 0.4 0.9 -0.4
v 0.4 1.5 -0.4
v 0.4 1.6 -0.4
v 0.4 1.7 -0.4
v 0.3 0.9 -0.4
v 0.3 1.5 -0.4
v 0.3 1.6 -0.4
v 0.3 1.7 -0.4
v 0.4 1.5 -0.3
v 0.4 1.6 -0.3
v 0.3 1.5 -0.3
v 0.3 1.6 -0.3
v 0.4 0.9 -0.5
v 0.3 0.9 -0.5
v 0.4 0.9 -0.4
v 0.3 0.9 -0.4
v 0.4 1.5 -0.4
v 0.3 1.5 -0.4
v 0.4 1.5 -0.3
v 0.3 1.5 -0.3
v 0.4 1.6 -0.4
v 0.3 1.6 -0.4
v 0.4 1.6 -0.3
v 0.3 1.6 -0.3
v 0.4 1.7 -0.5
v 0.3 1.7 -0.5
v 0.4 1.7 -0.4
v 0.3 1.7 -0.4

# faces
f 3/2/1 2/2/1 1/2/1
f 4/2/1 2/2/1 3/2/1
f 6/3/1 4/3/1 3/3/1
f 7/1/1 5/1/1 4/1/1
f 7/3/1 4/3/1 6/3/1
f 8/1/1 5/1/1 7/1/1
f 9/1/1 7/1/1 6/1/1
f 10/1/1 7/1/1 9/1/1
f 11/2/2 12/2/2 13/2/2
f 13/2/2 12/2/2 14/2/2
f 13/3/2 14/3/2 16/3/2
f 14/1/2 15/1/2 17/1/2
f 16/3/2 14/3/2 17/3/2
f 17/1/2 15/1/2 18/1/2
f 16/1/2 17/1/2 19/1/2
f 19/1/2 17/1/2 20/1/2
f 25/2/3 22/2/3 21/2/3
f 26/3/3 23/3/3 22/3/3
f 26/2/3 22/2/3 25/2/3
f 27/1/3 24/1/3 23/1/3
f 27/3/3 23/3/3 26/3/3
f 28/1/3 24/1/3 27/1/3
f 29/2/4 30/2/4 33/2/4
f 33/2/4 30/2/4 34/2/4
f 31/1/4 32/1/4 35/1/4
f 35/1/4 32/1/4 36/1/4
f 37/1/4 38/1/4 39/1/4
f 39/1/4 38/1/4 40/1/4
f 43/2/5 42/2/5 41/2/5
f 44/2/5 42/2/5 43/2/5
f 47/1/5 46/1/5 45/1/5
f 48/1/5 46/1/5 47/1/5
f 49/1/6 50/1/6 51/1/6
f 51/1/6 50/1/6 52/1/6
f 53/1/6 54/1/6 55/1/6
f 55/1/6 54/1/6 56/1/6
