# MagicaVoxel @ Ephtracy

# group
o 

# material
mtllib hunter-4.mtl
usemtl palette

# normals
vn -1 0 0
vn 1 0 0
vn 0 0 1
vn 0 0 -1
vn 0 -1 0
vn 0 1 0

# texcoords
vt 0.931641 0.5
vt 0.962891 0.5
vt 0.994141 0.5

# verts
v -1.2 0.6 0.1
v -1.2 0.6 0
v -1.2 0.9 0.1
v -1.2 0.9 0
v -1.1 0.9 0.1
v -1.1 0.9 0
v -1.1 1 0.1
v -1.1 1 0
v -1.1 1.1 0.1
v -1.1 1.1 0
v -1 1.1 0.1
v -1 1.1 0
v -1 1.3 0.1
v -1 1.3 0
v -1 1.4 0.1
v -1 1.4 0
v -1 1.5 0.1
v -1 1.5 0
v -1 1.6 0.1
v -1 1.6 0
v -1 1.8 0.1
v -1 1.8 0
v -0.9 1.8 0.1
v -0.9 1.8 0
v -0.9 2.1 0.1
v -0.9 2.1 0
v -0.9 2.2 0.1
v -0.9 2.2 0
v -1 0.6 0.1
v -1 0.6 0
v -1 0.7 0.1
v -1 0.7 0
v -0.9 0.7 0.1
v -0.9 0.7 0
v -0.9 1 0.1
v -0.9 1 0
v -0.8 1 0.1
v -0.8 1 0
v -0.8 1.2 0.1
v -0.8 1.2 0
v -0.8 1.3 0.1
v -0.8 1.3 0
v -0.8 1.5 0.1
v -0.8 1.5 0
v -0.8 2.1 0.1
v -0.8 2.1 0
v -0.8 2.2 0.1
v -0.8 2.2 0
v -0.7 1.3 0.1
v -0.7 1.3 0
v -0.7 1.5 0.1
v -0.7 1.5 0
v -1.2 0.6 0.1
v -1.2 0.9 0.1
v -1.1 0.9 0.1
v -1.1 1 0.1
v -1.1 1.1 0.1
v -1 0.6 0.1
v -1 0.7 0.1
v -1 1 0.1
v -1 1.1 0.1
v -1 1.3 0.1
v -1 1.4 0.1
v -1 1.5 0.1
v -1 1.6 0.1
v -1 1.8 0.1
v -0.9 0.7 0.1
v -0.9 1 0.1
v -0.9 1.2 0.1
v -0.9 1.3 0.1
v -0.9 1.4 0.1
v -0.9 1.5 0.1
v -0.9 1.6 0.1
v -0.9 1.8 0.1
v -0.9 2.1 0.1
v -0.9 2.2 0.1
v -0.8 1 0.1
v -0.8 1.2 0.1
v -0.8 1.3 0.1
v -0.8 1.5 0.1
v -0.8 2.1 0.1
v -0.8 2.2 0.1
v -0.7 1.3 0.1
v -0.7 1.5 0.1
v -1.2 0.6 0
v -1.2 0.9 0
v -1.1 0.9 0
v -1.1 1 0
v -1.1 1.1 0
v -1 0.6 0
v -1 0.7 0
v -1 1 0
v -1 1.1 0
v -1 1.3 0
v -1 1.4 0
v -1 1.5 0
v -1 1.6 0
v -1 1.8 0
v -0.9 0.7 0
v -0.9 1 0
v -0.9 1.2 0
v -0.9 1.3 0
v -0.9 1.4 0
v -0.9 1.5 0
v -0.9 1.6 0
v -0.9 1.8 0
v -0.9 2.1 0
v -0.9 2.2 0
v -0.8 1 0
v -0.8 1.2 0
v -0.8 1.3 0
v -0.8 1.5 0
v -0.8 2.1 0
v -0.8 2.2 0
v -0.7 1.3 0
v -0.7 1.5 0
v -1.2 0.6 0.1
v -1 0.6 0.1
v -1.2 0.6 0
v -1 0.6 0
v -1 0.7 0.1
v -0.9 0.7 0.1
v -1 0.7 0
v -0.9 0.7 0
v -0.9 1 0.1
v -0.8 1 0.1
v -0.9 1 0
v -0.8 1 0
v -0.8 1.3 0.1
v -0.7 1.3 0.1
v -0.8 1.3 0
v -0.7 1.3 0
v -1.2 0.9 0.1
v -1.1 0.9 0.1
v -1.2 0.9 0
v -1.1 0.9 0
v -1.1 1.1 0.1
v -1 1.1 0.1
v -1.1 1.1 0
v -1 1.1 0
v -0.8 1.5 0.1
v -0.7 1.5 0.1
v -0.8 1.5 0
v -0.7 1.5 0
v -1 1.8 0.1
v -0.9 1.8 0.1
v -1 1.8 0
v -0.9 1.8 0
v -0.9 2.2 0.1
v -0.8 2.2 0.1
v -0.9 2.2 0
v -0.8 2.2 0

# faces
f 3/3/1 2/3/1 1/3/1
f 4/3/1 2/3/1 3/3/1
f 7/3/1 6/3/1 5/3/1
f 8/3/1 6/3/1 7/3/1
f 9/1/1 8/1/1 7/1/1
f 10/1/1 8/1/1 9/1/1
f 13/3/1 12/3/1 11/3/1
f 14/3/1 12/3/1 13/3/1
f 15/1/1 14/1/1 13/1/1
f 16/1/1 14/1/1 15/1/1
f 17/2/1 16/2/1 15/2/1
f 18/2/1 16/2/1 17/2/1
f 19/1/1 18/1/1 17/1/1
f 20/1/1 18/1/1 19/1/1
f 21/3/1 20/3/1 19/3/1
f 22/3/1 20/3/1 21/3/1
f 25/2/1 24/2/1 23/2/1
f 26/2/1 24/2/1 25/2/1
f 27/1/1 26/1/1 25/1/1
f 28/1/1 26/1/1 27/1/1
f 29/3/2 30/3/2 31/3/2
f 31/3/2 30/3/2 32/3/2
f 33/3/2 34/3/2 35/3/2
f 35/3/2 34/3/2 36/3/2
f 37/3/2 38/3/2 39/3/2
f 39/3/2 38/3/2 40/3/2
f 39/2/2 40/2/2 41/2/2
f 41/2/2 40/2/2 42/2/2
f 43/2/2 44/2/2 45/2/2
f 45/2/2 44/2/2 46/2/2
f 45/1/2 46/1/2 47/1/2
f 47/1/2 46/1/2 48/1/2
f 49/1/2 50/1/2 51/1/2
f 51/1/2 50/1/2 52/1/2
f 55/3/3 54/3/3 53/3/3
f 58/3/3 55/3/3 53/3/3
f 58/3/3 56/3/3 55/3/3
f 59/3/3 56/3/3 58/3/3
f 60/1/3 57/1/3 56/1/3
f 60/3/3 56/3/3 59/3/3
f 61/1/3 57/1/3 60/1/3
f 67/3/3 60/3/3 59/3/3
f 67/3/3 61/3/3 60/3/3
f 67/3/3 62/3/3 61/3/3
f 68/3/3 62/3/3 67/3/3
f 69/3/3 62/3/3 68/3/3
f 70/1/3 63/1/3 62/1/3
f 70/3/3 62/3/3 69/3/3
f 71/2/3 64/2/3 63/2/3
f 71/1/3 63/1/3 70/1/3
f 72/1/3 65/1/3 64/1/3
f 72/2/3 64/2/3 71/2/3
f 73/3/3 66/3/3 65/3/3
f 73/1/3 65/1/3 72/1/3
f 74/3/3 66/3/3 73/3/3
f 77/3/3 69/3/3 68/3/3
f 78/2/3 72/2/3 71/2/3
f 78/3/3 69/3/3 77/3/3
f 78/2/3 71/2/3 70/2/3
f 78/2/3 74/2/3 73/2/3
f 78/2/3 73/2/3 72/2/3
f 78/2/3 75/2/3 74/2/3
f 78/2/3 70/2/3 69/2/3
f 79/2/3 75/2/3 78/2/3
f 80/2/3 75/2/3 79/2/3
f 81/1/3 76/1/3 75/1/3
f 81/2/3 75/2/3 80/2/3
f 82/1/3 76/1/3 81/1/3
f 83/1/3 80/1/3 79/1/3
f 84/1/3 80/1/3 83/1/3
f 85/3/4 86/3/4 87/3/4
f 85/3/4 87/3/4 90/3/4
f 87/3/4 88/3/4 90/3/4
f 90/3/4 88/3/4 91/3/4
f 88/1/4 89/1/4 92/1/4
f 91/3/4 88/3/4 92/3/4
f 92/1/4 89/1/4 93/1/4
f 91/3/4 92/3/4 99/3/4
f 92/3/4 93/3/4 99/3/4
f 93/3/4 94/3/4 99/3/4
f 99/3/4 94/3/4 100/3/4
f 100/3/4 94/3/4 101/3/4
f 94/1/4 95/1/4 102/1/4
f 101/3/4 94/3/4 102/3/4
f 95/2/4 96/2/4 103/2/4
f 102/1/4 95/1/4 103/1/4
f 96/1/4 97/1/4 104/1/4
f 103/2/4 96/2/4 104/2/4
f 97/3/4 98/3/4 105/3/4
f 104/1/4 97/1/4 105/1/4
f 105/3/4 98/3/4 106/3/4
f 100/3/4 101/3/4 109/3/4
f 103/2/4 104/2/4 110/2/4
f 109/3/4 101/3/4 110/3/4
f 102/2/4 103/2/4 110/2/4
f 105/2/4 106/2/4 110/2/4
f 104/2/4 105/2/4 110/2/4
f 106/2/4 107/2/4 110/2/4
f 101/2/4 102/2/4 110/2/4
f 110/2/4 107/2/4 111/2/4
f 111/2/4 107/2/4 112/2/4
f 107/1/4 108/1/4 113/1/4
f 112/2/4 107/2/4 113/2/4
f 113/1/4 108/1/4 114/1/4
f 111/1/4 112/1/4 115/1/4
f 115/1/4 112/1/4 116/1/4
f 119/3/5 118/3/5 117/3/5
f 120/3/5 118/3/5 119/3/5
f 123/3/5 122/3/5 121/3/5
f 124/3/5 122/3/5 123/3/5
f 127/3/5 126/3/5 125/3/5
f 128/3/5 126/3/5 127/3/5
f 131/1/5 130/1/5 129/1/5
f 132/1/5 130/1/5 131/1/5
f 133/3/6 134/3/6 135/3/6
f 135/3/6 134/3/6 136/3/6
f 137/1/6 138/1/6 139/1/6
f 139/1/6 138/1/6 140/1/6
f 141/1/6 142/1/6 143/1/6
f 143/1/6 142/1/6 144/1/6
f 145/3/6 146/3/6 147/3/6
f 147/3/6 146/3/6 148/3/6
f 149/1/6 150/1/6 151/1/6
f 151/1/6 150/1/6 152/1/6
