# MagicaVoxel @ Ephtracy

# group
o 

# material
mtllib hunter-0.mtl
usemtl palette

# normals
vn -1 0 0
vn 1 0 0
vn 0 0 1
vn 0 0 -1
vn 0 -1 0
vn 0 1 0

# texcoords
vt 0.943359 0.5
vt 0.947266 0.5
vt 0.974609 0.5
vt 0.978516 0.5

# verts
v -0.3 0 0
v -0.3 0 -0.4
v -0.3 0.1 -0.1
v -0.3 0.1 -0.4
v -0.3 0.2 0
v -0.3 0.2 -0.1
v -0.3 0.2 -0.2
v -0.3 0.2 -0.4
v -0.3 0.3 -0.1
v -0.3 0.3 -0.2
v -0.3 0.4 0
v -0.3 0.4 -0.1
v -0.3 0.5 0
v -0.3 0.5 -0.2
v -0.3 1.2 0
v -0.3 1.2 -0.2
v -0.1 0 0
v -0.1 0 -0.4
v -0.1 0.1 -0.1
v -0.1 0.1 -0.4
v -0.1 0.2 0
v -0.1 0.2 -0.1
v -0.1 0.2 -0.2
v -0.1 0.2 -0.4
v -0.1 0.3 -0.1
v -0.1 0.3 -0.2
v -0.1 0.4 0
v -0.1 0.4 -0.2
v -0.1 0.5 0
v -0.1 0.5 -0.2
v -0.1 0.8 0
v -0.1 0.8 -0.2
v -0.1 0.9 0
v -0.1 0.9 -0.2
v -0.1 1.2 0
v -0.1 1.2 -0.2
v -0.3 0 0
v -0.3 0.2 0
v -0.3 0.4 0
v -0.3 0.5 0
v -0.3 1.2 0
v -0.2 0.5 0
v -0.2 0.8 0
v -0.2 0.9 0
v -0.2 1.2 0
v -0.1 0 0
v -0.1 0.2 0
v -0.1 0.4 0
v -0.1 0.5 0
v -0.1 0.8 0
v -0.1 0.9 0
v -0.1 1.2 0
v -0.3 0.2 -0.2
v -0.3 0.3 -0.2
v -0.3 0.5 -0.2
v -0.3 1.2 -0.2
v -0.2 0.2 -0.2
v -0.2 0.3 -0.2
v -0.2 0.4 -0.2
v -0.2 0.5 -0.2
v -0.2 0.8 -0.2
v -0.2 0.9 -0.2
v -0.2 1.2 -0.2
v -0.1 0.2 -0.2
v -0.1 0.3 -0.2
v -0.1 0.4 -0.2
v -0.1 0.5 -0.2
v -0.1 0.8 -0.2
v -0.1 0.9 -0.2
v -0.1 1.2 -0.2
v -0.3 0 -0.4
v -0.3 0.1 -0.4
v -0.3 0.2 -0.4
v -0.1 0 -0.4
v -0.1 0.1 -0.4
v -0.1 0.2 -0.4
v -0.3 0 0
v -0.1 0 0
v -0.3 0 -0.4
v -0.1 0 -0.4
v -0.3 0.2 -0.2
v -0.2 0.2 -0.2
v -0.1 0.2 -0.2
v -0.3 0.2 -0.4
v -0.1 0.2 -0.4
v -0.3 1.2 0
v -0.2 1.2 0
v -0.1 1.2 0
v -0.3 1.2 -0.2
v -0.2 1.2 -0.2
v -0.1 1.2 -0.2

# faces
f 3/1/1 2/1/1 1/1/1
f 4/1/1 2/1/1 3/1/1
f 5/1/1 3/1/1 1/1/1
f 6/3/1 4/3/1 3/3/1
f 6/1/1 3/1/1 5/1/1
f 7/3/1 4/3/1 6/3/1
f 8/3/1 4/3/1 7/3/1
f 9/3/1 6/3/1 5/3/1
f 9/3/1 7/3/1 6/3/1
f 10/3/1 7/3/1 9/3/1
f 11/3/1 9/3/1 5/3/1
f 12/1/1 10/1/1 9/1/1
f 12/3/1 9/3/1 11/3/1
f 13/1/1 12/1/1 11/1/1
f 14/1/1 10/1/1 12/1/1
f 14/1/1 12/1/1 13/1/1
f 15/2/1 14/2/1 13/2/1
f 16/2/1 14/2/1 15/2/1
f 17/1/2 18/1/2 19/1/2
f 19/1/2 18/1/2 20/1/2
f 17/1/2 19/1/2 21/1/2
f 19/3/2 20/3/2 22/3/2
f 21/1/2 19/1/2 22/1/2
f 22/3/2 20/3/2 23/3/2
f 23/3/2 20/3/2 24/3/2
f 21/3/2 22/3/2 25/3/2
f 22/1/2 23/1/2 25/1/2
f 25/1/2 23/1/2 26/1/2
f 21/3/2 25/3/2 27/3/2
f 25/3/2 26/3/2 27/3/2
f 27/3/2 26/3/2 28/3/2
f 27/1/2 28/1/2 29/1/2
f 29/1/2 28/1/2 30/1/2
f 29/4/2 30/4/2 31/4/2
f 31/4/2 30/4/2 32/4/2
f 31/2/2 32/2/2 33/2/2
f 33/2/2 32/2/2 34/2/2
f 33/4/2 34/4/2 35/4/2
f 35/4/2 34/4/2 36/4/2
f 42/1/3 40/1/3 39/1/3
f 42/2/3 41/2/3 40/2/3
f 43/2/3 41/2/3 42/2/3
f 44/2/3 41/2/3 43/2/3
f 45/2/3 41/2/3 44/2/3
f 46/1/3 38/1/3 37/1/3
f 47/3/3 39/3/3 38/3/3
f 47/1/3 38/1/3 46/1/3
f 48/1/3 42/1/3 39/1/3
f 48/3/3 39/3/3 47/3/3
f 49/4/3 43/4/3 42/4/3
f 49/1/3 42/1/3 48/1/3
f 50/2/3 44/2/3 43/2/3
f 50/4/3 43/4/3 49/4/3
f 51/4/3 45/4/3 44/4/3
f 51/2/3 44/2/3 50/2/3
f 52/4/3 45/4/3 51/4/3
f 53/3/4 54/3/4 57/3/4
f 54/1/4 55/1/4 58/1/4
f 57/3/4 54/3/4 58/3/4
f 58/1/4 55/1/4 59/1/4
f 55/2/4 56/2/4 60/2/4
f 59/1/4 55/1/4 60/1/4
f 60/2/4 56/2/4 61/2/4
f 61/2/4 56/2/4 62/2/4
f 62/2/4 56/2/4 63/2/4
f 57/1/4 58/1/4 64/1/4
f 58/3/4 59/3/4 65/3/4
f 64/1/4 58/1/4 65/1/4
f 59/1/4 60/1/4 66/1/4
f 65/3/4 59/3/4 66/3/4
f 60/4/4 61/4/4 67/4/4
f 66/1/4 60/1/4 67/1/4
f 61/2/4 62/2/4 68/2/4
f 67/4/4 61/4/4 68/4/4
f 62/4/4 63/4/4 69/4/4
f 68/2/4 62/2/4 69/2/4
f 69/4/4 63/4/4 70/4/4
f 71/1/4 72/1/4 74/1/4
f 72/3/4 73/3/4 75/3/4
f 74/1/4 72/1/4 75/1/4
f 75/3/4 73/3/4 76/3/4
f 79/1/5 78/1/5 77/1/5
f 80/1/5 78/1/5 79/1/5
f 81/3/6 82/3/6 84/3/6
f 82/3/6 83/3/6 84/3/6
f 84/3/6 83/3/6 85/3/6
f 86/2/6 87/2/6 89/2/6
f 87/4/6 88/4/6 90/4/6
f 89/2/6 87/2/6 90/2/6
f 90/4/6 88/4/6 91/4/6
