# MagicaVoxel @ Ephtracy

# group
o 

# material
mtllib dollar.mtl
usemtl palette

# normals
vn -1 0 0
vn 1 0 0
vn 0 0 1
vn 0 0 -1
vn 0 -1 0
vn 0 1 0

# texcoords
vt 0.970703 0.5
vt 0.974609 0.5

# verts
v -0.3 0 -0.3
v -0.3 0 -0.5
v -0.3 0.1 0.4
v -0.3 0.1 0.3
v -0.3 0.3 0.4
v -0.3 0.3 0.3
v -0.3 0.3 -0.3
v -0.3 0.3 -0.5
v -0.2 0 0.5
v -0.2 0 0.4
v -0.2 0 -0.2
v -0.2 0 -0.3
v -0.2 0 -0.5
v -0.2 0 -0.6
v -0.2 0.1 0.4
v -0.2 0.3 0.5
v -0.2 0.3 0.4
v -0.2 0.3 -0.2
v -0.2 0.3 -0.3
v -0.2 0.3 -0.5
v -0.2 0.3 -0.6
v -0.1 0 0.6
v -0.1 0 0.5
v -0.1 0 -0.1
v -0.1 0 -0.2
v -0.1 0 -0.6
v -0.1 0 -0.7
v -0.1 0.1 0.7
v -0.1 0.1 0.6
v -0.1 0.1 0.4
v -0.1 0.1 -0.1
v -0.1 0.1 -0.3
v -0.1 0.1 -0.5
v -0.1 0.1 -0.7
v -0.1 0.1 -0.9
v -0.1 0.2 0.7
v -0.1 0.2 0.6
v -0.1 0.2 0.4
v -0.1 0.2 -0.1
v -0.1 0.2 -0.3
v -0.1 0.2 -0.5
v -0.1 0.2 -0.7
v -0.1 0.2 -0.9
v -0.1 0.3 0.6
v -0.1 0.3 0.5
v -0.1 0.3 -0.1
v -0.1 0.3 -0.2
v -0.1 0.3 -0.6
v -0.1 0.3 -0.7
v 0 0 0
v 0 0 -0.1
v 0 0.1 0
v 0 0.1 -0.1
v 0 0.2 0
v 0 0.2 -0.1
v 0 0.3 0
v 0 0.3 -0.1
v 0.1 0 0.1
v 0.1 0 0
v 0.1 0.1 0.8
v 0.1 0.1 0.6
v 0.1 0.1 0.5
v 0.1 0.1 0.1
v 0.1 0.1 -0.1
v 0.1 0.1 -0.6
v 0.1 0.1 -0.7
v 0.1 0.1 -0.8
v 0.1 0.2 0.8
v 0.1 0.2 0.6
v 0.1 0.2 0.5
v 0.1 0.2 0.1
v 0.1 0.2 -0.1
v 0.1 0.2 -0.6
v 0.1 0.2 -0.7
v 0.1 0.2 -0.8
v 0.1 0.3 0.1
v 0.1 0.3 0
v 0.2 0 0.5
v 0.2 0 0.4
v 0.2 0 0.2
v 0.2 0 0.1
v 0.2 0 -0.5
v 0.2 0 -0.6
v 0.2 0.1 0.5
v 0.2 0.1 0.4
v 0.2 0.1 0.2
v 0.2 0.1 0.1
v 0.2 0.1 -0.5
v 0.2 0.1 -0.6
v 0.2 0.2 0.5
v 0.2 0.2 0.4
v 0.2 0.2 0.2
v 0.2 0.2 0.1
v 0.2 0.2 -0.5
v 0.2 0.2 -0.6
v 0.2 0.3 0.5
v 0.2 0.3 0.4
v 0.2 0.3 0.2
v 0.2 0.3 0.1
v 0.2 0.3 -0.5
v 0.2 0.3 -0.6
v 0.3 0 0.4
v 0.3 0 0.2
v 0.3 0 -0.4
v 0.3 0 -0.5
v 0.3 0.3 0.4
v 0.3 0.3 0.2
v 0.3 0.3 -0.4
v 0.3 0.3 -0.5
v -0.2 0 -0.3
v -0.2 0 -0.5
v -0.2 0.1 0.4
v -0.2 0.1 0.3
v -0.2 0.3 0.4
v -0.2 0.3 0.3
v -0.2 0.3 -0.3
v -0.2 0.3 -0.5
v -0.1 0 0.5
v -0.1 0 0.4
v -0.1 0 -0.2
v -0.1 0 -0.3
v -0.1 0 -0.5
v -0.1 0 -0.6
v -0.1 0.1 0.5
v -0.1 0.1 0.4
v -0.1 0.1 -0.2
v -0.1 0.1 -0.3
v -0.1 0.1 -0.5
v -0.1 0.1 -0.6
v -0.1 0.2 0.5
v -0.1 0.2 0.4
v -0.1 0.2 -0.2
v -0.1 0.2 -0.3
v -0.1 0.2 -0.5
v -0.1 0.2 -0.6
v -0.1 0.3 0.5
v -0.1 0.3 0.4
v -0.1 0.3 -0.2
v -0.1 0.3 -0.3
v -0.1 0.3 -0.5
v -0.1 0.3 -0.6
v 0 0 -0.1
v 0 0 -0.2
v 0 0.1 0.7
v 0 0.1 0.6
v 0 0.1 0.5
v 0 0.1 0
v 0 0.1 -0.2
v 0 0.1 -0.6
v 0 0.1 -0.7
v 0 0.1 -0.9
v 0 0.2 0.7
v 0 0.2 0.6
v 0 0.2 0.5
v 0 0.2 0
v 0 0.2 -0.2
v 0 0.2 -0.6
v 0 0.2 -0.7
v 0 0.2 -0.9
v 0 0.3 -0.1
v 0 0.3 -0.2
v 0.1 0 0
v 0.1 0 -0.1
v 0.1 0.1 0
v 0.1 0.1 -0.1
v 0.1 0.2 0
v 0.1 0.2 -0.1
v 0.1 0.3 0
v 0.1 0.3 -0.1
v 0.2 0 0.6
v 0.2 0 0.5
v 0.2 0 0.1
v 0.2 0 0
v 0.2 0 -0.6
v 0.2 0 -0.7
v 0.2 0.1 0.8
v 0.2 0.1 0.6
v 0.2 0.1 0.4
v 0.2 0.1 0.2
v 0.2 0.1 0
v 0.2 0.1 -0.5
v 0.2 0.1 -0.7
v 0.2 0.1 -0.8
v 0.2 0.2 0.8
v 0.2 0.2 0.6
v 0.2 0.2 0.4
v 0.2 0.2 0.2
v 0.2 0.2 0
v 0.2 0.2 -0.5
v 0.2 0.2 -0.7
v 0.2 0.2 -0.8
v 0.2 0.3 0.6
v 0.2 0.3 0.5
v 0.2 0.3 0.1
v 0.2 0.3 0
v 0.2 0.3 -0.6
v 0.2 0.3 -0.7
v 0.3 0 0.5
v 0.3 0 0.4
v 0.3 0 0.2
v 0.3 0 0.1
v 0.3 0 -0.5
v 0.3 0 -0.6
v 0.3 0.3 0.5
v 0.3 0.3 0.4
v 0.3 0.3 0.2
v 0.3 0.3 0.1
v 0.3 0.3 -0.5
v 0.3 0.3 -0.6
v 0.4 0 0.4
v 0.4 0 0.2
v 0.4 0 -0.4
v 0.4 0 -0.5
v 0.4 0.3 0.4
v 0.4 0.3 0.2
v 0.4 0.3 -0.4
v 0.4 0.3 -0.5
v 0.1 0.1 0.8
v 0.1 0.2 0.8
v 0.2 0.1 0.8
v 0.2 0.2 0.8
v -0.1 0.1 0.7
v -0.1 0.2 0.7
v 0 0.1 0.7
v 0 0.2 0.7
v -0.1 0 0.6
v -0.1 0.1 0.6
v -0.1 0.2 0.6
v -0.1 0.3 0.6
v 0 0.1 0.6
v 0 0.2 0.6
v 0.1 0.1 0.6
v 0.1 0.2 0.6
v 0.2 0 0.6
v 0.2 0.1 0.6
v 0.2 0.2 0.6
v 0.2 0.3 0.6
v -0.2 0 0.5
v -0.2 0.3 0.5
v -0.1 0 0.5
v -0.1 0.3 0.5
v 0.2 0 0.5
v 0.2 0.3 0.5
v 0.3 0 0.5
v 0.3 0.3 0.5
v -0.3 0.1 0.4
v -0.3 0.3 0.4
v -0.2 0.1 0.4
v -0.2 0.3 0.4
v 0.3 0 0.4
v 0.3 0.3 0.4
v 0.4 0 0.4
v 0.4 0.3 0.4
v 0.2 0 0.2
v 0.2 0.1 0.2
v 0.2 0.2 0.2
v 0.2 0.3 0.2
v 0.3 0 0.2
v 0.3 0.3 0.2
v 0.1 0 0.1
v 0.1 0.1 0.1
v 0.1 0.2 0.1
v 0.1 0.3 0.1
v 0.2 0 0.1
v 0.2 0.1 0.1
v 0.2 0.2 0.1
v 0.2 0.3 0.1
v 0 0 0
v 0 0.1 0
v 0 0.2 0
v 0 0.3 0
v 0.1 0 0
v 0.1 0.3 0
v -0.1 0 -0.1
v -0.1 0.1 -0.1
v -0.1 0.2 -0.1
v -0.1 0.3 -0.1
v 0 0 -0.1
v 0 0.1 -0.1
v 0 0.2 -0.1
v 0 0.3 -0.1
v -0.2 0 -0.2
v -0.2 0.3 -0.2
v -0.1 0 -0.2
v -0.1 0.3 -0.2
v -0.3 0 -0.3
v -0.3 0.3 -0.3
v -0.2 0 -0.3
v -0.2 0.3 -0.3
v 0.3 0 -0.4
v 0.3 0.3 -0.4
v 0.4 0 -0.4
v 0.4 0.3 -0.4
v -0.2 0 -0.5
v -0.2 0.3 -0.5
v -0.1 0 -0.5
v -0.1 0.1 -0.5
v -0.1 0.2 -0.5
v -0.1 0.3 -0.5
v 0.2 0 -0.5
v 0.2 0.1 -0.5
v 0.2 0.2 -0.5
v 0.2 0.3 -0.5
v 0.3 0 -0.5
v 0.3 0.3 -0.5
v -0.1 0 -0.6
v -0.1 0.1 -0.6
v -0.1 0.2 -0.6
v -0.1 0.3 -0.6
v 0 0.1 -0.6
v 0 0.2 -0.6
v 0.1 0.1 -0.6
v 0.1 0.2 -0.6
v 0.2 0 -0.6
v 0.2 0.1 -0.6
v 0.2 0.2 -0.6
v 0.2 0.3 -0.6
v -0.1 0 0.5
v -0.1 0.1 0.5
v -0.1 0.2 0.5
v -0.1 0.3 0.5
v 0 0.1 0.5
v 0 0.2 0.5
v 0.1 0.1 0.5
v 0.1 0.2 0.5
v 0.2 0 0.5
v 0.2 0.1 0.5
v 0.2 0.2 0.5
v 0.2 0.3 0.5
v -0.2 0 0.4
v -0.2 0.1 0.4
v -0.2 0.3 0.4
v -0.1 0 0.4
v -0.1 0.1 0.4
v -0.1 0.2 0.4
v -0.1 0.3 0.4
v 0.2 0 0.4
v 0.2 0.1 0.4
v 0.2 0.2 0.4
v 0.2 0.3 0.4
v 0.3 0 0.4
v 0.3 0.3 0.4
v -0.3 0.1 0.3
v -0.3 0.3 0.3
v -0.2 0.1 0.3
v -0.2 0.3 0.3
v 0.3 0 0.2
v 0.3 0.3 0.2
v 0.4 0 0.2
v 0.4 0.3 0.2
v 0.2 0 0.1
v 0.2 0.3 0.1
v 0.3 0 0.1
v 0.3 0.3 0.1
v 0.1 0 0
v 0.1 0.1 0
v 0.1 0.2 0
v 0.1 0.3 0
v 0.2 0 0
v 0.2 0.1 0
v 0.2 0.2 0
v 0.2 0.3 0
v 0 0 -0.1
v 0 0.3 -0.1
v 0.1 0 -0.1
v 0.1 0.1 -0.1
v 0.1 0.2 -0.1
v 0.1 0.3 -0.1
v -0.1 0 -0.2
v -0.1 0.1 -0.2
v -0.1 0.2 -0.2
v -0.1 0.3 -0.2
v 0 0 -0.2
v 0 0.1 -0.2
v 0 0.2 -0.2
v 0 0.3 -0.2
v -0.2 0 -0.3
v -0.2 0.3 -0.3
v -0.1 0 -0.3
v -0.1 0.1 -0.3
v -0.1 0.2 -0.3
v -0.1 0.3 -0.3
v -0.3 0 -0.5
v -0.3 0.3 -0.5
v -0.2 0 -0.5
v -0.2 0.3 -0.5
v 0.3 0 -0.5
v 0.3 0.3 -0.5
v 0.4 0 -0.5
v 0.4 0.3 -0.5
v -0.2 0 -0.6
v -0.2 0.3 -0.6
v -0.1 0 -0.6
v -0.1 0.3 -0.6
v 0.2 0 -0.6
v 0.2 0.3 -0.6
v 0.3 0 -0.6
v 0.3 0.3 -0.6
v -0.1 0 -0.7
v -0.1 0.1 -0.7
v -0.1 0.2 -0.7
v -0.1 0.3 -0.7
v 0 0.1 -0.7
v 0 0.2 -0.7
v 0.1 0.1 -0.7
v 0.1 0.2 -0.7
v 0.2 0 -0.7
v 0.2 0.1 -0.7
v 0.2 0.2 -0.7
v 0.2 0.3 -0.7
v 0.1 0.1 -0.8
v 0.1 0.2 -0.8
v 0.2 0.1 -0.8
v 0.2 0.2 -0.8
v -0.1 0.1 -0.9
v -0.1 0.2 -0.9
v 0 0.1 -0.9
v 0 0.2 -0.9
v -0.1 0 0.6
v 0.2 0 0.6
v -0.2 0 0.5
v -0.1 0 0.5
v 0.2 0 0.5
v 0.3 0 0.5
v -0.2 0 0.4
v -0.1 0 0.4
v 0.2 0 0.4
v 0.3 0 0.4
v 0.4 0 0.4
v 0.2 0 0.2
v 0.3 0 0.2
v 0.4 0 0.2
v 0.1 0 0.1
v 0.2 0 0.1
v 0.3 0 0.1
v 0 0 0
v 0.1 0 0
v 0.2 0 0
v -0.1 0 -0.1
v 0 0 -0.1
v 0.1 0 -0.1
v -0.2 0 -0.2
v -0.1 0 -0.2
v 0 0 -0.2
v -0.3 0 -0.3
v -0.2 0 -0.3
v -0.1 0 -0.3
v 0.3 0 -0.4
v 0.4 0 -0.4
v -0.3 0 -0.5
v -0.2 0 -0.5
v -0.1 0 -0.5
v 0.2 0 -0.5
v 0.3 0 -0.5
v 0.4 0 -0.5
v -0.2 0 -0.6
v -0.1 0 -0.6
v 0.2 0 -0.6
v 0.3 0 -0.6
v -0.1 0 -0.7
v 0.2 0 -0.7
v 0.1 0.1 0.8
v 0.2 0.1 0.8
v -0.1 0.1 0.7
v 0 0.1 0.7
v -0.1 0.1 0.6
v 0 0.1 0.6
v 0.1 0.1 0.6
v 0.2 0.1 0.6
v -0.1 0.1 0.5
v 0 0.1 0.5
v 0.1 0.1 0.5
v 0.2 0.1 0.5
v -0.3 0.1 0.4
v -0.2 0.1 0.4
v -0.1 0.1 0.4
v 0.2 0.1 0.4
v -0.3 0.1 0.3
v -0.2 0.1 0.3
v 0.2 0.1 0.2
v 0.1 0.1 0.1
v 0.2 0.1 0.1
v 0 0.1 0
v 0.1 0.1 0
v 0.2 0.1 0
v -0.1 0.1 -0.1
v 0 0.1 -0.1
v 0.1 0.1 -0.1
v -0.1 0.1 -0.2
v 0 0.1 -0.2
v -0.1 0.1 -0.3
v -0.1 0.1 -0.5
v 0.2 0.1 -0.5
v -0.1 0.1 -0.6
v 0 0.1 -0.6
v 0.1 0.1 -0.6
v 0.2 0.1 -0.6
v -0.1 0.1 -0.7
v 0 0.1 -0.7
v 0.1 0.1 -0.7
v 0.2 0.1 -0.7
v 0.1 0.1 -0.8
v 0.2 0.1 -0.8
v -0.1 0.1 -0.9
v 0 0.1 -0.9
v 0.1 0.2 0.8
v 0.2 0.2 0.8
v -0.1 0.2 0.7
v 0 0.2 0.7
v -0.1 0.2 0.6
v 0 0.2 0.6
v 0.1 0.2 0.6
v 0.2 0.2 0.6
v -0.1 0.2 0.5
v 0 0.2 0.5
v 0.1 0.2 0.5
v 0.2 0.2 0.5
v -0.1 0.2 0.4
v 0.2 0.2 0.4
v 0.2 0.2 0.2
v 0.1 0.2 0.1
v 0.2 0.2 0.1
v 0 0.2 0
v 0.1 0.2 0
v 0.2 0.2 0
v -0.1 0.2 -0.1
v 0 0.2 -0.1
v 0.1 0.2 -0.1
v -0.1 0.2 -0.2
v 0 0.2 -0.2
v -0.1 0.2 -0.3
v -0.1 0.2 -0.5
v 0.2 0.2 -0.5
v -0.1 0.2 -0.6
v 0 0.2 -0.6
v 0.1 0.2 -0.6
v 0.2 0.2 -0.6
v -0.1 0.2 -0.7
v 0 0.2 -0.7
v 0.1 0.2 -0.7
v 0.2 0.2 -0.7
v 0.1 0.2 -0.8
v 0.2 0.2 -0.8
v -0.1 0.2 -0.9
v 0 0.2 -0.9
v -0.1 0.3 0.6
v 0.2 0.3 0.6
v -0.2 0.3 0.5
v -0.1 0.3 0.5
v 0.2 0.3 0.5
v 0.3 0.3 0.5
v -0.3 0.3 0.4
v -0.2 0.3 0.4
v -0.1 0.3 0.4
v 0.2 0.3 0.4
v 0.3 0.3 0.4
v 0.4 0.3 0.4
v -0.3 0.3 0.3
v -0.2 0.3 0.3
v 0.2 0.3 0.2
v 0.3 0.3 0.2
v 0.4 0.3 0.2
v 0.1 0.3 0.1
v 0.2 0.3 0.1
v 0.3 0.3 0.1
v 0 0.3 0
v 0.1 0.3 0
v 0.2 0.3 0
v -0.1 0.3 -0.1
v 0 0.3 -0.1
v 0.1 0.3 -0.1
v -0.2 0.3 -0.2
v -0.1 0.3 -0.2
v 0 0.3 -0.2
v -0.3 0.3 -0.3
v -0.2 0.3 -0.3
v -0.1 0.3 -0.3
v 0.3 0.3 -0.4
v 0.4 0.3 -0.4
v -0.3 0.3 -0.5
v -0.2 0.3 -0.5
v -0.1 0.3 -0.5
v 0.2 0.3 -0.5
v 0.3 0.3 -0.5
v 0.4 0.3 -0.5
v -0.2 0.3 -0.6
v -0.1 0.3 -0.6
v 0.2 0.3 -0.6
v 0.3 0.3 -0.6
v -0.1 0.3 -0.7
v 0.2 0.3 -0.7

# faces
f 5/2/1 4/2/1 3/2/1
f 6/2/1 4/2/1 5/2/1
f 7/2/1 2/2/1 1/2/1
f 8/2/1 2/2/1 7/2/1
f 15/2/1 10/2/1 9/2/1
f 16/2/1 15/2/1 9/2/1
f 17/2/1 15/2/1 16/2/1
f 18/2/1 12/2/1 11/2/1
f 19/2/1 12/2/1 18/2/1
f 20/2/1 14/2/1 13/2/1
f 21/2/1 14/2/1 20/2/1
f 29/2/1 23/2/1 22/2/1
f 31/2/1 25/2/1 24/2/1
f 34/2/1 27/2/1 26/2/1
f 36/1/1 29/1/1 28/1/1
f 37/2/1 23/2/1 29/2/1
f 37/1/1 29/1/1 36/1/1
f 38/1/1 31/1/1 30/1/1
f 39/2/1 25/2/1 31/2/1
f 39/1/1 31/1/1 38/1/1
f 40/1/1 33/1/1 32/1/1
f 41/1/1 33/1/1 40/1/1
f 42/1/1 35/1/1 34/1/1
f 42/2/1 34/2/1 26/2/1
f 43/1/1 35/1/1 42/1/1
f 44/2/1 23/2/1 37/2/1
f 45/2/1 23/2/1 44/2/1
f 46/2/1 25/2/1 39/2/1
f 47/2/1 25/2/1 46/2/1
f 48/2/1 42/2/1 26/2/1
f 49/2/1 42/2/1 48/2/1
f 52/2/1 51/2/1 50/2/1
f 53/2/1 51/2/1 52/2/1
f 56/2/1 55/2/1 54/2/1
f 57/2/1 55/2/1 56/2/1
f 63/2/1 59/2/1 58/2/1
f 68/1/1 61/1/1 60/1/1
f 69/1/1 61/1/1 68/1/1
f 70/1/1 63/1/1 62/1/1
f 71/2/1 59/2/1 63/2/1
f 71/1/1 63/1/1 70/1/1
f 72/1/1 65/1/1 64/1/1
f 73/1/1 65/1/1 72/1/1
f 74/1/1 67/1/1 66/1/1
f 75/1/1 67/1/1 74/1/1
f 76/2/1 59/2/1 71/2/1
f 77/2/1 59/2/1 76/2/1
f 84/2/1 79/2/1 78/2/1
f 85/2/1 79/2/1 84/2/1
f 86/2/1 81/2/1 80/2/1
f 87/2/1 81/2/1 86/2/1
f 88/2/1 83/2/1 82/2/1
f 89/2/1 83/2/1 88/2/1
f 96/2/1 91/2/1 90/2/1
f 97/2/1 91/2/1 96/2/1
f 98/2/1 93/2/1 92/2/1
f 99/2/1 93/2/1 98/2/1
f 100/2/1 95/2/1 94/2/1
f 101/2/1 95/2/1 100/2/1
f 106/2/1 103/2/1 102/2/1
f 107/2/1 103/2/1 106/2/1
f 108/2/1 105/2/1 104/2/1
f 109/2/1 105/2/1 108/2/1
f 112/2/2 113/2/2 114/2/2
f 114/2/2 113/2/2 115/2/2
f 110/2/2 111/2/2 116/2/2
f 116/2/2 111/2/2 117/2/2
f 118/2/2 119/2/2 124/2/2
f 124/2/2 119/2/2 125/2/2
f 120/2/2 121/2/2 126/2/2
f 126/2/2 121/2/2 127/2/2
f 122/2/2 123/2/2 128/2/2
f 128/2/2 123/2/2 129/2/2
f 130/2/2 131/2/2 136/2/2
f 136/2/2 131/2/2 137/2/2
f 132/2/2 133/2/2 138/2/2
f 138/2/2 133/2/2 139/2/2
f 134/2/2 135/2/2 140/2/2
f 140/2/2 135/2/2 141/2/2
f 142/2/2 143/2/2 148/2/2
f 144/1/2 145/1/2 152/1/2
f 152/1/2 145/1/2 153/1/2
f 146/1/2 147/1/2 154/1/2
f 154/1/2 147/1/2 155/1/2
f 142/2/2 148/2/2 156/2/2
f 148/1/2 149/1/2 156/1/2
f 156/1/2 149/1/2 157/1/2
f 150/1/2 151/1/2 158/1/2
f 158/1/2 151/1/2 159/1/2
f 142/2/2 156/2/2 160/2/2
f 160/2/2 156/2/2 161/2/2
f 162/2/2 163/2/2 164/2/2
f 164/2/2 163/2/2 165/2/2
f 166/2/2 167/2/2 168/2/2
f 168/2/2 167/2/2 169/2/2
f 170/2/2 171/2/2 177/2/2
f 172/2/2 173/2/2 180/2/2
f 174/2/2 175/2/2 182/2/2
f 176/1/2 177/1/2 184/1/2
f 177/2/2 171/2/2 185/2/2
f 184/1/2 177/1/2 185/1/2
f 178/1/2 179/1/2 186/1/2
f 186/1/2 179/1/2 187/1/2
f 180/1/2 181/1/2 188/1/2
f 172/2/2 180/2/2 188/2/2
f 188/1/2 181/1/2 189/1/2
f 182/1/2 183/1/2 190/1/2
f 174/2/2 182/2/2 190/2/2
f 190/1/2 183/1/2 191/1/2
f 185/2/2 171/2/2 192/2/2
f 192/2/2 171/2/2 193/2/2
f 172/2/2 188/2/2 194/2/2
f 194/2/2 188/2/2 195/2/2
f 174/2/2 190/2/2 196/2/2
f 196/2/2 190/2/2 197/2/2
f 198/2/2 199/2/2 204/2/2
f 204/2/2 199/2/2 205/2/2
f 200/2/2 201/2/2 206/2/2
f 206/2/2 201/2/2 207/2/2
f 202/2/2 203/2/2 208/2/2
f 208/2/2 203/2/2 209/2/2
f 210/2/2 211/2/2 214/2/2
f 214/2/2 211/2/2 215/2/2
f 212/2/2 213/2/2 216/2/2
f 216/2/2 213/2/2 217/2/2
f 220/1/3 219/1/3 218/1/3
f 221/1/3 219/1/3 220/1/3
f 224/1/3 223/1/3 222/1/3
f 225/1/3 223/1/3 224/1/3
f 230/2/3 227/2/3 226/2/3
f 231/2/3 229/2/3 228/2/3
f 232/2/3 230/2/3 226/2/3
f 232/2/3 231/2/3 230/2/3
f 233/2/3 229/2/3 231/2/3
f 233/2/3 231/2/3 232/2/3
f 234/2/3 232/2/3 226/2/3
f 235/2/3 232/2/3 234/2/3
f 236/2/3 229/2/3 233/2/3
f 237/2/3 229/2/3 236/2/3
f 240/2/3 239/2/3 238/2/3
f 241/2/3 239/2/3 240/2/3
f 244/2/3 243/2/3 242/2/3
f 245/2/3 243/2/3 244/2/3
f 248/2/3 247/2/3 246/2/3
f 249/2/3 247/2/3 248/2/3
f 252/2/3 251/2/3 250/2/3
f 253/2/3 251/2/3 252/2/3
f 258/2/3 255/2/3 254/2/3
f 258/2/3 257/2/3 256/2/3
f 258/2/3 256/2/3 255/2/3
f 259/2/3 257/2/3 258/2/3
f 264/2/3 261/2/3 260/2/3
f 265/2/3 261/2/3 264/2/3
f 266/2/3 263/2/3 262/2/3
f 267/2/3 263/2/3 266/2/3
f 272/2/3 269/2/3 268/2/3
f 272/2/3 271/2/3 270/2/3
f 272/2/3 270/2/3 269/2/3
f 273/2/3 271/2/3 272/2/3
f 278/2/3 275/2/3 274/2/3
f 279/2/3 275/2/3 278/2/3
f 280/2/3 277/2/3 276/2/3
f 281/2/3 277/2/3 280/2/3
f 284/2/3 283/2/3 282/2/3
f 285/2/3 283/2/3 284/2/3
f 288/2/3 287/2/3 286/2/3
f 289/2/3 287/2/3 288/2/3
f 292/2/3 291/2/3 290/2/3
f 293/2/3 291/2/3 292/2/3
f 296/2/3 295/2/3 294/2/3
f 297/2/3 295/2/3 296/2/3
f 298/2/3 295/2/3 297/2/3
f 299/2/3 295/2/3 298/2/3
f 304/2/3 301/2/3 300/2/3
f 304/2/3 303/2/3 302/2/3
f 304/2/3 302/2/3 301/2/3
f 305/2/3 303/2/3 304/2/3
f 310/2/3 307/2/3 306/2/3
f 311/2/3 309/2/3 308/2/3
f 312/2/3 310/2/3 306/2/3
f 312/2/3 311/2/3 310/2/3
f 313/2/3 309/2/3 311/2/3
f 313/2/3 311/2/3 312/2/3
f 314/2/3 312/2/3 306/2/3
f 315/2/3 312/2/3 314/2/3
f 316/2/3 309/2/3 313/2/3
f 317/2/3 309/2/3 316/2/3
f 318/2/4 319/2/4 322/2/4
f 320/2/4 321/2/4 323/2/4
f 318/2/4 322/2/4 324/2/4
f 322/2/4 323/2/4 324/2/4
f 323/2/4 321/2/4 325/2/4
f 324/2/4 323/2/4 325/2/4
f 318/2/4 324/2/4 326/2/4
f 326/2/4 324/2/4 327/2/4
f 325/2/4 321/2/4 328/2/4
f 328/2/4 321/2/4 329/2/4
f 330/2/4 331/2/4 333/2/4
f 331/2/4 332/2/4 333/2/4
f 333/2/4 332/2/4 334/2/4
f 334/2/4 332/2/4 335/2/4
f 335/2/4 332/2/4 336/2/4
f 337/2/4 338/2/4 341/2/4
f 339/2/4 340/2/4 341/2/4
f 338/2/4 339/2/4 341/2/4
f 341/2/4 340/2/4 342/2/4
f 343/2/4 344/2/4 345/2/4
f 345/2/4 344/2/4 346/2/4
f 347/2/4 348/2/4 349/2/4
f 349/2/4 348/2/4 350/2/4
f 351/2/4 352/2/4 353/2/4
f 353/2/4 352/2/4 354/2/4
f 355/2/4 356/2/4 359/2/4
f 359/2/4 356/2/4 360/2/4
f 357/2/4 358/2/4 361/2/4
f 361/2/4 358/2/4 362/2/4
f 363/2/4 364/2/4 365/2/4
f 365/2/4 364/2/4 366/2/4
f 366/2/4 364/2/4 367/2/4
f 367/2/4 364/2/4 368/2/4
f 369/2/4 370/2/4 373/2/4
f 373/2/4 370/2/4 374/2/4
f 371/2/4 372/2/4 375/2/4
f 375/2/4 372/2/4 376/2/4
f 377/2/4 378/2/4 379/2/4
f 379/2/4 378/2/4 380/2/4
f 380/2/4 378/2/4 381/2/4
f 381/2/4 378/2/4 382/2/4
f 383/2/4 384/2/4 385/2/4
f 385/2/4 384/2/4 386/2/4
f 387/2/4 388/2/4 389/2/4
f 389/2/4 388/2/4 390/2/4
f 391/2/4 392/2/4 393/2/4
f 393/2/4 392/2/4 394/2/4
f 395/2/4 396/2/4 397/2/4
f 397/2/4 396/2/4 398/2/4
f 399/2/4 400/2/4 403/2/4
f 401/2/4 402/2/4 404/2/4
f 399/2/4 403/2/4 405/2/4
f 403/2/4 404/2/4 405/2/4
f 404/2/4 402/2/4 406/2/4
f 405/2/4 404/2/4 406/2/4
f 399/2/4 405/2/4 407/2/4
f 407/2/4 405/2/4 408/2/4
f 406/2/4 402/2/4 409/2/4
f 409/2/4 402/2/4 410/2/4
f 411/1/4 412/1/4 413/1/4
f 413/1/4 412/1/4 414/1/4
f 415/1/4 416/1/4 417/1/4
f 417/1/4 416/1/4 418/1/4
f 422/2/5 420/2/5 419/2/5
f 423/2/5 420/2/5 422/2/5
f 425/2/5 422/2/5 421/2/5
f 426/2/5 422/2/5 425/2/5
f 427/2/5 424/2/5 423/2/5
f 428/2/5 424/2/5 427/2/5
f 431/2/5 429/2/5 428/2/5
f 432/2/5 429/2/5 431/2/5
f 434/2/5 431/2/5 430/2/5
f 435/2/5 431/2/5 434/2/5
f 437/2/5 434/2/5 433/2/5
f 438/2/5 434/2/5 437/2/5
f 440/2/5 437/2/5 436/2/5
f 441/2/5 437/2/5 440/2/5
f 443/2/5 440/2/5 439/2/5
f 444/2/5 440/2/5 443/2/5
f 446/2/5 443/2/5 442/2/5
f 447/2/5 443/2/5 446/2/5
f 450/2/5 446/2/5 445/2/5
f 451/2/5 446/2/5 450/2/5
f 454/2/5 449/2/5 448/2/5
f 455/2/5 449/2/5 454/2/5
f 456/2/5 452/2/5 451/2/5
f 457/2/5 452/2/5 456/2/5
f 458/2/5 454/2/5 453/2/5
f 459/2/5 454/2/5 458/2/5
f 460/2/5 458/2/5 457/2/5
f 461/2/5 458/2/5 460/2/5
f 466/1/5 465/1/5 464/1/5
f 467/1/5 465/1/5 466/1/5
f 468/1/5 463/1/5 462/1/5
f 469/1/5 463/1/5 468/1/5
f 476/1/5 471/1/5 470/1/5
f 477/1/5 473/1/5 472/1/5
f 478/2/5 475/2/5 474/2/5
f 479/2/5 475/2/5 478/2/5
f 480/1/5 477/1/5 472/1/5
f 481/1/5 480/1/5 472/1/5
f 482/1/5 480/1/5 481/1/5
f 483/1/5 471/1/5 476/1/5
f 486/1/5 483/1/5 476/1/5
f 487/1/5 483/1/5 486/1/5
f 488/1/5 485/1/5 484/1/5
f 491/1/5 490/1/5 489/1/5
f 492/1/5 490/1/5 491/1/5
f 493/1/5 485/1/5 488/1/5
f 494/1/5 490/1/5 492/1/5
f 495/1/5 490/1/5 494/1/5
f 496/1/5 493/1/5 488/1/5
f 497/1/5 493/1/5 496/1/5
f 502/1/5 501/1/5 500/1/5
f 503/1/5 501/1/5 502/1/5
f 504/1/5 499/1/5 498/1/5
f 505/1/5 499/1/5 504/1/5
f 508/1/6 509/1/6 510/1/6
f 510/1/6 509/1/6 511/1/6
f 506/1/6 507/1/6 512/1/6
f 512/1/6 507/1/6 513/1/6
f 514/1/6 515/1/6 518/1/6
f 516/1/6 517/1/6 519/1/6
f 516/1/6 519/1/6 520/1/6
f 516/1/6 520/1/6 521/1/6
f 521/1/6 520/1/6 522/1/6
f 518/1/6 515/1/6 523/1/6
f 518/1/6 523/1/6 526/1/6
f 526/1/6 523/1/6 527/1/6
f 524/1/6 525/1/6 528/1/6
f 529/1/6 530/1/6 531/1/6
f 531/1/6 530/1/6 532/1/6
f 528/1/6 525/1/6 533/1/6
f 532/1/6 530/1/6 534/1/6
f 534/1/6 530/1/6 535/1/6
f 528/1/6 533/1/6 536/1/6
f 536/1/6 533/1/6 537/1/6
f 540/1/6 541/1/6 542/1/6
f 542/1/6 541/1/6 543/1/6
f 538/1/6 539/1/6 544/1/6
f 544/1/6 539/1/6 545/1/6
f 546/2/6 547/2/6 549/2/6
f 549/2/6 547/2/6 550/2/6
f 548/2/6 549/2/6 553/2/6
f 553/2/6 549/2/6 554/2/6
f 550/2/6 551/2/6 555/2/6
f 555/2/6 551/2/6 556/2/6
f 552/2/6 553/2/6 558/2/6
f 558/2/6 553/2/6 559/2/6
f 556/2/6 557/2/6 561/2/6
f 561/2/6 557/2/6 562/2/6
f 560/2/6 561/2/6 564/2/6
f 564/2/6 561/2/6 565/2/6
f 563/2/6 564/2/6 567/2/6
f 567/2/6 564/2/6 568/2/6
f 566/2/6 567/2/6 570/2/6
f 570/2/6 567/2/6 571/2/6
f 569/2/6 570/2/6 573/2/6
f 573/2/6 570/2/6 574/2/6
f 572/2/6 573/2/6 576/2/6
f 576/2/6 573/2/6 577/2/6
f 575/2/6 576/2/6 580/2/6
f 580/2/6 576/2/6 581/2/6
f 578/2/6 579/2/6 584/2/6
f 584/2/6 579/2/6 585/2/6
f 581/2/6 582/2/6 586/2/6
f 586/2/6 582/2/6 587/2/6
f 583/2/6 584/2/6 588/2/6
f 588/2/6 584/2/6 589/2/6
f 587/2/6 588/2/6 590/2/6
f 590/2/6 588/2/6 591/2/6
