# MagicaVoxel @ Ephtracy

# group
o 

# material
mtllib bubblegum-0.mtl
usemtl palette

# normals
vn -1 0 0
vn 1 0 0
vn 0 0 1
vn 0 0 -1
vn 0 -1 0
vn 0 1 0

# texcoords
vt 0.970703 0.5
vt 0.974609 0.5
vt 0.982422 0.5

# verts
v 0.3 2 -0.4
v 0.3 2 -0.8
v 0.3 2 -0.9
v 0.3 2.2 -0.4
v 0.3 2.2 -0.5
v 0.3 2.2 -0.8
v 0.3 2.2 -0.9
v 0.3 2.3 -0.5
v 0.3 2.3 -0.8
v 0.4 1.3 -0.6
v 0.4 1.3 -0.7
v 0.4 2 -0.6
v 0.4 2 -0.7
v 0.5 1.3 -0.6
v 0.5 1.3 -0.7
v 0.5 2 -0.4
v 0.5 2 -0.5
v 0.5 2 -0.6
v 0.5 2 -0.7
v 0.5 2 -0.8
v 0.5 2 -0.9
v 0.5 2.2 -0.4
v 0.5 2.2 -0.5
v 0.5 2.2 -0.8
v 0.5 2.2 -0.9
v 0.5 2.3 -0.5
v 0.5 2.3 -0.8
v 0.6 2 -0.5
v 0.6 2 -0.8
v 0.6 2.2 -0.5
v 0.6 2.2 -0.8
v 0.3 2 -0.4
v 0.3 2.2 -0.4
v 0.5 2 -0.4
v 0.5 2.2 -0.4
v 0.3 2.2 -0.5
v 0.3 2.3 -0.5
v 0.5 2 -0.5
v 0.5 2.2 -0.5
v 0.5 2.3 -0.5
v 0.6 2 -0.5
v 0.6 2.2 -0.5
v 0.4 1.3 -0.6
v 0.4 2 -0.6
v 0.5 1.3 -0.6
v 0.5 2 -0.6
v 0.4 1.3 -0.7
v 0.4 2 -0.7
v 0.5 1.3 -0.7
v 0.5 2 -0.7
v 0.3 2.2 -0.8
v 0.3 2.3 -0.8
v 0.4 2.2 -0.8
v 0.5 2 -0.8
v 0.5 2.2 -0.8
v 0.5 2.3 -0.8
v 0.6 2 -0.8
v 0.6 2.2 -0.8
v 0.3 2 -0.9
v 0.3 2.2 -0.9
v 0.4 2 -0.9
v 0.4 2.2 -0.9
v 0.5 2 -0.9
v 0.5 2.2 -0.9
v 0.4 1.3 -0.6
v 0.5 1.3 -0.6
v 0.4 1.3 -0.7
v 0.5 1.3 -0.7
v 0.3 2 -0.4
v 0.5 2 -0.4
v 0.5 2 -0.5
v 0.6 2 -0.5
v 0.4 2 -0.6
v 0.5 2 -0.6
v 0.4 2 -0.7
v 0.5 2 -0.7
v 0.3 2 -0.8
v 0.4 2 -0.8
v 0.5 2 -0.8
v 0.6 2 -0.8
v 0.3 2 -0.9
v 0.4 2 -0.9
v 0.5 2 -0.9
v 0.3 2.2 -0.4
v 0.5 2.2 -0.4
v 0.3 2.2 -0.5
v 0.5 2.2 -0.5
v 0.6 2.2 -0.5
v 0.3 2.2 -0.8
v 0.4 2.2 -0.8
v 0.5 2.2 -0.8
v 0.6 2.2 -0.8
v 0.3 2.2 -0.9
v 0.4 2.2 -0.9
v 0.5 2.2 -0.9
v 0.3 2.3 -0.5
v 0.5 2.3 -0.5
v 0.3 2.3 -0.8
v 0.5 2.3 -0.8

# faces
f 4/1/1 2/1/1 1/1/1
f 5/1/1 2/1/1 4/1/1
f 6/2/1 3/2/1 2/2/1
f 6/1/1 2/1/1 5/1/1
f 7/2/1 3/2/1 6/2/1
f 8/1/1 6/1/1 5/1/1
f 9/1/1 6/1/1 8/1/1
f 12/3/1 11/3/1 10/3/1
f 13/3/1 11/3/1 12/3/1
f 14/3/2 15/3/2 18/3/2
f 18/3/2 15/3/2 19/3/2
f 16/1/2 17/1/2 22/1/2
f 22/1/2 17/1/2 23/1/2
f 20/1/2 21/1/2 24/1/2
f 24/1/2 21/1/2 25/1/2
f 23/1/2 24/1/2 26/1/2
f 26/1/2 24/1/2 27/1/2
f 28/1/2 29/1/2 30/1/2
f 30/1/2 29/1/2 31/1/2
f 34/1/3 33/1/3 32/1/3
f 35/1/3 33/1/3 34/1/3
f 39/1/3 37/1/3 36/1/3
f 40/1/3 37/1/3 39/1/3
f 41/1/3 39/1/3 38/1/3
f 42/1/3 39/1/3 41/1/3
f 45/3/3 44/3/3 43/3/3
f 46/3/3 44/3/3 45/3/3
f 47/3/4 48/3/4 49/3/4
f 49/3/4 48/3/4 50/3/4
f 51/1/4 52/1/4 53/1/4
f 53/1/4 52/1/4 55/1/4
f 55/1/4 52/1/4 56/1/4
f 54/1/4 55/1/4 57/1/4
f 57/1/4 55/1/4 58/1/4
f 59/2/4 60/2/4 61/2/4
f 61/2/4 60/2/4 62/2/4
f 61/1/4 62/1/4 63/1/4
f 63/1/4 62/1/4 64/1/4
f 67/3/5 66/3/5 65/3/5
f 68/3/5 66/3/5 67/3/5
f 71/1/5 70/1/5 69/1/5
f 73/1/5 71/1/5 69/1/5
f 73/1/5 72/1/5 71/1/5
f 74/1/5 72/1/5 73/1/5
f 75/1/5 73/1/5 69/1/5
f 76/1/5 72/1/5 74/1/5
f 77/1/5 75/1/5 69/1/5
f 77/1/5 76/1/5 75/1/5
f 78/1/5 76/1/5 77/1/5
f 79/1/5 72/1/5 76/1/5
f 79/1/5 76/1/5 78/1/5
f 80/1/5 72/1/5 79/1/5
f 81/2/5 78/2/5 77/2/5
f 82/1/5 79/1/5 78/1/5
f 82/2/5 78/2/5 81/2/5
f 83/1/5 79/1/5 82/1/5
f 84/1/6 85/1/6 86/1/6
f 86/1/6 85/1/6 87/1/6
f 87/1/6 88/1/6 91/1/6
f 91/1/6 88/1/6 92/1/6
f 89/2/6 90/2/6 93/2/6
f 90/1/6 91/1/6 94/1/6
f 93/2/6 90/2/6 94/2/6
f 94/1/6 91/1/6 95/1/6
f 96/1/6 97/1/6 98/1/6
f 98/1/6 97/1/6 99/1/6
