# MagicaVoxel @ Ephtracy

# group
o 

# material
mtllib beekeeper-4.mtl
usemtl palette

# normals
vn -1 0 0
vn 1 0 0
vn 0 0 1
vn 0 0 -1
vn 0 -1 0
vn 0 1 0

# texcoords
vt 0.947266 0.5
vt 0.970703 0.5
vt 0.978516 0.5

# verts
v -0.3 1.2 0
v -0.3 1.2 -0.2
v -0.3 1.3 0
v -0.3 1.3 -0.2
v -0.3 2.2 0
v -0.3 2.2 -0.2
v -0.3 2.2 -0.4
v -0.3 2.3 0.1
v -0.3 2.3 0
v -0.3 2.8 0.1
v -0.3 2.8 -0.1
v -0.3 2.9 -0.1
v -0.3 2.9 -0.4
v -0.2 2.2 0.1
v -0.2 2.2 0
v -0.2 2.3 0.2
v -0.2 2.3 0.1
v -0.2 2.3 0
v -0.2 2.8 0.2
v -0.2 2.8 0.1
v -0.2 2.8 -0.1
v -0.2 2.9 0.1
v -0.2 2.9 -0.1
v -0.1 2.3 0
v -0.1 2.3 -0.2
v -0.1 2.4 0
v -0.1 2.4 -0.2
v -0.1 2.5 -0.3
v -0.1 2.5 -0.4
v -0.1 2.6 -0.3
v -0.1 2.6 -0.4
v 0.2 2.3 0
v 0.2 2.3 -0.4
v 0.2 2.4 0
v 0.2 2.4 -0.3
v 0.2 2.7 0
v 0.2 2.7 -0.3
v 0.2 2.8 0
v 0.2 2.8 -0.4
v -0.2 2.3 0
v -0.2 2.3 -0.4
v -0.2 2.4 0
v -0.2 2.4 -0.3
v -0.2 2.7 0
v -0.2 2.7 -0.3
v -0.2 2.8 0
v -0.2 2.8 -0.4
v 0.1 2.3 0
v 0.1 2.3 -0.2
v 0.1 2.4 0
v 0.1 2.4 -0.2
v 0.1 2.5 -0.3
v 0.1 2.5 -0.4
v 0.1 2.6 -0.3
v 0.1 2.6 -0.4
v 0.2 2.2 0.1
v 0.2 2.2 0
v 0.2 2.3 0.2
v 0.2 2.3 0.1
v 0.2 2.3 0
v 0.2 2.8 0.2
v 0.2 2.8 0.1
v 0.2 2.8 -0.1
v 0.2 2.9 0.1
v 0.2 2.9 -0.1
v 0.3 1.2 0
v 0.3 1.2 -0.2
v 0.3 1.3 0
v 0.3 1.3 -0.2
v 0.3 2.2 0
v 0.3 2.2 -0.2
v 0.3 2.2 -0.4
v 0.3 2.3 0.1
v 0.3 2.3 0
v 0.3 2.8 0.1
v 0.3 2.8 -0.1
v 0.3 2.9 -0.1
v 0.3 2.9 -0.4
v -0.2 2.3 0.2
v -0.2 2.8 0.2
v 0.2 2.3 0.2
v 0.2 2.8 0.2
v -0.3 2.3 0.1
v -0.3 2.8 0.1
v -0.2 2.2 0.1
v -0.2 2.3 0.1
v -0.2 2.8 0.1
v -0.2 2.9 0.1
v 0.2 2.2 0.1
v 0.2 2.3 0.1
v 0.2 2.8 0.1
v 0.2 2.9 0.1
v 0.3 2.3 0.1
v 0.3 2.8 0.1
v -0.3 1.2 0
v -0.3 1.3 0
v -0.3 2.2 0
v -0.3 2.3 0
v -0.2 1.3 0
v -0.2 1.4 0
v -0.2 1.5 0
v -0.2 2.2 0
v -0.2 2.3 0
v 0.2 1.3 0
v 0.2 1.4 0
v 0.2 1.5 0
v 0.2 2.2 0
v 0.2 2.3 0
v 0.3 1.2 0
v 0.3 1.3 0
v 0.3 2.2 0
v 0.3 2.3 0
v -0.3 2.8 -0.1
v -0.3 2.9 -0.1
v -0.2 2.8 -0.1
v -0.2 2.9 -0.1
v 0.2 2.8 -0.1
v 0.2 2.9 -0.1
v 0.3 2.8 -0.1
v 0.3 2.9 -0.1
v -0.2 2.3 0
v -0.2 2.4 0
v -0.2 2.7 0
v -0.2 2.8 0
v -0.1 2.3 0
v -0.1 2.4 0
v 0.1 2.3 0
v 0.1 2.4 0
v 0.2 2.3 0
v 0.2 2.4 0
v 0.2 2.7 0
v 0.2 2.8 0
v -0.3 1.2 -0.2
v -0.3 1.3 -0.2
v -0.3 2.2 -0.2
v -0.2 1.3 -0.2
v -0.2 1.4 -0.2
v -0.2 1.5 -0.2
v -0.2 2.2 -0.2
v -0.1 2.3 -0.2
v -0.1 2.4 -0.2
v 0.1 2.3 -0.2
v 0.1 2.4 -0.2
v 0.2 1.3 -0.2
v 0.2 1.4 -0.2
v 0.2 1.5 -0.2
v 0.2 2.2 -0.2
v 0.3 1.2 -0.2
v 0.3 1.3 -0.2
v 0.3 2.2 -0.2
v -0.2 2.4 -0.3
v -0.2 2.7 -0.3
v -0.1 2.5 -0.3
v -0.1 2.6 -0.3
v 0.1 2.5 -0.3
v 0.1 2.6 -0.3
v 0.2 2.4 -0.3
v 0.2 2.7 -0.3
v -0.3 2.2 -0.4
v -0.3 2.9 -0.4
v -0.2 2.3 -0.4
v -0.2 2.8 -0.4
v -0.1 2.5 -0.4
v -0.1 2.6 -0.4
v 0.1 2.5 -0.4
v 0.1 2.6 -0.4
v 0.2 2.3 -0.4
v 0.2 2.8 -0.4
v 0.3 2.2 -0.4
v 0.3 2.9 -0.4
v -0.3 1.2 0
v 0.3 1.2 0
v -0.3 1.2 -0.2
v 0.3 1.2 -0.2
v -0.2 2.2 0.1
v 0.2 2.2 0.1
v -0.2 2.2 0
v 0.2 2.2 0
v -0.3 2.2 -0.2
v -0.2 2.2 -0.2
v 0.2 2.2 -0.2
v 0.3 2.2 -0.2
v -0.3 2.2 -0.4
v 0.3 2.2 -0.4
v -0.2 2.3 0.2
v 0.2 2.3 0.2
v -0.3 2.3 0.1
v -0.2 2.3 0.1
v 0.2 2.3 0.1
v 0.3 2.3 0.1
v -0.3 2.3 0
v -0.2 2.3 0
v 0.2 2.3 0
v 0.3 2.3 0
v -0.2 2.4 0
v -0.1 2.4 0
v 0.1 2.4 0
v 0.2 2.4 0
v -0.1 2.4 -0.2
v 0.1 2.4 -0.2
v -0.2 2.4 -0.3
v 0.2 2.4 -0.3
v -0.1 2.5 -0.3
v 0.1 2.5 -0.3
v -0.1 2.5 -0.4
v 0.1 2.5 -0.4
v -0.2 2.8 0
v 0.2 2.8 0
v -0.2 2.8 -0.4
v 0.2 2.8 -0.4
v -0.2 2.3 0
v -0.1 2.3 0
v 0.1 2.3 0
v 0.2 2.3 0
v -0.1 2.3 -0.2
v 0.1 2.3 -0.2
v -0.2 2.3 -0.4
v 0.2 2.3 -0.4
v -0.1 2.6 -0.3
v 0.1 2.6 -0.3
v -0.1 2.6 -0.4
v 0.1 2.6 -0.4
v -0.2 2.7 0
v 0.2 2.7 0
v -0.2 2.7 -0.3
v 0.2 2.7 -0.3
v -0.2 2.8 0.2
v 0.2 2.8 0.2
v -0.3 2.8 0.1
v -0.2 2.8 0.1
v 0.2 2.8 0.1
v 0.3 2.8 0.1
v -0.3 2.8 -0.1
v -0.2 2.8 -0.1
v 0.2 2.8 -0.1
v 0.3 2.8 -0.1
v -0.2 2.9 0.1
v 0.2 2.9 0.1
v -0.3 2.9 -0.1
v -0.2 2.9 -0.1
v 0.2 2.9 -0.1
v 0.3 2.9 -0.1
v -0.3 2.9 -0.4
v 0.3 2.9 -0.4

# faces
f 3/3/1 2/3/1 1/3/1
f 4/3/1 2/3/1 3/3/1
f 5/1/1 4/1/1 3/1/1
f 6/1/1 4/1/1 5/1/1
f 9/3/1 6/3/1 5/3/1
f 9/3/1 7/3/1 6/3/1
f 10/3/1 9/3/1 8/3/1
f 11/3/1 7/3/1 9/3/1
f 11/3/1 9/3/1 10/3/1
f 12/3/1 7/3/1 11/3/1
f 13/3/1 7/3/1 12/3/1
f 17/3/1 15/3/1 14/3/1
f 18/3/1 15/3/1 17/3/1
f 19/3/1 17/3/1 16/3/1
f 20/3/1 17/3/1 19/3/1
f 22/3/1 21/3/1 20/3/1
f 23/3/1 21/3/1 22/3/1
f 26/2/1 25/2/1 24/2/1
f 27/2/1 25/2/1 26/2/1
f 30/2/1 29/2/1 28/2/1
f 31/2/1 29/2/1 30/2/1
f 34/3/1 33/3/1 32/3/1
f 35/3/1 33/3/1 34/3/1
f 37/3/1 33/3/1 35/3/1
f 38/3/1 37/3/1 36/3/1
f 39/3/1 33/3/1 37/3/1
f 39/3/1 37/3/1 38/3/1
f 40/3/2 41/3/2 42/3/2
f 42/3/2 41/3/2 43/3/2
f 43/3/2 41/3/2 45/3/2
f 44/3/2 45/3/2 46/3/2
f 45/3/2 41/3/2 47/3/2
f 46/3/2 45/3/2 47/3/2
f 48/2/2 49/2/2 50/2/2
f 50/2/2 49/2/2 51/2/2
f 52/2/2 53/2/2 54/2/2
f 54/2/2 53/2/2 55/2/2
f 56/3/2 57/3/2 59/3/2
f 59/3/2 57/3/2 60/3/2
f 58/3/2 59/3/2 61/3/2
f 61/3/2 59/3/2 62/3/2
f 62/3/2 63/3/2 64/3/2
f 64/3/2 63/3/2 65/3/2
f 66/3/2 67/3/2 68/3/2
f 68/3/2 67/3/2 69/3/2
f 68/1/2 69/1/2 70/1/2
f 70/1/2 69/1/2 71/1/2
f 70/3/2 71/3/2 74/3/2
f 71/3/2 72/3/2 74/3/2
f 73/3/2 74/3/2 75/3/2
f 74/3/2 72/3/2 76/3/2
f 75/3/2 74/3/2 76/3/2
f 76/3/2 72/3/2 77/3/2
f 77/3/2 72/3/2 78/3/2
f 81/3/3 80/3/3 79/3/3
f 82/3/3 80/3/3 81/3/3
f 86/3/3 84/3/3 83/3/3
f 87/3/3 84/3/3 86/3/3
f 89/3/3 86/3/3 85/3/3
f 90/3/3 86/3/3 89/3/3
f 91/3/3 88/3/3 87/3/3
f 92/3/3 88/3/3 91/3/3
f 93/3/3 91/3/3 90/3/3
f 94/3/3 91/3/3 93/3/3
f 99/3/3 96/3/3 95/3/3
f 99/1/3 97/1/3 96/1/3
f 100/1/3 97/1/3 99/1/3
f 101/1/3 97/1/3 100/1/3
f 102/3/3 98/3/3 97/3/3
f 102/1/3 97/1/3 101/1/3
f 103/3/3 98/3/3 102/3/3
f 104/3/3 99/3/3 95/3/3
f 104/3/3 100/3/3 99/3/3
f 105/1/3 101/1/3 100/1/3
f 105/3/3 100/3/3 104/3/3
f 106/3/3 102/3/3 101/3/3
f 106/1/3 101/1/3 105/1/3
f 107/3/3 102/3/3 106/3/3
f 109/3/3 104/3/3 95/3/3
f 110/1/3 105/1/3 104/1/3
f 110/3/3 104/3/3 109/3/3
f 110/1/3 106/1/3 105/1/3
f 110/1/3 107/1/3 106/1/3
f 111/3/3 108/3/3 107/3/3
f 111/1/3 107/1/3 110/1/3
f 112/3/3 108/3/3 111/3/3
f 115/3/3 114/3/3 113/3/3
f 116/3/3 114/3/3 115/3/3
f 119/3/3 118/3/3 117/3/3
f 120/3/3 118/3/3 119/3/3
f 121/3/4 122/3/4 125/3/4
f 125/3/4 122/3/4 126/3/4
f 127/3/4 128/3/4 129/3/4
f 129/3/4 128/3/4 130/3/4
f 123/3/4 124/3/4 131/3/4
f 131/3/4 124/3/4 132/3/4
f 133/3/4 134/3/4 136/3/4
f 134/1/4 135/1/4 136/1/4
f 136/1/4 135/1/4 137/1/4
f 137/1/4 135/1/4 138/1/4
f 138/1/4 135/1/4 139/1/4
f 140/2/4 141/2/4 142/2/4
f 142/2/4 141/2/4 143/2/4
f 133/3/4 136/3/4 144/3/4
f 136/3/4 137/3/4 144/3/4
f 137/1/4 138/1/4 145/1/4
f 144/3/4 137/3/4 145/3/4
f 138/3/4 139/3/4 146/3/4
f 145/1/4 138/1/4 146/1/4
f 146/3/4 139/3/4 147/3/4
f 133/3/4 144/3/4 148/3/4
f 144/1/4 145/1/4 149/1/4
f 148/3/4 144/3/4 149/3/4
f 145/1/4 146/1/4 149/1/4
f 146/1/4 147/1/4 149/1/4
f 149/1/4 147/1/4 150/1/4
f 151/2/4 152/2/4 153/2/4
f 153/2/4 152/2/4 154/2/4
f 151/2/4 153/2/4 155/2/4
f 154/2/4 152/2/4 156/2/4
f 151/2/4 155/2/4 157/2/4
f 155/2/4 156/2/4 157/2/4
f 156/2/4 152/2/4 158/2/4
f 157/2/4 156/2/4 158/2/4
f 159/3/4 160/3/4 161/3/4
f 161/3/4 160/3/4 162/3/4
f 163/2/4 164/2/4 165/2/4
f 165/2/4 164/2/4 166/2/4
f 159/3/4 161/3/4 167/3/4
f 162/3/4 160/3/4 168/3/4
f 159/3/4 167/3/4 169/3/4
f 167/3/4 168/3/4 169/3/4
f 168/3/4 160/3/4 170/3/4
f 169/3/4 168/3/4 170/3/4
f 173/3/5 172/3/5 171/3/5
f 174/3/5 172/3/5 173/3/5
f 177/3/5 176/3/5 175/3/5
f 178/3/5 176/3/5 177/3/5
f 183/3/5 181/3/5 180/3/5
f 183/3/5 182/3/5 181/3/5
f 183/3/5 180/3/5 179/3/5
f 184/3/5 182/3/5 183/3/5
f 188/3/5 186/3/5 185/3/5
f 189/3/5 186/3/5 188/3/5
f 191/3/5 188/3/5 187/3/5
f 192/3/5 188/3/5 191/3/5
f 193/3/5 190/3/5 189/3/5
f 194/3/5 190/3/5 193/3/5
f 199/2/5 196/2/5 195/2/5
f 200/2/5 198/2/5 197/2/5
f 201/2/5 199/2/5 195/2/5
f 201/2/5 200/2/5 199/2/5
f 202/2/5 198/2/5 200/2/5
f 202/2/5 200/2/5 201/2/5
f 205/2/5 204/2/5 203/2/5
f 206/2/5 204/2/5 205/2/5
f 209/3/5 208/3/5 207/3/5
f 210/3/5 208/3/5 209/3/5
f 211/3/6 212/3/6 215/3/6
f 213/3/6 214/3/6 216/3/6
f 211/3/6 215/3/6 217/3/6
f 215/3/6 216/3/6 217/3/6
f 216/3/6 214/3/6 218/3/6
f 217/3/6 216/3/6 218/3/6
f 219/2/6 220/2/6 221/2/6
f 221/2/6 220/2/6 222/2/6
f 223/2/6 224/2/6 225/2/6
f 225/2/6 224/2/6 226/2/6
f 227/3/6 228/3/6 230/3/6
f 230/3/6 228/3/6 231/3/6
f 229/3/6 230/3/6 233/3/6
f 233/3/6 230/3/6 234/3/6
f 231/3/6 232/3/6 235/3/6
f 235/3/6 232/3/6 236/3/6
f 237/3/6 238/3/6 240/3/6
f 240/3/6 238/3/6 241/3/6
f 239/3/6 240/3/6 243/3/6
f 241/3/6 242/3/6 243/3/6
f 240/3/6 241/3/6 243/3/6
f 243/3/6 242/3/6 244/3/6
